<svg xmlns="http://www.w3.org/2000/svg" width="557" height="361" viewBox="0 0 557 361" fill="none"><g clip-path="url(#clip0_31279_7859)"><g opacity="0.8"><path opacity="0.15" d="M-0.217007 180.205C-0.217011 80.7934 83.2544 0.193875 186.264 0.126792L186.264 360.283C83.2544 360.216 -0.217003 279.616 -0.217007 180.205Z" fill="#7AB0E2" stroke="#FFA450" stroke-width="0.257408"></path><path opacity="0.15" d="M373.132 -0.00192146C269.996 -0.00191695 186.393 80.6767 186.393 180.205C186.393 279.733 269.996 360.412 373.132 360.412L373.132 -0.00192146Z" fill="#7AB0E2"></path><path opacity="0.15" d="M373.132 360.412C373.132 260.671 456.735 179.821 559.871 179.821C663.006 179.821 746.609 260.671 746.609 360.412L373.132 360.412Z" fill="#7AB0E2"></path><path opacity="0.15" d="M373.132 0.000713825C373.132 99.3167 456.735 179.823 559.871 179.823C663.006 179.823 746.609 99.3167 746.609 0.0006975L373.132 0.000713825Z" fill="#7AB0E2"></path></g><mask id="mask0_31279_7859" style="mask-type:alpha" maskUnits="userSpaceOnUse" x="62" y="-26" width="574" height="387"><rect x="635.33" y="360.686" width="572.654" height="385.788" transform="rotate(-180 635.33 360.686)" fill="#E0EEFA"></rect></mask><g mask="url(#mask0_31279_7859)"><path d="M511.388 347.502C502.026 356.085 482.202 362.776 482.202 362.776L483.942 392.889H389.855L346.909 389.551L342.593 379.511C342.593 379.511 333.457 373.546 331.455 370.6C325.931 362.537 316.17 332.883 313.755 325.457C313.511 324.656 313.332 324.113 313.262 323.902C313.239 323.809 313.22 323.762 313.22 323.762C313.22 323.762 289.981 338.404 277.641 335.665C259.41 331.656 249.066 313.034 249.23 304.264C249.395 295.494 291.386 216.14 294.989 209.374C305.206 190.232 317.09 183.279 336.416 180.521C336.604 180.497 336.82 180.45 337.008 180.427C337.435 180.38 337.863 180.31 338.29 180.263C338.478 180.24 338.694 180.216 338.906 180.193C350.64 178.755 364.996 178.662 383.194 178.259C385.914 178.189 391.335 178.095 397.93 178.212C398.475 178.212 399.015 178.236 399.583 178.236C416.631 178.563 440.508 180.31 447.85 187.404C453.285 192.662 469.652 220.738 485.398 248.861C485.971 249.877 486.544 250.889 487.089 251.9C501.097 276.961 507.184 300.368 510.012 308.595C513.648 319.159 518.223 341.246 511.393 347.492L511.388 347.502Z" fill="#FFA450"></path><path d="M430.957 243.774C437.315 267.617 452.848 304.999 468.107 323.437" stroke="black" stroke-opacity="0.15" stroke-width="1.87495" stroke-linecap="round"></path><path d="M404.369 350.483C403.077 349.336 400.55 347.88 399.296 347.833C392.884 347.59 384.339 344.223 377.091 343.755C375.437 343.647 372.581 343.83 370.655 343.923C366.949 344.26 344.974 348.695 341.817 350.226C341.061 350.717 340.657 351.537 340.859 352.572C341.094 353.775 342.282 354.178 343.532 354.271C343.87 354.295 358.08 354.421 367.686 355.096C370.204 355.274 380.125 362.377 383.996 362.794C393.306 362.794 391.968 362.803 400.395 362.784C400.794 362.784 413.337 362.784 413.337 362.784C413.337 362.784 406.384 352.267 404.369 350.479V350.483Z" fill="#FAC1AA"></path><path d="M411.298 238.571C411.03 238.169 410.716 237.771 410.382 237.391C409.668 236.544 408.818 235.743 407.902 235.031C403.881 231.918 398.234 230.204 393.499 231.094C392.452 231.295 390.441 232.386 387.938 233.964C386.397 234.943 384.654 236.123 382.845 237.391C376.748 241.667 369.918 246.986 367.038 249.453C366.973 249.519 366.883 249.589 366.813 249.655C366.771 249.678 366.681 250.034 366.569 250.591C366.503 250.971 366.414 251.458 366.324 252.015C366.324 252.015 366.301 252.015 366.324 252.038C365.831 255.288 365.385 261.075 367.217 263.969C369.115 266.952 373.244 269.668 374.249 269.443H374.272C374.517 269.377 374.766 269.307 375.01 269.218C375.301 269.153 375.592 269.064 375.879 268.975C381.817 267.237 390.305 264.522 395.237 261.361C395.261 261.361 395.28 261.338 395.303 261.314C395.392 261.717 395.66 262.002 396.041 262.251C397.426 263.117 400.419 263.028 401.668 262.831C405.351 262.185 414.352 258.959 415.423 254.529C415.869 248.096 413.525 242.355 411.294 238.571H411.298Z" fill="#FAC1AA"></path><path d="M350.599 257.96L366.303 249.274C366.303 249.274 367.237 254.462 369.581 260.962C371.629 266.632 375.763 269.811 375.763 269.994C375.754 270.387 357.114 281.761 357.114 281.761C357.114 281.761 351.717 269.128 350.599 257.955V257.96Z" fill="#FFA450"></path><path d="M314.718 243.159C313.659 246.338 311.539 255.399 311.539 266.208" stroke="black" stroke-opacity="0.15" stroke-width="1.87495" stroke-linecap="round"></path><path d="M401.348 257.469C402.143 256.939 404.21 256.038 406.117 256.674" stroke="black" stroke-opacity="0.15" stroke-width="1.87495" stroke-linecap="round"></path><path d="M413.27 341.714C412.475 340.919 412.158 337.422 414.065 336.151C416.449 334.561 449.035 321.845 468.109 325.819" stroke="black" stroke-opacity="0.15" stroke-width="1.87495" stroke-linecap="round"></path><path d="M412.476 362.374C409.562 357.605 402.939 347.909 399.759 347.273C396.58 346.638 407.972 344.359 414.065 343.3C417.244 346.214 423.92 354.108 425.192 362.374" stroke="black" stroke-opacity="0.15" stroke-width="1.87495" stroke-linecap="round"></path><path d="M366.378 250.31L348.893 257.462C349.688 263.026 352.549 274.947 357.635 278.126L374.326 269.384" stroke="black" stroke-opacity="0.15" stroke-width="1.87495" stroke-linecap="round"></path><path d="M357.428 281.724C358.223 283.313 358.223 285.698 357.428 286.492C353.76 290.161 346.983 300.471 336.651 301.266" stroke="black" stroke-opacity="0.15" stroke-width="1.87495" stroke-linecap="round"></path><path d="M347.341 256.182C346.908 254.458 345.355 252.649 344.235 252.564C339.062 252.17 325.849 256.182 319.491 263.027" stroke="black" stroke-opacity="0.15" stroke-width="1.87495" stroke-linecap="round"></path><path d="M395.787 261.437C398.436 259.848 403.735 255.874 403.735 252.695" stroke="black" stroke-opacity="0.15" stroke-width="1.87495" stroke-linecap="round"></path><g clip-path="url(#clip1_31279_7859)"><path d="M326.283 88.8447C326.283 88.8447 324.631 79.9472 332.481 71.6729C340.33 63.4088 357.455 59.3329 375.019 62.1727C392.583 65.0228 400.126 77.1278 403.806 86.6688C407.476 96.2099 404.214 114.965 404.214 114.965L326.283 88.8447Z" fill="#292A38"></path><path d="M347.613 151.002L348.917 159.623L350.783 171.943L350.966 173.25V173.281L353.617 190.851L353.994 193.262C353.994 193.262 359.611 206.113 372.19 205.847C384.728 205.551 399.58 188.144 399.58 188.144L397.123 172.372V172.341L395.972 164.945L390.202 127.885L347.602 150.991L347.613 151.002Z" fill="#FAC1AA"></path><path d="M349.493 166.94L351.573 180.577V180.598C351.573 180.598 358.291 181.711 371.124 174.162C383.958 166.613 388.046 144.558 388.046 144.558C388.046 144.558 357.027 161.342 354.182 163.681C352.878 164.754 351.124 165.867 349.493 166.94V166.94Z" fill="#181923" fill-opacity="0.15"></path><path d="M326.283 105.739C326.283 106.382 326.314 107.026 326.334 107.69V107.955C326.334 108.865 326.365 109.774 326.385 110.744C326.416 111.439 326.436 112.113 326.467 112.808V112.91C326.997 130.286 328.76 152.116 333.766 160.656C342.634 175.703 357.15 174.477 370.962 168.287C384.754 162.127 395.305 147.315 395.07 121.664C394.856 95.9832 371.207 81.6512 354.214 78.4436C337.191 75.2565 326.283 88.8325 326.283 88.8325C326.283 88.8325 326.1 95.9014 326.283 105.728V105.739Z" fill="#FAC1AA"></path><path d="M326.281 88.8462C326.281 88.8462 366.026 86.8645 370.705 88.2231C375.384 89.5817 377.729 96.7426 379.696 105.374C381.664 114.017 380.44 112.372 384.13 115.968C387.821 119.563 392.765 143.12 392.765 143.12C392.765 143.12 398.422 133.875 398.422 131.658C398.422 129.442 396.944 113.026 394.232 102.535C391.521 92.0436 385.986 84.8827 379.085 82.1757C372.183 79.4584 349.034 71.9298 348.3 71.6847C347.566 71.4395 334.63 76.4858 333.274 77.9772C331.918 79.4584 326.291 88.8462 326.291 88.8462H326.281Z" fill="#292A38"></path><path d="M397.781 133.708C397.781 133.708 405.192 121.94 404.57 107.424C403.958 92.9082 402.225 84.3989 385.232 76.3697C368.24 68.3508 348.291 71.6809 348.291 71.6809C348.291 71.6809 356.415 79.2095 358.015 79.2095C359.616 79.2095 375.171 87.3102 376.446 88.0764C377.72 88.8425 389.045 107.026 389.045 107.026L397.771 133.708H397.781Z" fill="#292A38"></path><path d="M378.099 121.697C378.099 121.697 378.293 109.367 387.865 110.767C397.437 112.166 394.725 130.309 392.636 135.61C390.546 140.912 385.123 144.661 385.123 144.661L378.099 121.697V121.697Z" fill="#FAC1AA"></path><path d="M384.318 120.448C388.558 123.094 387.814 130.398 385.357 133.942C384.532 135.138 382.554 134.004 383.39 132.788C384.542 131.123 385.133 129.335 385.021 127.302C384.929 125.74 384.613 123.319 383.166 122.42C381.922 121.643 383.064 119.672 384.318 120.448Z" fill="black" fill-opacity="0.18"></path><path d="M355.405 106.986C355.489 106.845 355.583 106.714 355.686 106.601C356.446 105.774 357.609 105.483 358.716 105.285C362.289 104.646 366.097 104.646 369.399 106.14C370.158 106.479 374.107 108.885 372.147 109.844C371.837 109.994 371.481 109.994 371.134 109.994C366.566 109.966 361.999 109.938 357.431 109.909C356.849 109.909 356.23 109.891 355.743 109.562C354.945 109.026 354.917 107.832 355.405 106.986V106.986Z" fill="#292A38"></path><path d="M344.01 106.987C343.926 106.846 343.832 106.714 343.729 106.601C342.969 105.774 341.806 105.483 340.699 105.285C337.126 104.646 333.318 104.646 330.016 106.141C329.257 106.479 325.308 108.885 327.268 109.844C327.578 109.994 327.934 109.994 328.281 109.994C332.849 109.966 337.417 109.938 341.984 109.91C342.566 109.91 343.185 109.891 343.673 109.562C344.47 109.026 344.498 107.833 344.01 106.987V106.987Z" fill="#292A38"></path><path d="M359.794 122.13C358.469 122.066 357.471 120.442 357.564 118.503C357.657 116.564 358.807 115.044 360.131 115.108C361.456 115.172 362.454 116.796 362.361 118.735C362.267 120.674 361.118 122.194 359.794 122.13Z" fill="#13182B"></path><path d="M334.372 118.916C334.278 120.853 335.376 122.488 336.811 122.554C338.246 122.62 339.493 121.106 339.587 119.17C339.681 117.234 338.583 115.599 337.148 115.533C335.713 115.467 334.466 116.98 334.372 118.916Z" fill="#13182B"></path><path d="M348.295 133.155C349.336 133.155 350.368 133.004 351.24 132.666C351.634 132.516 351.831 132.074 351.681 131.679C351.531 131.284 351.09 131.087 350.696 131.237C348.23 132.177 344.788 131.237 344.262 130.42C343.671 129.48 344.478 127.384 345.341 125.166C346.204 122.947 347.179 120.447 347.245 117.994C347.301 115.663 346.504 112.665 346.476 112.533C346.363 112.129 345.951 111.885 345.538 111.998C345.135 112.11 344.891 112.524 345.003 112.937C345.003 112.966 345.772 115.851 345.725 117.966C345.669 120.146 344.75 122.524 343.934 124.62C342.884 127.318 341.974 129.649 342.987 131.247C343.737 132.431 346.035 133.164 348.305 133.164L348.295 133.155Z" fill="black" fill-opacity="0.35"></path><path fill-rule="evenodd" clip-rule="evenodd" d="M360.701 143.121C360.366 142.877 359.897 142.951 359.653 143.286C358.703 144.594 356.879 146.322 354.548 147.22C352.254 148.103 349.451 148.195 346.406 146.24C346.057 146.016 345.594 146.117 345.37 146.465C345.146 146.814 345.247 147.278 345.596 147.501C349.081 149.739 352.391 149.657 355.087 148.619C357.744 147.596 359.785 145.656 360.866 144.168C361.11 143.833 361.035 143.364 360.701 143.121Z" fill="black" fill-opacity="0.35"></path><path d="M348.244 117.463C347.059 117.167 344.333 116.811 342.91 117.759" stroke="black" stroke-width="0.699013" stroke-linecap="round" stroke-linejoin="round"></path><circle cx="11.5558" cy="11.5558" r="11.2063" transform="matrix(-1 0 0 1 371.061 106.795)" stroke="black" stroke-width="0.699013"></circle><circle cx="11.5558" cy="11.5558" r="11.2063" transform="matrix(-1 0 0 1 343.206 106.205)" stroke="black" stroke-width="0.699013"></circle><path d="M386.763 109.464L369.874 113.612" stroke="black" stroke-width="0.699013" stroke-linecap="round" stroke-linejoin="round"></path></g><path d="M281.288 142.465C276.134 146.405 269.892 149.064 262.984 149.902C242.347 152.405 223.588 137.703 221.085 117.065C220.512 112.338 220.631 108.556 221.937 103.352C224.138 94.5826 228.807 88.2837 234.214 83.7245C239.622 79.1652 246.374 76.0765 253.92 75.1613C274.557 72.6583 293.316 87.3598 295.819 107.999C296.852 116.518 294.955 124.718 290.916 131.586" stroke="#FF6B18" stroke-width="1.1059" stroke-miterlimit="10"></path><path d="M290.848 131.353L303.547 146.361L281.108 142.51" stroke="#FF6B18" stroke-width="1.1059" stroke-miterlimit="10"></path><circle cx="238.52" cy="112.449" r="4.2078" fill="#FF6B18" stroke="#FF6B18" stroke-width="1.1059"></circle><circle cx="258.176" cy="112.449" r="4.2078" fill="#FF6B18" stroke="#FF6B18" stroke-width="1.1059"></circle><circle cx="277.832" cy="112.449" r="4.2078" fill="#FF6B18" stroke="#FF6B18" stroke-width="1.1059"></circle><path d="M167.163 260.4L189.394 362.378H345.943L324.512 262.986C323.347 260.253 320.776 260.225 320.776 260.225H318.584L168.536 258.929C167.667 258.924 167.005 259.636 167.169 260.406L167.163 260.4Z" fill="#ECECE8"></path><path d="M166.994 259.685L167.177 260.477L317.237 261.829H319.43C319.43 261.829 322 261.863 323.165 264.59L344.596 362.375H386.74C388.919 362.375 390.683 360.791 390.683 358.834C390.683 357.855 390.242 356.967 389.531 356.327C388.812 355.688 387.83 355.292 386.74 355.292H347.009L325.931 262.061C325.528 260.273 323.783 258.983 321.754 258.96L170.919 257.484C170.572 257.484 166.944 257.173 166.994 259.679V259.685Z" fill="#B6B4A6"></path><path d="M254.757 315.61C254.757 318.749 251.126 321.3 246.639 321.3C242.16 321.3 238.521 318.755 238.521 315.61C238.521 312.465 242.153 309.919 246.639 309.919C251.118 309.919 254.757 312.465 254.757 315.61Z" fill="white"></path></g></g><defs><clipPath id="clip0_31279_7859"><rect width="557" height="361" fill="white"></rect></clipPath><clipPath id="clip1_31279_7859"><rect width="169.484" height="185.485" fill="white" transform="matrix(-1 0 0 1 454.453 26.2051)"></rect></clipPath></defs></svg>