<?xml version="1.0" encoding="UTF-8"?>
<!DOCTYPE svg PUBLIC "-//W3C//DTD SVG 1.1//EN" "http://www.w3.org/Graphics/SVG/1.1/DTD/svg11.dtd">
<svg xmlns="http://www.w3.org/2000/svg" version="1.1" width="119px" height="85px" style="shape-rendering:geometricPrecision; text-rendering:geometricPrecision; image-rendering:optimizeQuality; fill-rule:evenodd; clip-rule:evenodd" xmlns:xlink="http://www.w3.org/1999/xlink">
<g><path style="opacity:0.285" fill="#325c2b" d="M 19.5,14.5 C 20.2891,14.7828 20.9558,15.2828 21.5,16C 19.3996,24.4269 21.5663,31.5936 28,37.5C 28.6877,38.3317 28.521,38.9984 27.5,39.5C 16.4229,33.7115 13.7562,25.3782 19.5,14.5 Z"/></g>
<g><path style="opacity:0.908" fill="#335a2c" d="M 51.5,35.5 C 55.4589,34.5778 57.7922,36.0778 58.5,40C 56.78,43.4649 54.1133,44.2982 50.5,42.5C 49.073,39.8845 49.4063,37.5511 51.5,35.5 Z"/></g>
<g><path style="opacity:0.907" fill="#335c2c" d="M 59.5,35.5 C 61.8333,35.5 64.1667,35.5 66.5,35.5C 66.1796,38.8984 66.513,42.2317 67.5,45.5C 72.0589,43.8889 76.2256,44.5556 80,47.5C 85.2396,66.0948 78.4063,73.0948 59.5,68.5C 59.5,57.5 59.5,46.5 59.5,35.5 Z M 68.5,48.5 C 71.368,48.085 73.5347,49.085 75,51.5C 75.9777,55.9002 75.4777,60.0669 73.5,64C 67.6575,65.1706 65.3242,62.6706 66.5,56.5C 66.6205,53.5589 67.2872,50.8922 68.5,48.5 Z"/></g>
<g><path style="opacity:0.275" fill="#325d2c" d="M 36.5,6.5 C 46.9026,14.8006 48.736,24.8006 42,36.5C 35.9588,42.7089 29.7921,48.7089 23.5,54.5C 25.5,55.1667 27.5,55.8333 29.5,56.5C 26.5,57.1667 23.5,57.8333 20.5,58.5C 19.9598,59.7481 19.2931,60.9148 18.5,62C 32.8547,63.3077 32.5213,64.141 17.5,64.5C 16.7588,68.7947 16.5921,73.128 17,77.5C 12.3788,69.2313 12.3788,60.898 17,52.5C 22.6771,45.6567 28.8438,39.3233 35.5,33.5C 33.1667,32.8333 30.8333,32.1667 28.5,31.5C 31.8333,30.8333 35.1667,30.1667 38.5,29.5C 39.2458,28.2638 39.5792,26.9305 39.5,25.5C 36.1016,25.8204 32.7683,25.487 29.5,24.5C 33.1073,23.5108 36.774,23.1774 40.5,23.5C 40.5,22.1667 40.5,20.8333 40.5,19.5C 24.5137,18.9959 24.5137,18.1626 40.5,17C 38.7396,13.6488 37.4063,10.1488 36.5,6.5 Z"/></g>
<g><path style="opacity:0.897" fill="#325c2d" d="M 50.5,44.5 C 52.8333,44.5 55.1667,44.5 57.5,44.5C 57.5,52.5 57.5,60.5 57.5,68.5C 55.1667,68.5 52.8333,68.5 50.5,68.5C 50.5,60.5 50.5,52.5 50.5,44.5 Z"/></g>
<g><path style="opacity:0.889" fill="#325c2c" d="M 87.5,44.5 C 92.2142,44.3531 96.8809,44.6864 101.5,45.5C 102.052,47.3307 102.052,48.9974 101.5,50.5C 97.4001,48.0246 93.4001,48.0246 89.5,50.5C 93.6423,52.39 97.809,54.39 102,56.5C 104.429,62.5457 102.596,66.7123 96.5,69C 92.141,69.5343 87.8076,69.3676 83.5,68.5C 83.5792,67.0695 83.2458,65.7362 82.5,64.5C 83,64.1667 83.5,63.8333 84,63.5C 87.4815,65.5917 90.9815,65.7584 94.5,64C 95.7472,62.5064 95.7472,61.0064 94.5,59.5C 91.5499,58.5123 88.5499,57.679 85.5,57C 82.6508,54.4406 81.8175,51.2739 83,47.5C 84.4087,46.2189 85.9087,45.2189 87.5,44.5 Z"/></g>
<g><path style="opacity:0.851" fill="#325b2c" d="M 34.5,45.5 C 36.679,45.84 38.5123,46.84 40,48.5C 43.6939,54.5545 46.8606,60.8878 49.5,67.5C 46.9135,68.48 44.2469,68.8134 41.5,68.5C 40.9659,60.2348 38.6325,52.5681 34.5,45.5 Z"/></g>
<g><path style="opacity:0.395" fill="#F8F0E5" d="M 72.5,71.5 C 74.9509,73.478 77.6176,73.8114 80.5,72.5C 81.3081,72.8076 81.9747,73.3076 82.5,74C 81.3595,74.7412 81.3595,75.5745 82.5,76.5C 78.8352,77.2329 74.8352,77.5662 70.5,77.5C 70.67,76.1779 70.3366,75.0113 69.5,74C 70.2529,72.513 71.0862,72.3463 72,73.5C 72.4643,72.9056 72.631,72.2389 72.5,71.5 Z"/></g>
<g><path style="opacity:0.459" fill="#325d2c" d="M 99.5,71.5 C 100.5,71.5 101.5,71.5 102.5,71.5C 102.5,73.5 102.5,75.5 102.5,77.5C 99.5525,77.7771 96.7191,77.4438 94,76.5C 93.1282,72.8651 94.2949,71.8651 97.5,73.5C 98.7133,73.2528 99.38,72.5862 99.5,71.5 Z"/></g>
<g><path style="opacity:0.507" fill="#325c2c" d="M 49.5,71.5 C 53.0324,71.3789 55.8658,72.7122 58,75.5C 58.9356,73.2915 60.6023,71.9582 63,71.5C 64.4007,73.1922 66.2341,73.8588 68.5,73.5C 68.5,74.8333 68.5,76.1667 68.5,77.5C 67.1667,77.5 65.8333,77.5 64.5,77.5C 64.1667,73.5 63.8333,73.5 63.5,77.5C 60.319,77.2577 57.319,77.2577 54.5,77.5C 53.3756,72.2792 52.5423,72.2792 52,77.5C 51.4153,75.3386 50.5819,73.3386 49.5,71.5 Z"/></g>
<g><path style="opacity:0.393" fill="#335d2b" d="M 83.5,73.5 C 86.5,73.5 89.5,73.5 92.5,73.5C 92.5,74.8333 92.5,76.1667 92.5,77.5C 89.863,76.7678 87.363,76.7678 85,77.5C 83.8118,76.4366 83.3118,75.1033 83.5,73.5 Z"/></g>
</svg>
