<?xml version="1.0" standalone="no"?>
<!DOCTYPE svg PUBLIC "-//W3C//DTD SVG 20010904//EN"
 "http://www.w3.org/TR/2001/REC-SVG-20010904/DTD/svg10.dtd">
<svg version="1.0" xmlns="http://www.w3.org/2000/svg"
 width="1024.000000pt" height="644.000000pt" viewBox="0 0 1024.000000 644.000000"
 preserveAspectRatio="xMidYMid meet">

<g transform="translate(0.000000,644.000000) scale(0.100000,-0.100000)"
fill="#000000" stroke="none">
<path d="M0 3308 l0 -3133 68 68 c46 48 92 82 147 111 l80 42 5 110 c4 94 8
114 28 138 19 25 21 37 16 80 -3 28 -12 73 -20 100 -27 95 -13 207 34 276 9
14 19 36 22 50 4 20 12 26 40 28 21 2 59 21 98 49 91 64 161 82 255 63 121
-24 233 -112 292 -229 25 -51 39 -27 25 46 -7 42 -7 69 0 87 5 15 10 60 10 99
0 84 19 188 55 303 32 103 87 180 186 260 89 72 144 105 233 138 115 44 317
147 356 182 21 19 41 34 46 34 13 0 139 130 152 156 6 12 18 53 27 92 9 39 23
76 31 83 33 28 15 69 -70 154 -46 46 -67 76 -85 125 -14 36 -49 117 -78 182
-72 156 -80 196 -64 339 6 63 10 123 8 134 -6 33 -41 29 -88 -10 -38 -33 -47
-36 -82 -31 -22 4 -52 13 -68 21 -38 20 -99 74 -99 89 0 6 -14 24 -30 40 -23
21 -28 31 -20 41 8 9 8 15 0 20 -22 14 -8 22 47 28 43 5 62 2 74 -8 20 -19 44
-19 102 1 53 18 77 14 77 -15 0 -19 25 -31 69 -31 12 0 54 16 92 36 38 20 72
35 75 32 2 -3 0 -17 -6 -32 -25 -66 -2 -87 40 -36 14 17 29 30 34 30 5 0 14 7
20 15 17 23 109 55 127 44 8 -5 23 -9 35 -9 35 0 209 -157 260 -235 18 -27 44
-65 58 -84 14 -19 26 -44 26 -55 0 -12 4 -27 9 -35 25 -39 76 61 80 153 1 33
6 67 12 77 14 26 10 81 -6 103 -17 22 -19 64 -6 85 8 12 12 12 25 2 9 -8 26
-10 45 -6 29 6 41 26 41 73 0 12 4 22 9 22 16 0 23 -33 28 -125 5 -74 2 -102
-16 -160 -17 -54 -21 -83 -16 -124 9 -71 -12 -211 -35 -231 -33 -30 -48 -67
-59 -145 -13 -91 -24 -125 -69 -212 -38 -74 -40 -95 -9 -125 13 -13 29 -41 35
-64 20 -71 175 -287 215 -300 10 -3 26 1 35 9 28 24 55 27 106 12 31 -9 91
-15 162 -15 205 0 337 -47 443 -158 61 -64 91 -123 126 -244 38 -131 38 -141
9 -221 -17 -48 -24 -84 -21 -109 4 -27 0 -41 -13 -53 -20 -18 -84 -134 -78
-140 2 -3 23 29 47 70 23 41 46 75 50 75 5 0 14 -13 20 -28 13 -31 129 -140
171 -162 31 -15 23 -8 -68 70 -72 60 -115 133 -116 196 -1 29 11 65 42 127 46
94 69 115 101 95 24 -15 22 -27 -9 -91 -25 -48 -40 -60 -40 -30 0 9 -2 14 -5
11 -10 -9 6 -58 16 -52 19 11 79 143 72 160 -3 9 -2 19 4 23 50 34 373 789
443 1036 12 44 26 93 31 109 5 16 9 48 9 71 0 56 18 103 78 211 65 115 94 205
126 385 33 184 35 372 7 540 -10 63 -26 164 -35 224 -9 61 -22 156 -31 213 -8
56 -15 139 -15 182 0 47 -4 80 -10 80 -21 0 -11 166 15 256 48 164 74 383 81
679 7 311 0 285 92 339 42 24 174 91 292 147 118 56 217 103 219 105 2 2
-1184 4 -2637 4 l-2642 0 0 -3132z m2270 1120 c33 -21 34 -23 12 -26 -13 -2
-32 4 -41 12 -10 9 -24 16 -32 16 -19 -1 -52 -27 -46 -37 2 -4 -18 -26 -46
-48 -63 -49 -116 -101 -142 -138 -11 -15 -30 -34 -42 -42 -22 -15 -22 -14 -13
11 13 32 12 44 -1 22 -9 -16 -39 -15 -39 2 0 5 19 32 43 61 84 103 81 100 60
96 -19 -3 -98 -61 -140 -103 -34 -35 -121 -171 -128 -202 -3 -15 -18 -42 -34
-61 l-27 -33 -13 42 c-10 34 -15 39 -27 29 -20 -17 -19 14 5 81 10 29 18 65
16 79 -2 15 6 39 19 56 12 17 28 43 36 58 23 45 56 72 90 75 17 1 49 11 70 22
60 30 111 25 78 -8 -21 -21 17 -24 53 -4 19 10 57 22 86 26 29 3 67 13 85 21
47 20 78 18 118 -7z m100 -103 c0 -8 -4 -15 -9 -15 -11 0 -23 29 -16 40 3 5
-4 11 -15 15 -11 3 -20 14 -20 23 1 13 9 8 30 -16 17 -18 30 -39 30 -47z m223
-116 c97 -49 120 -91 32 -58 -41 15 -73 20 -119 18 -64 -4 -96 8 -96 37 0 43
100 45 183 3z m-773 -74 c0 -4 -7 -20 -16 -38 -23 -44 -64 -81 -77 -68 -6 6 5
27 34 60 40 46 59 61 59 46z m0 -84 c0 -11 -29 -35 -35 -29 -10 9 7 38 21 38
8 0 14 -4 14 -9z m-126 -284 c9 -15 5 -23 -22 -48 -37 -33 -57 -37 -70 -11
-12 22 -5 41 22 64 25 22 55 19 70 -5z m2881 -372 c-10 -25 -20 -44 -22 -42
-2 2 5 25 14 50 9 25 19 44 21 42 2 -2 -4 -24 -13 -50z"/>
<path d="M5970 6425 c-7 -8 -10 -15 -6 -15 4 0 -1 -11 -10 -25 -9 -14 -24 -25
-33 -25 -9 0 -43 -16 -76 -35 -33 -19 -79 -44 -102 -54 -39 -18 -82 -65 -71
-77 3 -2 12 6 21 20 9 13 33 30 54 36 21 7 47 20 58 30 18 15 82 50 92 50 2 0
1 -4 -2 -10 -10 -16 11 -12 25 5 10 12 29 14 94 10 44 -3 149 -7 232 -9 l150
-3 179 -93 c164 -84 231 -123 245 -141 3 -3 27 -16 53 -27 39 -17 49 -19 53
-7 6 15 44 17 44 2 0 -5 -6 -7 -14 -4 -17 7 -39 -16 -28 -29 4 -4 0 -3 -10 4
-12 10 -18 10 -24 1 -4 -8 -3 -9 4 -5 18 11 5 -60 -19 -102 -11 -20 -17 -28
-14 -17 4 11 9 38 11 60 4 40 4 40 -5 6 -5 -18 -17 -41 -26 -50 -17 -15 -17
-15 -12 2 6 16 5 16 -18 1 -22 -15 -26 -15 -40 0 -9 9 -23 16 -31 16 -8 0 -14
3 -14 8 0 8 -49 32 -67 32 -7 0 -13 5 -13 10 0 6 -9 10 -20 10 -11 0 -20 5
-20 10 0 6 -9 10 -21 10 -11 0 -29 5 -40 10 -20 11 -24 4 -13 -23 3 -9 13 -13
25 -10 10 3 19 1 19 -5 0 -6 10 -14 21 -17 14 -5 17 -10 10 -14 -10 -7 91 -66
113 -66 6 0 11 -6 11 -14 0 -8 7 -16 15 -18 12 -4 12 -3 1 5 -9 7 -10 12 -2
16 10 7 14 -4 9 -21 -3 -8 -9 -10 -43 -12 -16 -1 -17 -3 -5 -11 32 -20 -3 -21
-62 -1 -35 12 -85 30 -111 39 -40 13 -50 14 -57 3 -4 -8 -7 -20 -6 -27 2 -15
76 -68 76 -54 0 5 -4 12 -10 15 -5 3 -10 13 -10 21 0 11 4 12 18 5 9 -5 29 -7
43 -4 19 3 34 -3 54 -21 15 -14 31 -23 36 -20 5 3 9 0 9 -5 0 -6 -6 -11 -14
-11 -7 0 -19 -7 -26 -15 -21 -26 46 3 116 50 34 23 59 35 55 26 -4 -9 -20 -40
-34 -70 -15 -30 -25 -57 -22 -59 7 -7 123 178 136 215 6 18 15 33 20 33 6 0 7
5 3 12 -4 7 -3 8 4 4 8 -5 8 -15 2 -32 -14 -37 -12 -43 6 -14 15 25 15 25 9
-12 -3 -21 -1 -39 5 -43 6 -4 18 -24 26 -46 9 -21 21 -36 26 -33 5 4 20 2 31
-4 12 -6 47 -13 79 -17 35 -4 58 -12 62 -21 3 -8 14 -14 25 -14 19 0 31 -18
31 -48 0 -23 -53 -71 -90 -82 -28 -8 -29 -7 -20 11 15 27 -2 24 -30 -6 -22
-23 -47 -35 -36 -17 3 5 -8 6 -25 4 -17 -3 -29 0 -29 7 0 16 -32 14 -69 -5
-18 -9 -56 -20 -84 -24 l-52 -7 73 -8 c69 -7 72 -9 72 -34 0 -15 4 -31 9 -36
5 -6 24 -53 41 -105 17 -52 35 -99 39 -105 5 -5 14 -35 21 -65 7 -30 16 -62
21 -70 5 -8 13 -25 19 -37 5 -13 19 -42 30 -65 11 -23 20 -49 20 -59 0 -9 7
-22 15 -29 8 -7 15 -18 15 -25 0 -6 9 -20 20 -30 19 -17 21 -17 38 -2 10 10
26 17 35 17 12 0 17 9 17 29 0 44 14 46 66 10 32 -22 42 -34 33 -39 -9 -6 2
-18 36 -39 26 -16 54 -39 62 -51 8 -11 21 -20 29 -20 8 0 14 -5 14 -11 0 -6 7
-17 15 -25 10 -10 13 -24 9 -41 -6 -24 -5 -25 17 -19 13 3 44 9 69 12 42 6 47
4 57 -20 8 -16 9 -28 3 -31 -6 -4 -10 -12 -10 -18 0 -7 4 -6 10 3 5 8 12 11
16 8 3 -4 -14 -31 -38 -60 -25 -29 -55 -71 -68 -93 l-23 -40 39 45 c21 25 65
72 96 105 32 33 58 68 58 78 0 28 37 21 42 -8 4 -18 0 -26 -13 -30 -11 -4 -23
-4 -28 -1 -5 4 -12 -3 -16 -14 -3 -11 -11 -20 -16 -20 -14 0 -11 -17 5 -23 9
-4 13 -1 11 6 -3 7 -1 18 4 25 10 17 57 11 53 -6 -1 -6 2 -13 8 -13 5 -1 16
-2 23 -3 6 0 14 -14 15 -31 2 -16 8 -35 14 -42 14 -17 -4 -44 -49 -78 -45 -34
-129 -121 -145 -150 -6 -12 4 -6 25 14 35 33 37 33 61 17 30 -19 40 -21 30 -4
-5 7 -3 8 6 3 10 -6 7 -12 -11 -26 -13 -10 -29 -19 -35 -19 -6 0 -17 -7 -24
-15 -7 -9 -19 -14 -26 -11 -8 3 -11 0 -8 -8 3 -7 -4 -21 -16 -31 -24 -22 -26
-40 -4 -31 12 4 15 2 10 -9 -8 -22 2 -18 15 6 8 17 8 20 -1 14 -8 -5 -11 -3
-8 6 3 8 12 14 21 14 9 0 24 9 34 20 18 19 18 19 -5 0 -20 -16 -22 -17 -16 -2
3 9 10 17 15 17 5 0 11 0 14 0 3 0 14 9 25 20 41 41 35 18 -8 -27 -56 -61
-144 -178 -166 -223 l-18 -35 25 25 c13 14 24 27 23 30 -1 5 61 66 99 99 9 7
14 19 11 26 -6 16 90 115 111 115 8 0 12 4 8 10 -7 11 43 46 52 36 4 -3 16 0
27 7 12 8 41 17 66 20 25 3 38 3 30 0 -8 -3 -54 -25 -102 -49 -49 -24 -88 -42
-88 -40 0 2 -23 -17 -50 -42 -35 -32 -47 -49 -40 -56 7 -7 17 -3 33 15 12 14
18 18 13 9 -5 -8 3 -3 17 13 14 15 30 27 34 27 5 0 14 9 21 21 8 12 19 18 28
15 9 -3 12 -1 9 4 -3 6 0 10 8 10 8 0 34 8 58 19 82 35 93 35 105 -4 8 -25 8
-35 0 -36 -6 -1 9 -7 34 -14 l45 -14 -55 4 c-36 3 -47 2 -30 -3 24 -8 23 -9
-15 -22 -41 -13 -87 -40 -70 -40 6 0 25 4 44 10 23 6 39 6 50 -1 14 -9 14 -10
-2 -5 -11 4 -16 2 -11 -5 3 -6 17 -9 30 -6 37 7 29 -1 -28 -28 l-53 -24 55 4
c38 3 49 2 35 -5 l-20 -9 20 -1 c15 -1 16 -3 5 -7 -8 -3 -17 -9 -20 -12 -3 -3
-21 -14 -40 -23 l-35 -18 40 6 c22 3 54 7 70 10 23 3 26 2 10 -5 l-20 -8 20
-5 c11 -3 0 -5 -25 -4 -37 1 -45 -2 -45 -17 0 -9 -18 -29 -40 -42 l-40 -25 39
6 c28 5 37 4 32 -5 -4 -6 -2 -11 3 -11 6 0 11 -7 11 -16 0 -8 -4 -13 -9 -9
-14 8 -80 -27 -86 -47 -6 -17 8 -86 25 -123 5 -11 21 -49 35 -84 15 -36 54
-118 87 -183 46 -89 72 -128 103 -154 23 -19 46 -34 52 -34 14 0 53 -44 53
-60 0 -7 8 -22 18 -33 9 -11 12 -17 5 -14 -6 4 -15 2 -19 -4 -4 -8 -3 -9 4 -5
8 5 11 -3 8 -23 -2 -17 1 -31 6 -31 6 0 -28 -41 -76 -91 -51 -53 -86 -98 -86
-111 0 -11 -11 -29 -24 -39 -14 -11 -41 -42 -61 -70 -21 -27 -39 -48 -41 -46
-2 1 -17 55 -33 117 -51 199 -205 611 -288 775 -14 27 -52 79 -85 115 -33 36
-64 78 -70 93 -6 17 -16 26 -24 23 -7 -3 -46 17 -87 44 -73 49 -182 160 -258
261 -22 30 -46 59 -53 64 -21 16 -125 190 -159 265 -16 36 -41 92 -57 126 -16
33 -34 80 -40 105 -7 24 -27 91 -46 149 -18 58 -47 165 -64 239 -17 74 -37
140 -45 145 -7 6 -30 47 -51 91 -21 44 -43 85 -50 92 -6 7 -26 45 -43 86 -22
55 -29 83 -24 109 4 30 1 41 -24 67 -17 17 -35 31 -42 31 -15 0 -120 53 -199
101 -35 22 -75 39 -87 39 -18 0 -35 15 -64 57 -23 31 -41 50 -41 41 0 -8 16
-33 36 -56 l36 -43 -43 7 c-40 5 -107 23 -225 59 -37 11 -42 11 -52 -6 -10
-16 -24 -19 -82 -19 -67 0 -72 2 -103 34 -50 51 -72 147 -47 210 5 14 6 26 1
26 -4 0 -12 -14 -17 -32 -7 -23 -21 -37 -53 -54 -25 -12 -51 -19 -59 -16 -9 3
-13 1 -9 -5 4 -6 -3 -8 -20 -5 l-26 5 24 13 c19 11 21 13 6 14 -32 0 -78 30
-89 58 -7 15 -15 59 -18 97 -6 65 -7 63 -8 -42 -1 -72 2 -113 8 -113 7 0 7 -6
1 -19 -6 -10 -7 -22 -3 -26 4 -5 2 -5 -5 -2 -6 4 -13 2 -15 -4 -2 -6 -45 -19
-96 -29 -96 -19 -152 -47 -327 -160 -39 -25 -99 -58 -133 -74 -34 -16 -62 -33
-62 -38 0 -11 131 55 210 107 36 23 103 63 150 88 73 39 100 47 195 61 152 23
191 33 257 66 32 15 60 25 62 22 2 -4 4 -24 4 -46 1 -21 13 -59 27 -84 18 -33
24 -54 20 -74 -4 -15 -10 -28 -15 -28 -4 0 -11 -10 -14 -22 -14 -53 -60 -88
-160 -123 -53 -19 -122 -38 -154 -41 -31 -3 -66 -7 -77 -9 -11 -1 -37 6 -57
17 -49 24 -50 7 -2 -21 34 -20 35 -23 19 -35 -11 -8 -16 -19 -12 -30 4 -10 3
-15 -3 -11 -6 3 -14 -4 -19 -17 -11 -28 -77 -90 -122 -113 -49 -26 -129 -31
-168 -10 -44 22 -52 11 -10 -14 38 -23 91 -36 113 -28 11 5 16 -9 21 -59 9
-75 3 -112 -27 -173 -32 -66 -99 -128 -181 -167 -40 -20 -58 -32 -42 -29 57
12 120 49 171 102 49 50 82 73 53 36 -13 -17 -13 -17 13 0 36 22 44 22 73 -7
23 -23 24 -30 19 -93 -3 -37 -2 -65 2 -60 14 14 34 -54 34 -117 0 -73 -21
-113 -79 -151 -21 -15 -61 -30 -88 -35 l-48 -8 45 0 c25 -1 56 5 70 13 37 21
46 18 23 -7 -33 -37 -39 -55 -8 -25 15 15 32 27 37 27 5 0 7 4 4 9 -3 5 0 11
7 14 8 3 14 -1 14 -9 0 -8 -4 -14 -9 -14 -5 0 -6 -5 -2 -12 4 -6 3 -8 -4 -4
-16 10 -24 -10 -10 -26 7 -7 39 -90 70 -184 32 -94 67 -192 79 -218 22 -51 38
-56 21 -7 -8 21 -7 31 0 33 8 3 8 16 1 46 -18 69 2 38 52 -81 26 -61 56 -129
67 -150 19 -38 19 -38 -1 -27 -12 6 -18 16 -15 25 4 8 1 15 -4 15 -6 0 -18 7
-26 16 -11 10 -16 11 -16 3 0 -13 -34 27 -43 51 -4 12 -6 12 -6 -2 -1 -9 17
-69 40 -135 22 -65 44 -130 49 -144 8 -26 6 -27 -41 -33 -76 -10 -63 -18 88
-56 36 -9 48 -19 78 -66 19 -30 35 -57 35 -61 0 -3 6 -14 14 -22 24 -27 78
-133 86 -168 7 -30 6 -32 -8 -21 -11 9 -14 9 -9 1 11 -18 -61 -46 -99 -38 -17
3 -44 0 -60 -6 l-29 -12 25 -7 c23 -6 22 -7 -13 -14 -20 -4 -47 -17 -59 -29
-11 -12 -18 -17 -15 -11 4 8 -17 10 -71 6 -75 -4 -90 -7 -81 -16 8 -9 123 -9
188 -2 58 7 63 6 52 -8 -7 -8 -28 -21 -47 -28 -19 -7 -33 -17 -30 -23 2 -7 -9
-12 -28 -13 -110 -3 -112 -4 -86 -13 20 -7 18 -7 -10 -3 -19 4 -78 8 -130 10
l-95 4 44 -20 c24 -11 48 -20 55 -20 34 -1 106 -100 73 -100 -6 0 -1 -6 13
-13 21 -11 25 -20 25 -57 -1 -25 -7 -74 -14 -110 -28 -142 -62 -308 -76 -370
-75 -343 -124 -575 -165 -770 -108 -517 -103 -500 -149 -522 -20 -9 -47 -19
-60 -23 -25 -7 -180 13 -195 26 -4 4 -22 2 -39 -4 l-31 -10 45 -14 c24 -8 73
-22 109 -31 64 -17 65 -17 71 -57 6 -39 13 -31 10 10 -2 18 3 20 37 17 49 -5
112 30 112 61 0 43 15 47 39 11 21 -30 22 -37 11 -64 -7 -16 -16 -28 -20 -25
-4 2 -15 -24 -25 -58 -28 -101 -25 -94 -36 -75 -5 10 -16 15 -24 12 -8 -4 -12
-10 -9 -15 15 -25 -268 1 -331 31 -22 10 -69 26 -105 35 -54 14 -245 113 -236
123 2 1 20 -5 41 -13 20 -9 39 -14 41 -12 2 2 -25 16 -60 31 -35 15 -72 36
-82 47 -12 13 -20 16 -25 8 -4 -8 -14 -6 -31 5 -23 15 -26 15 -47 -3 -19 -16
-20 -22 -10 -45 10 -21 9 -29 -5 -44 -9 -10 -25 -59 -36 -108 -10 -49 -31
-122 -45 -161 -14 -40 -25 -83 -25 -95 0 -12 -4 -35 -9 -52 -5 -17 -15 -56
-22 -86 -6 -30 -18 -64 -25 -75 -7 -11 -16 -41 -19 -67 -4 -27 -11 -48 -16
-48 -5 0 -9 -9 -9 -21 0 -11 -9 -53 -19 -92 -27 -99 -46 -198 -44 -222 7 -50
14 -65 33 -65 17 0 20 -7 20 -40 0 -22 -4 -40 -10 -40 -5 0 -10 -9 -10 -20 0
-20 7 -20 490 -20 338 0 490 3 490 11 0 5 -4 7 -10 4 -5 -3 -10 1 -10 10 0 9
-3 14 -7 12 -17 -10 -22 276 -9 463 18 258 32 377 47 386 5 3 9 16 9 28 0 16
7 26 23 30 44 12 50 8 43 -26 -30 -142 -58 -435 -63 -666 l-6 -252 1237 0
c680 0 1236 2 1236 5 0 3 -35 49 -78 103 -196 242 -334 438 -397 562 -42 82
-135 338 -135 371 0 16 -6 48 -14 71 -53 160 -130 609 -180 1043 -7 66 -14
104 -15 85 -1 -46 34 -357 60 -533 11 -76 18 -141 15 -144 -2 -3 0 -17 5 -32
14 -36 70 -293 66 -298 -6 -5 -98 219 -159 389 -28 76 -53 137 -55 135 -6 -7
87 -266 154 -427 41 -99 67 -175 70 -210 4 -30 12 -64 18 -75 7 -11 16 -40 19
-65 14 -93 101 -301 165 -395 12 -16 21 -37 20 -45 0 -10 -3 -9 -8 4 -9 22 -3
29 -94 -107 -29 -42 -67 -98 -84 -124 -18 -26 -33 -53 -33 -59 0 -13 -30 -28
-39 -19 -8 9 15 40 28 38 45 -11 -69 138 -137 178 -20 12 -59 37 -87 55 -62
41 -543 233 -760 303 -264 86 -420 120 -547 121 -34 0 -58 4 -58 10 0 27 36
71 117 146 62 57 99 100 122 143 17 33 39 61 47 61 22 0 28 26 10 52 -22 31
-20 54 6 80 13 13 22 27 20 31 -4 13 26 64 42 70 17 7 52 79 116 241 27 67 62
151 79 188 17 37 31 76 31 86 0 27 27 60 52 64 16 2 32 21 55 66 94 182 242
348 448 502 l79 59 24 -34 c14 -19 33 -37 43 -40 19 -6 95 -92 126 -142 11
-18 23 -30 26 -26 4 3 7 -8 7 -25 0 -22 5 -32 15 -32 13 0 14 -4 5 -20 -7 -14
-8 -26 -1 -38 6 -9 11 -14 11 -10 0 4 19 -11 42 -32 23 -22 45 -40 49 -40 14
0 -2 55 -23 77 -13 14 -16 23 -9 23 16 0 9 25 -7 26 -7 1 -16 2 -22 3 -12 1
-39 52 -43 81 -2 12 -9 25 -17 30 -7 5 -10 15 -6 26 4 10 1 21 -6 26 -11 6
-10 8 0 8 7 0 10 5 7 10 -4 6 -10 8 -15 5 -4 -3 -10 2 -13 10 -5 12 -2 12 18
3 14 -6 25 -15 25 -20 0 -5 6 -8 13 -7 20 3 77 -25 74 -36 -2 -5 -12 -12 -22
-13 -12 -3 -15 0 -10 9 5 8 4 10 -3 5 -17 -10 -15 -43 3 -43 8 0 15 5 15 11 0
6 4 4 9 -4 6 -8 8 -17 5 -21 -2 -4 5 -7 16 -6 22 1 27 13 8 20 -10 4 -10 6 -1
6 21 2 27 -22 9 -35 -10 -7 -15 -17 -11 -23 3 -7 0 -8 -9 -5 -11 4 -16 0 -16
-11 0 -9 9 -19 19 -22 20 -5 38 -33 22 -33 -5 0 -12 6 -14 13 -4 8 -6 7 -6 -4
-1 -8 5 -23 12 -33 13 -18 15 -18 42 0 16 11 26 14 22 7 -5 -8 8 -10 45 -8 29
2 59 -2 66 -8 8 -6 16 -7 20 -1 9 12 45 12 55 -1 6 -6 10 -6 14 3 2 6 13 12
22 12 10 0 21 3 25 7 16 16 105 44 178 55 42 7 75 15 73 18 -2 4 2 7 10 7 8 0
12 -4 9 -9 -3 -5 7 -6 23 -3 15 3 78 5 138 4 61 -1 126 -2 145 -2 l35 0 -30
-12 c-16 -7 -102 -15 -189 -19 -88 -3 -192 -11 -230 -17 -39 -5 -82 -11 -96
-13 -47 -6 -97 -34 -119 -65 -24 -34 -46 -39 -77 -17 -11 8 -39 19 -63 26 -36
9 -47 9 -67 -5 -13 -8 -24 -22 -24 -30 0 -8 -5 -15 -12 -15 -23 0 2 -13 78
-39 l77 -26 33 -80 c31 -72 77 -134 96 -127 5 1 27 -11 50 -28 22 -16 49 -30
60 -30 10 0 21 -6 24 -13 5 -15 34 -19 34 -5 0 5 9 6 20 3 12 -4 27 -1 35 5
12 10 15 10 15 1 0 -7 5 -9 13 -4 6 4 19 8 27 8 8 0 21 4 27 8 10 6 11 2 3
-17 -9 -26 3 -38 13 -13 4 8 6 8 6 0 1 -6 10 -9 23 -5 14 3 19 1 14 -6 -3 -6
-2 -13 3 -16 5 -4 11 4 13 16 2 16 9 22 23 21 11 -1 23 4 27 10 6 9 8 8 8 -2
0 -11 4 -11 18 2 13 12 31 16 60 13 24 -2 43 1 45 8 2 7 10 4 21 -7 22 -22 52
-22 65 0 9 16 10 16 11 -4 0 -15 -7 -23 -22 -26 -20 -4 -19 -4 5 -6 18 -1 27
4 27 15 0 10 7 14 23 12 18 -2 21 1 19 19 -3 18 1 23 20 22 13 0 18 -3 11 -5
-7 -3 -9 -12 -6 -20 4 -10 9 -12 18 -4 9 8 14 6 18 -4 3 -8 1 -17 -6 -20 -7
-2 -2 -5 10 -5 12 -1 25 -5 28 -11 3 -5 18 -10 33 -10 27 0 27 0 6 18 -16 13
-19 23 -13 47 l7 30 1 -27 c1 -26 35 -57 49 -44 3 3 1 6 -5 6 -6 0 -8 11 -6
24 3 16 10 23 19 19 9 -3 14 1 14 12 0 9 5 13 10 10 6 -4 8 -10 5 -15 -3 -5
-1 -11 5 -15 6 -4 10 4 10 19 0 14 4 27 8 30 5 3 7 -11 6 -30 -2 -21 1 -32 7
-29 5 4 7 15 4 25 -3 11 0 20 10 23 10 4 17 -2 21 -18 3 -14 10 -25 15 -25 12
0 11 6 -7 41 -8 17 -13 33 -10 36 6 6 29 -40 45 -90 13 -39 32 -43 25 -4 -2
12 2 6 10 -13 12 -29 15 -31 15 -12 1 13 5 20 11 17 6 -4 8 -11 5 -16 -4 -5
-1 -9 5 -9 6 0 8 11 4 27 -14 63 -13 66 6 28 17 -36 19 -37 14 -10 -3 17 -7
36 -10 43 -6 20 16 2 27 -22 8 -17 9 -14 5 14 l-5 35 18 -38 c16 -33 20 -36
31 -22 7 9 19 14 27 11 7 -3 13 -1 13 4 0 5 6 10 13 13 6 2 4 3 -5 2 -10 -2
-18 1 -18 6 0 5 11 9 25 9 14 0 25 -5 25 -11 0 -5 5 -7 10 -4 6 4 8 11 5 16
-3 5 2 6 11 2 13 -5 15 -3 9 8 -7 11 -5 11 9 -1 17 -13 21 -12 47 19 20 25 30
30 33 20 3 -8 28 -103 56 -212 108 -419 281 -1010 443 -1506 98 -301 125 -367
142 -349 2 2 -11 51 -30 108 -154 479 -257 818 -404 1330 -186 651 -180 625
-162 687 8 32 20 53 28 53 15 0 37 21 113 106 l46 51 17 -23 c19 -25 22 -38 7
-29 -10 6 -3 -21 10 -40 12 -17 60 -171 60 -193 0 -11 5 -24 10 -27 6 -3 10
-15 10 -25 0 -11 11 -52 24 -92 27 -80 58 -215 61 -264 1 -16 5 -35 8 -41 4
-6 9 -33 11 -60 3 -26 12 -62 20 -79 9 -17 18 -44 21 -60 15 -92 53 -234 65
-244 8 -7 30 -96 30 -123 0 -13 4 -27 8 -32 13 -16 51 -118 57 -150 9 -58 18
-90 30 -102 7 -6 15 -34 19 -62 4 -28 10 -52 15 -55 5 -3 14 -27 21 -53 6 -27
16 -57 21 -68 5 -11 17 -51 28 -90 19 -68 31 -109 54 -188 12 -44 13 -122 2
-189 l-8 -48 597 0 596 0 0 673 0 673 -26 55 c-15 29 -46 93 -70 141 -24 48
-44 94 -44 102 0 9 -4 16 -8 16 -5 0 -23 32 -42 70 -19 39 -37 70 -41 70 -7 0
-23 56 -22 77 0 7 -3 11 -7 8 -4 -3 -15 10 -24 28 -9 17 -21 39 -25 47 -5 8
-23 42 -39 75 -16 33 -55 109 -85 168 -31 60 -54 114 -53 120 2 7 1 8 -2 3 -3
-6 -15 10 -27 35 -12 24 -61 119 -109 211 -47 92 -86 170 -86 173 0 4 7 4 16
1 8 -3 12 -2 9 4 -4 6 12 9 40 7 34 -2 49 1 55 13 8 15 0 15 -83 4 -96 -12
-137 -28 -270 -107 l-68 -40 -269 6 c-165 3 -277 10 -289 17 -24 12 -27 39 -8
59 10 11 9 13 -5 8 -11 -4 -21 0 -27 11 -10 16 -10 16 -11 0 0 -9 5 -20 11
-23 6 -4 8 -13 5 -21 -3 -8 4 -24 15 -35 22 -22 22 -26 -1 -29 -34 -5 -47 2
-62 33 l-16 32 -7 -32 c-5 -20 -25 -49 -51 -73 -24 -22 -44 -43 -44 -47 0 -4
-37 -43 -83 -87 -46 -45 -102 -109 -125 -144 -24 -34 -49 -62 -57 -62 -8 0
-15 -6 -15 -12 0 -7 -9 -2 -20 12 -16 20 -20 22 -20 8 0 -22 -1 -22 -36 -4
-30 16 -50 59 -110 232 -34 101 -36 134 -7 134 12 0 13 3 3 15 -6 8 -8 20 -4
27 5 8 12 3 20 -17 15 -34 19 -19 5 17 -7 18 -4 30 9 48 10 13 16 30 13 37 -4
9 0 11 11 7 10 -4 16 -1 16 7 1 8 9 -1 18 -19 22 -40 36 -32 15 8 -16 33 -16
32 40 108 28 39 42 51 50 43 20 -20 28 -12 22 22 -5 27 -1 40 21 68 58 72 98
108 126 115 22 4 28 10 23 22 -14 36 -15 68 -3 82 13 16 97 68 131 82 11 5 15
13 11 19 -4 7 -3 9 4 5 6 -3 49 32 96 79 49 49 97 87 113 91 15 3 33 12 38 18
36 42 189 55 306 27 101 -26 235 -88 307 -143 44 -35 60 -56 96 -132 23 -50
49 -113 56 -139 7 -27 16 -43 20 -37 5 9 9 8 13 -2 40 -100 46 -118 36 -113
-6 4 -4 -7 5 -23 9 -17 16 -38 16 -46 0 -8 4 -18 10 -21 6 -3 7 1 4 9 -3 9 -4
16 -1 16 7 0 53 -118 62 -157 8 -42 -9 -44 -24 -3 -5 17 -15 30 -22 30 -15 0
-6 -64 15 -106 8 -16 20 -40 26 -54 6 -14 21 -41 33 -61 12 -20 42 -70 67
-110 25 -41 73 -116 107 -167 66 -97 71 -108 51 -96 -8 4 -10 3 -5 -2 5 -5 14
-9 20 -9 7 0 11 -8 11 -17 -1 -10 3 -16 10 -15 6 1 11 -7 12 -18 2 -48 4 -51
13 -36 8 12 12 13 26 1 9 -7 13 -20 10 -28 -3 -8 3 -16 16 -19 16 -4 19 -11
15 -29 -3 -12 -2 -26 4 -29 5 -3 7 0 4 8 -3 8 0 18 6 22 6 3 9 3 8 -2 -2 -4
15 -25 36 -45 21 -20 36 -41 33 -45 -3 -5 1 -17 9 -28 8 -10 14 -14 14 -9 0 6
-3 14 -7 20 -5 5 2 -1 14 -13 12 -13 25 -23 28 -23 12 0 4 57 -11 79 -14 19
-14 25 -3 33 11 8 10 8 -5 4 -13 -5 -17 -2 -13 8 4 9 1 13 -6 11 -7 -2 -23 9
-35 26 -19 23 -21 33 -12 44 8 9 8 20 2 32 -9 17 -9 31 2 100 3 16 5 45 5 66
1 21 5 36 9 33 4 -2 9 15 10 38 1 24 6 55 12 70 12 33 14 94 1 81 -8 -9 -24
-76 -53 -220 -5 -27 -10 -84 -10 -125 0 -60 -2 -71 -12 -57 -6 10 -30 40 -53
65 -24 26 -43 51 -43 56 0 6 -10 21 -23 35 -30 33 -102 145 -88 137 7 -4 9 -1
5 8 -3 9 -11 14 -17 13 -7 -1 -11 6 -9 16 2 9 -4 20 -13 23 -8 3 -15 10 -15
15 0 6 -9 19 -20 31 -11 12 -20 30 -20 40 0 11 -4 16 -10 13 -6 -4 -7 1 -3 11
4 10 2 15 -3 11 -6 -3 -23 19 -39 49 -16 30 -34 59 -41 64 -9 8 -9 19 1 47 7
20 9 44 5 52 -4 9 -14 36 -21 61 -7 25 -18 55 -26 67 -7 12 -22 46 -34 75 -11
29 -31 75 -45 101 -14 26 -22 53 -18 59 4 6 3 8 -3 5 -31 -19 -16 37 38 151
89 187 159 348 159 369 0 10 7 43 15 73 25 94 45 269 47 419 l2 144 -39 34
c-55 48 -112 75 -230 109 -86 25 -117 29 -222 29 -80 0 -126 -4 -134 -12 -9
-9 -3 -10 24 -3 20 4 38 5 41 3 3 -3 39 -5 80 -4 48 1 76 -3 76 -10 0 -5 5 -7
10 -4 6 3 25 2 43 -4 118 -38 144 -45 160 -42 9 1 17 -2 17 -7 0 -6 11 -13 25
-16 14 -4 23 -11 20 -16 -3 -5 0 -7 8 -4 18 7 87 -52 87 -74 0 -13 -4 -12 -22
4 -12 10 -18 13 -13 5 6 -11 4 -13 -8 -8 -30 11 -18 -3 16 -18 17 -8 24 -13
15 -11 -9 3 -33 8 -52 12 -20 3 -33 10 -30 15 3 6 -6 7 -22 3 -15 -4 -25 -3
-22 2 3 5 -10 10 -31 10 -87 4 -463 148 -465 179 -1 5 37 25 84 45 84 35 86
35 230 35 169 -1 197 -9 416 -121 109 -55 134 -64 162 -59 25 5 39 2 53 -11
11 -10 42 -21 69 -24 l50 -6 0 1063 0 1063 -784 0 c-618 0 -785 -3 -789 -12
-4 -10 -6 -10 -6 0 -1 9 -31 12 -116 12 -63 0 -115 -2 -115 -5 0 -3 7 -46 16
-95 8 -50 12 -95 9 -101 -4 -5 -2 -16 4 -23 7 -8 14 -36 18 -64 5 -42 17 -65
74 -141 96 -128 102 -146 23 -71 -38 36 -70 68 -72 73 -2 4 -10 13 -17 20 -29
29 -67 119 -75 177 -5 34 -21 99 -36 146 l-26 84 -710 0 c-706 0 -709 0 -698
-20 7 -14 8 -26 1 -39 -8 -15 -7 -20 6 -26 14 -5 15 -8 4 -14 -9 -6 -10 -11
-2 -15 8 -5 8 -13 1 -26 -7 -13 -6 -21 4 -29 7 -6 21 -29 31 -51 10 -22 22
-37 26 -34 5 3 6 -2 3 -10 -3 -9 -1 -16 5 -16 6 0 8 -7 4 -17 -5 -12 -3 -14 8
-8 11 6 11 5 2 -5 -9 -10 -18 -8 -42 11 -33 27 -39 39 -43 87 -1 17 -7 32 -13
32 -5 0 -30 18 -54 40 -24 22 -48 40 -53 40 -4 0 -13 12 -18 26 -6 14 -13 23
-17 21 -5 -2 -16 5 -26 15 -17 18 -17 19 10 15 21 -3 30 -11 38 -35 5 -18 14
-32 21 -32 8 0 7 13 -4 44 l-16 44 -417 1 c-363 2 -417 0 -429 -14z m2730 -16
c0 -6 -4 -7 -10 -4 -5 3 -10 11 -10 16 0 6 5 7 10 4 6 -3 10 -11 10 -16z m18
-44 c-3 -3 -9 2 -12 12 -6 14 -5 15 5 6 7 -7 10 -15 7 -18z m22 -30 c0 10 80
-111 80 -121 0 -3 8 -14 19 -25 29 -32 64 -106 56 -120 -5 -8 -4 -10 3 -5 8 5
10 -2 6 -22 -3 -16 -1 -32 4 -36 10 -6 5 -46 -7 -46 -3 0 -7 17 -8 38 -2 56
-49 150 -73 144 -6 -1 -9 2 -5 8 8 12 -20 73 -53 119 -14 19 -20 31 -13 26 9
-5 12 -3 10 4 -3 7 -8 12 -13 11 -10 -2 -26 20 -26 35 0 6 5 3 10 -5 5 -8 10
-10 10 -5z m-3307 -205 c-10 -11 -18 -20 -19 -20 -1 0 0 9 3 20 3 11 12 20 19
20 11 0 10 -5 -3 -20z m3497 -305 c0 -23 0 -22 14 -63 12 -33 12 -39 0 -39
-16 0 -20 11 -29 71 -5 31 -4 46 4 46 6 0 11 -7 11 -15z m-2390 -181 c0 -8 9
-23 20 -34 11 -11 20 -27 20 -35 0 -8 14 -63 31 -122 35 -122 35 -116 19 -238
-6 -49 -15 -133 -20 -185 -5 -52 -18 -138 -29 -190 -23 -108 -26 -141 -7 -90
7 19 23 57 35 84 13 26 26 69 31 95 18 101 27 139 51 217 5 17 9 40 9 52 0 33
12 27 41 -21 22 -37 24 -46 14 -61 -7 -9 -15 -13 -17 -9 -3 4 -3 2 -1 -5 1 -7
-15 -68 -37 -135 -42 -128 -46 -161 -10 -80 42 93 73 153 81 158 4 3 11 -10
15 -30 3 -19 9 -33 13 -31 12 8 12 -86 0 -156 -11 -72 -32 -141 -73 -250 -14
-38 -24 -68 -22 -68 10 0 45 83 40 93 -4 7 -4 9 1 5 4 -4 17 -1 29 7 29 21 31
20 63 -30 15 -25 31 -45 34 -45 4 0 17 -27 29 -60 26 -71 24 -136 -7 -167 -11
-11 -44 -24 -74 -30 -53 -10 -53 -10 -14 -12 l40 -1 -32 -16 c-18 -9 -30 -21
-26 -27 4 -6 -4 -8 -21 -3 -23 6 -27 4 -24 -11 3 -12 -8 -25 -32 -39 -22 -12
-34 -27 -32 -37 2 -12 -4 -17 -18 -17 -12 0 -18 -4 -15 -10 3 -6 -1 -7 -9 -4
-9 3 -16 1 -16 -4 0 -6 -10 -14 -21 -17 -17 -6 -19 -9 -8 -16 12 -7 11 -9 -1
-10 -26 -3 -34 -6 -62 -17 -15 -6 -36 -9 -45 -6 -15 5 -16 4 -3 -5 17 -12 17
-12 -23 -15 -16 -1 -32 -8 -36 -15 -6 -9 -28 -13 -65 -13 -32 0 -54 -4 -50 -9
3 -5 -13 -9 -35 -9 -23 0 -41 -4 -41 -9 0 -5 -10 -7 -22 -3 -22 5 -22 4 -5
-15 9 -11 17 -25 17 -31 0 -6 10 -18 22 -26 12 -9 18 -16 12 -16 -35 0 -130
114 -188 225 -22 43 -33 58 -30 40 4 -16 11 -36 16 -42 6 -7 8 -20 4 -28 -3
-9 -2 -13 4 -10 13 8 32 -42 25 -65 -6 -20 10 -36 20 -21 3 6 21 -7 39 -27 24
-26 31 -41 25 -49 -7 -8 -5 -10 10 -6 22 6 26 -3 12 -26 -5 -7 -13 -11 -18 -8
-7 5 -10 -23 -4 -40 3 -8 -5 -18 -12 -15 -11 3 -4 -31 8 -41 6 -5 4 -7 -5 -4
-8 2 -16 13 -18 25 -2 12 -8 22 -13 22 -6 0 -7 -6 -3 -12 4 -7 -5 -2 -20 12
-40 36 -87 110 -80 122 5 7 2 8 -6 3 -10 -6 -12 -4 -7 9 4 10 3 15 -3 11 -12
-7 -33 32 -24 47 4 6 3 8 -3 5 -5 -3 -29 30 -52 74 -24 44 -45 78 -48 75 -6
-5 107 -223 139 -269 16 -22 17 -31 8 -42 -7 -8 -17 -12 -23 -8 -6 4 -7 1 -3
-6 6 -9 13 -8 27 5 10 9 19 13 19 7 0 -5 9 -20 19 -32 28 -32 17 -55 -23 -46
-17 4 -39 7 -48 7 -9 0 -22 6 -29 14 -6 8 -17 14 -23 14 -6 0 -4 -4 4 -10 22
-14 3 -25 -22 -13 -51 24 -123 101 -195 212 -42 64 -81 121 -86 126 -14 15 50
-99 110 -195 44 -71 50 -87 39 -98 -10 -10 -19 -11 -32 -4 -11 5 -30 8 -44 6
-14 -3 -32 -4 -40 -4 -72 0 -101 3 -114 13 -20 17 -136 240 -192 372 -47 113
-58 166 -70 345 -9 139 -4 363 10 427 4 18 8 36 8 40 0 20 22 30 69 31 29 0
55 5 58 10 9 12 41 23 41 13 0 -10 116 19 170 42 19 8 73 27 120 42 47 15 111
43 143 61 32 19 61 34 64 34 3 0 46 20 96 45 93 46 164 95 138 95 -8 0 -23 -8
-34 -17 -19 -17 -20 -17 -8 5 6 12 19 23 29 24 32 2 37 4 50 11 7 5 10 12 8
16 -3 4 13 6 35 5 21 -1 39 3 39 8 0 5 -10 6 -22 2 -20 -6 -21 -5 -10 9 13 16
58 16 84 1 7 -4 10 -4 6 1 -8 9 32 42 45 37 5 -1 6 2 3 7 -3 5 1 12 10 15 22
9 26 8 18 -6 -4 -7 -3 -8 5 -4 9 6 9 11 0 22 -9 11 -8 14 3 14 8 0 20 11 26
25 7 14 18 25 26 23 8 -2 15 0 15 5 2 23 -1 27 -23 27 -14 0 -27 4 -30 9 -4 5
4 7 15 4 19 -5 21 -3 17 20 -3 15 -1 24 3 21 5 -3 9 -12 9 -20z m-97 -22 c9
-8 17 -19 17 -24 0 -4 -9 1 -20 12 -11 11 -24 20 -30 20 -5 0 -10 5 -10 11 0
11 15 4 43 -19z m-3 -57 c0 -8 7 -15 15 -15 26 0 14 -31 -17 -43 -12 -4 -18
-1 -18 9 0 8 5 12 10 9 6 -3 10 -1 10 5 0 7 -6 10 -13 7 -8 -3 -20 -1 -27 3
-11 7 -11 11 -1 24 17 20 41 21 41 1z m-95 -55 c3 -6 -1 -7 -9 -4 -18 7 -21
14 -7 14 6 0 13 -4 16 -10z m61 -2 c4 -7 3 -8 -4 -4 -7 4 -12 1 -12 -7 0 -7
-11 -19 -25 -25 -28 -13 -32 -3 -13 28 14 22 43 26 54 8z m-1326 -47 c0 -5 -7
-11 -15 -15 -9 -3 -15 0 -15 9 0 8 7 15 15 15 8 0 15 -4 15 -9z m40 -21 c0
-12 10 -24 23 -30 16 -6 17 -9 5 -9 -9 -1 -24 9 -32 21 -18 26 -20 38 -6 38 6
0 10 -9 10 -20z m1551 -7 c13 -16 12 -17 -3 -4 -10 7 -18 15 -18 17 0 8 8 3
21 -13z m-1604 -53 c-1 -12 -5 -16 -10 -11 -5 5 -6 14 -3 20 11 16 15 13 13
-9z m38 -1 c-4 -6 1 -17 11 -24 16 -12 17 -14 3 -15 -25 0 -41 24 -27 38 15
15 21 15 13 1z m1645 -119 c-10 -6 -9 -9 1 -13 9 -4 10 -6 2 -6 -7 -1 -17 8
-23 19 -9 17 -8 19 7 13 16 -6 16 -4 -1 15 -11 12 -15 22 -10 22 5 0 4 4 -2 8
-6 4 -14 18 -18 32 -4 14 7 1 25 -29 24 -40 29 -55 19 -61z m-1597 51 c22 12
22 12 2 -8 -11 -11 -21 -16 -23 -12 -2 5 -10 9 -18 9 -8 0 -14 7 -14 16 0 14
1 14 16 0 12 -13 20 -14 37 -5z m963 4 c-24 -18 -33 -19 -42 -3 -4 7 -3 8 4 4
7 -4 20 -2 29 3 26 15 31 13 9 -4z m-1055 -44 c-10 -17 -9 -20 5 -14 13 5 12
0 -6 -25 -12 -16 -31 -33 -42 -35 -18 -5 -18 -4 -5 11 9 9 16 20 16 25 1 15
33 69 38 64 2 -3 0 -15 -6 -26z m931 -12 c-24 -10 -56 -27 -70 -38 -46 -32
-175 -82 -186 -71 -6 6 1 14 17 21 15 7 27 16 27 22 0 5 7 6 16 3 10 -4 13 -2
8 6 -5 8 0 9 15 5 13 -3 20 -3 16 1 -3 4 36 21 87 39 105 36 134 41 70 12z
m-888 -44 c-4 -8 -8 -15 -10 -15 -2 0 -4 7 -4 15 0 8 4 15 10 15 5 0 7 -7 4
-15z m-13 -32 c13 -16 12 -17 -3 -4 -10 7 -18 15 -18 17 0 8 8 3 21 -13z m119
-38 c14 -19 14 -19 -2 -6 -10 7 -18 18 -18 24 0 6 1 8 3 6 1 -2 9 -13 17 -24z
m495 6 c-3 -5 3 -12 12 -14 10 -2 3 -4 -14 -3 -34 1 -43 10 -20 19 20 9 29 8
22 -2z m-45 -29 c0 -4 -68 -32 -77 -32 -4 0 1 6 12 12 19 12 19 12 -5 19 -17
4 -10 6 22 5 27 0 48 -2 48 -4z m-250 -47 c11 -13 10 -14 -4 -9 -9 3 -16 10
-16 15 0 13 6 11 20 -6z m2333 -380 c-10 -13 -21 -25 -25 -25 -15 0 -8 29 10
39 29 17 34 12 15 -14z m1360 -130 c-3 -9 -8 -14 -10 -11 -3 3 -2 9 2 15 9 16
15 13 8 -4z m-2093 -70 c5 -3 10 -13 10 -22 0 -11 -6 -8 -20 10 -11 14 -20 30
-20 36 0 6 -4 11 -10 11 -5 0 -6 8 -3 17 6 14 9 11 20 -14 7 -17 17 -34 23
-38z m1850 -125 c36 -74 108 -218 161 -320 53 -102 117 -228 143 -280 25 -52
73 -142 106 -200 33 -58 60 -108 60 -113 0 -4 -26 6 -57 21 -32 16 -81 37
-110 46 -28 9 -56 23 -62 30 -9 11 -238 625 -281 756 -10 30 -29 84 -43 120
-19 51 -22 70 -14 88 13 28 7 37 97 -148z m-3561 80 c0 -10 -3 -8 -9 5 -12 27
-12 43 0 25 5 -8 9 -22 9 -30z m2616 20 c-3 -5 -13 -6 -22 -3 -11 4 -14 3 -9
-5 4 -7 -3 -17 -18 -24 -26 -11 -35 -28 -15 -28 5 0 7 -5 3 -12 -6 -9 -9 -9
-12 0 -3 9 -7 9 -17 -1 -35 -33 -54 -44 -64 -37 -8 4 1 17 26 35 21 16 40 33
41 37 2 4 10 8 18 8 9 0 12 4 9 10 -4 6 1 7 11 3 11 -4 15 -3 10 5 -3 6 1 15
11 21 19 10 37 5 28 -9z m80 -70 c-3 -5 -12 -10 -18 -10 -7 0 -6 4 3 10 19 12
23 12 15 0z m-781 -236 c3 -8 2 -12 -4 -9 -6 3 -10 10 -10 16 0 14 7 11 14 -7z
m-138 -19 c15 -24 20 -68 11 -110 -3 -18 -24 -35 -102 -89 -24 -17 -224 -82
-279 -91 -29 -5 -36 -9 -25 -16 8 -5 11 -9 7 -10 -5 -1 -11 -2 -15 -3 -5 -1
-20 -10 -35 -20 -25 -16 -36 -17 -105 -8 -89 12 -153 36 -153 56 0 8 21 22 48
31 26 9 65 25 87 35 22 10 70 32 106 49 37 17 74 31 84 31 9 0 14 4 11 8 -7
11 28 29 73 38 19 3 54 17 79 30 25 13 52 24 60 24 8 0 12 6 9 13 -3 8 7 13
31 14 42 2 64 19 42 33 -11 7 -7 10 17 10 24 0 37 -7 49 -25z m164 -13 c0 -5
-7 -9 -15 -9 -8 0 -12 4 -9 9 3 4 9 8 15 8 5 0 9 -4 9 -8z m977 -118 c-3 -3
-12 -4 -19 -1 -8 3 -5 6 6 6 11 1 17 -2 13 -5z m-2773 -39 l17 -30 -20 24
c-12 13 -21 28 -21 34 0 12 0 11 24 -28z m659 10 c-3 -9 -8 -14 -10 -11 -3 3
-2 9 2 15 9 16 15 13 8 -4z m2034 9 c-3 -3 -12 -4 -19 -1 -8 3 -5 6 6 6 11 1
17 -2 13 -5z m-20 -96 c-2 -13 -4 -3 -4 22 0 25 2 35 4 23 2 -13 2 -33 0 -45z
m-2643 -9 c-3 -5 -10 -7 -15 -3 -5 3 -7 10 -3 15 3 5 2 16 -3 22 -4 7 0 4 9
-6 10 -11 15 -23 12 -28z m1772 42 c-4 -5 -1 -11 6 -13 18 -6 -133 -103 -199
-128 -32 -12 -90 -24 -130 -27 -61 -5 -77 -3 -108 16 -20 11 -47 21 -61 21
-13 0 -24 4 -24 9 0 5 -8 12 -17 14 -10 3 2 5 27 6 25 0 73 8 105 17 179 47
306 77 350 84 28 4 51 8 53 9 2 0 1 -3 -2 -8z m70 -36 c19 -15 19 -15 -2 -33
-11 -9 -19 -22 -17 -28 5 -15 -63 -76 -89 -79 -13 -2 -31 -6 -40 -10 -10 -4
-18 -3 -18 3 0 5 -13 8 -30 6 -46 -5 -36 13 22 42 89 45 130 74 125 89 -11 27
18 34 49 10z m-1090 -39 c11 -11 11 -16 1 -19 -7 -3 -5 -6 5 -6 9 -1 20 -5 23
-11 7 -11 -23 -2 -42 12 -7 5 -14 5 -17 -1 -3 -5 0 -12 6 -14 9 -4 10 -6 1 -6
-20 -2 -27 21 -10 34 9 7 14 15 10 18 -3 4 -3 7 1 7 4 0 14 -6 22 -14z m114
-18 c0 -13 -53 -57 -62 -51 -15 8 -8 23 10 23 28 0 34 11 17 30 -14 16 -14 17
10 13 14 -3 25 -10 25 -15z m450 12 c-8 -5 -33 -9 -55 -9 l-40 2 35 7 c19 4
44 8 55 9 16 0 17 -1 5 -9z m660 -5 c0 -15 -71 -75 -90 -75 -6 0 -8 -4 -5 -10
4 -6 -1 -7 -11 -3 -13 5 -15 3 -9 -7 6 -10 4 -12 -9 -7 -11 4 -15 3 -11 -4 4
-6 -2 -13 -14 -16 -23 -6 -25 -11 -12 -31 7 -11 30 -6 117 24 60 21 112 42
116 48 15 23 192 -190 242 -291 29 -57 75 -200 81 -253 3 -19 9 -60 14 -90 9
-57 3 -89 -10 -54 -5 13 -8 6 -8 -25 -1 -37 -7 -50 -38 -80 l-36 -35 -15 22
c-8 12 -21 22 -29 22 -11 0 -10 -6 6 -27 12 -14 20 -28 17 -30 -2 -2 -42 -4
-89 -4 -74 0 -91 3 -119 23 -18 13 -34 26 -36 31 -2 4 -10 7 -19 7 -8 0 -42
15 -76 34 -34 19 -103 51 -154 71 -50 20 -104 48 -118 61 -14 13 -29 24 -33
24 -5 0 -23 15 -43 33 -19 17 -58 52 -86 76 -28 24 -49 49 -47 56 3 7 -4 15
-15 18 -17 4 -21 14 -23 49 0 23 -2 48 -3 53 -1 6 -5 34 -9 63 -7 47 -11 53
-28 49 -16 -4 -17 -3 -7 9 16 19 29 18 55 -7 28 -26 65 -19 43 8 -12 14 -11
15 10 8 13 -4 58 -10 101 -14 l76 -6 -1 31 c-1 28 3 33 29 38 16 3 27 8 24 11
-2 3 -20 0 -39 -5 -64 -19 -170 -7 -201 23 -7 7 -28 19 -46 27 -31 14 -26 15
90 15 108 0 134 4 213 29 50 16 99 35 110 43 23 15 47 18 25 2 -13 -9 -13 -10
0 -6 8 2 15 8 15 13 0 14 38 60 54 65 29 10 51 7 51 -6z m-731 -49 c11 -14 6
-15 -27 -7 -4 1 8 21 12 21 2 0 9 -6 15 -14z m-314 -42 c22 -19 25 -24 10 -20
-17 5 -16 3 5 -14 17 -14 34 -19 53 -15 19 3 27 0 27 -10 0 -10 10 -15 31 -15
28 0 31 -3 27 -24 -3 -14 -1 -31 3 -38 6 -9 9 -9 9 -1 0 6 6 18 13 25 7 7 20
29 30 48 9 19 17 28 17 20 0 -9 -5 -21 -11 -27 -7 -7 -7 -13 -1 -17 13 -8 26
49 16 66 -4 7 6 0 22 -17 21 -22 26 -32 17 -38 -7 -4 -13 -12 -13 -18 0 -5
-12 -21 -27 -34 -16 -13 -24 -27 -20 -31 4 -5 12 -2 17 5 5 8 28 15 54 17 39
2 46 0 46 -16 0 -10 5 -22 10 -25 6 -3 10 0 10 7 0 7 9 -2 20 -20 12 -20 25
-30 32 -26 7 5 9 2 5 -9 -13 -34 34 -207 56 -207 4 0 7 -5 7 -10 0 -6 -3 -9
-7 -9 -27 4 -33 -1 -21 -21 9 -14 14 -16 20 -7 5 8 8 4 8 -11 0 -15 -4 -21
-12 -16 -7 3 1 -5 17 -20 l30 -25 -25 -1 c-14 0 -32 -5 -40 -10 -12 -8 -12
-10 5 -11 18 0 18 -1 -3 -12 -19 -8 -26 -8 -33 4 -8 12 -10 12 -8 -1 3 -30 -1
-37 -28 -49 l-28 -12 25 20 c14 11 22 22 19 25 -3 3 -15 -3 -27 -14 -12 -11
-27 -19 -34 -18 -20 5 -36 22 -31 34 6 17 -23 38 -33 23 -4 -7 -2 -15 4 -17 7
-2 10 -8 6 -13 -3 -5 0 -9 5 -9 15 0 14 -18 -1 -23 -7 -2 -3 -2 9 -1 12 2 24
0 28 -6 3 -5 13 -7 23 -4 9 3 4 -3 -13 -12 -16 -10 -37 -17 -45 -16 -13 3 -13
2 0 -7 13 -9 12 -12 -5 -25 -11 -8 -18 -17 -15 -19 3 -3 24 11 47 32 77 67
210 95 271 55 62 -41 93 -90 98 -159 4 -51 -4 -78 -21 -71 -8 3 -11 -2 -8 -14
8 -30 -41 -55 -112 -57 -128 -3 -173 -30 -236 -141 -25 -45 -39 -57 -85 -78
-66 -29 -89 -30 -134 -4 -92 53 -129 69 -173 75 -35 6 -56 16 -78 39 -49 52
-53 87 -23 222 23 107 25 134 21 269 -3 97 -12 185 -26 249 -12 54 -21 107
-21 119 0 11 -7 28 -16 38 -9 10 -14 26 -11 36 4 16 6 15 12 -4 11 -35 22 -27
29 21 4 24 13 51 20 61 10 13 131 64 156 65 3 0 19 -12 35 -26z m275 22 c0 -2
-8 -10 -17 -17 -16 -13 -17 -12 -4 4 13 16 21 21 21 13z m-773 -55 c7 -3 -16
-15 -51 -25 -46 -13 -66 -23 -69 -38 -5 -18 -2 -19 61 -13 37 4 69 8 72 8 3 0
34 -3 70 -8 l65 -8 -90 -43 c-82 -40 -79 -51 5 -17 49 20 111 33 104 22 -3 -5
-12 -9 -20 -9 -8 0 -14 -4 -14 -9 0 -14 -69 -65 -77 -57 -4 4 -1 11 7 16 8 6
10 10 4 10 -17 0 -35 -25 -26 -36 4 -5 3 -6 -2 -2 -5 4 -25 -2 -44 -14 -20
-12 -32 -16 -28 -10 11 17 -25 10 -58 -12 -27 -17 -28 -17 -21 3 3 12 2 21 -3
21 -5 0 -12 9 -15 19 -3 15 1 21 17 24 17 3 16 5 -6 6 -26 1 -68 44 -56 56 3
3 -17 27 -44 55 -56 55 -56 75 1 67 20 -3 54 -2 76 2 41 8 121 4 142 -8z m646
-28 c-7 -2 -19 -2 -25 0 -7 3 -2 5 12 5 14 0 19 -2 13 -5z m-386 -150 c-3 -10
-5 -4 -5 12 0 17 2 24 5 18 2 -7 2 -21 0 -30z m-127 -28 c0 -3 -20 -18 -45
-34 -34 -21 -41 -30 -30 -35 9 -3 13 -2 10 4 -7 12 3 12 30 0 13 -6 15 -9 5
-9 -13 -1 -13 -2 0 -11 17 -12 -26 -4 -70 12 -24 9 -23 10 25 34 28 14 54 30
60 35 10 10 15 11 15 4z m2635 -55 c-3 -5 -12 -10 -18 -10 -7 0 -6 4 3 10 19
12 23 12 15 0z m-2739 -34 c16 -8 54 -16 85 -18 45 -2 56 -6 51 -18 -4 -12 -2
-13 9 -2 27 25 31 10 27 -100 -3 -107 -14 -149 -42 -169 -5 -4 -5 -12 -1 -19
6 -9 10 -9 16 1 12 19 29 -6 29 -43 0 -45 21 -132 36 -149 17 -19 19 -73 2
-63 -8 5 -9 2 -5 -9 11 -30 1 -19 -58 60 -70 92 -149 238 -141 259 3 8 2 13
-3 9 -10 -6 -20 31 -26 91 l-3 37 29 -32 c16 -18 29 -37 29 -43 0 -6 3 -9 6
-5 4 3 13 0 21 -8 8 -8 20 -15 26 -15 7 0 -4 16 -24 34 -20 19 -53 55 -72 80
-28 37 -36 43 -39 29 -3 -10 -9 7 -14 37 -6 33 -15 54 -22 53 -7 -2 -12 2 -12
7 0 15 63 12 96 -4z m1900 -33 c-3 -4 -6 -1 -6 6 0 7 -4 9 -10 6 -6 -4 -7 1
-3 11 6 15 7 15 15 -1 6 -9 7 -19 4 -22z m-1653 2 c-7 -21 -13 -19 -13 6 0 11
4 18 10 14 5 -3 7 -12 3 -20z m677 -19 c0 -3 -4 -8 -10 -11 -5 -3 -10 -1 -10
4 0 6 5 11 10 11 6 0 10 -2 10 -4z m50 -96 c0 -5 -4 -10 -10 -10 -5 0 -10 5
-10 10 0 6 5 10 10 10 6 0 10 -4 10 -10z m-1597 -27 c-7 -2 -19 -2 -25 0 -7 3
-2 5 12 5 14 0 19 -2 13 -5z m1697 -73 c0 -5 -5 -10 -11 -10 -5 0 -7 5 -4 10
3 6 8 10 11 10 2 0 4 -4 4 -10z m37 4 c-3 -3 -12 -4 -19 -1 -8 3 -5 6 6 6 11
1 17 -2 13 -5z m33 -18 c0 -3 -4 -8 -10 -11 -5 -3 -10 -1 -10 4 0 6 5 11 10
11 6 0 10 -2 10 -4z m-1807 -63 c-7 -2 -19 -2 -25 0 -7 3 -2 5 12 5 14 0 19
-2 13 -5z m152 -75 c-3 -13 -10 -33 -16 -45 -5 -13 -13 -33 -18 -45 -4 -13
-22 -57 -39 -98 -17 -41 -44 -111 -60 -155 -16 -44 -34 -79 -40 -77 -7 1 -12
-5 -12 -14 0 -8 5 -12 10 -9 13 8 14 10 -13 -65 -13 -36 -29 -65 -36 -65 -6 0
-16 -7 -21 -15 -8 -13 -10 -13 -14 0 -8 26 -12 89 -5 84 10 -6 19 49 14 92 -4
34 -3 35 4 9 7 -29 7 -29 12 13 2 23 1 42 -3 42 -5 0 -8 8 -8 18 0 14 2 15 10
2 7 -11 10 -7 10 18 0 17 -5 32 -10 32 -7 0 -7 6 0 19 5 11 10 29 10 40 0 27
38 71 61 71 10 0 32 19 50 43 18 23 36 46 41 51 5 6 14 2 24 -10 8 -10 13 -14
10 -8 -10 19 6 74 20 74 8 0 14 5 14 10 0 6 3 10 6 10 3 0 3 -10 -1 -22z m-48
-30 c-3 -8 -6 -5 -6 6 -1 11 2 17 5 13 3 -3 4 -12 1 -19z m1726 -292 c56 1 84
-1 62 -4 l-40 -6 40 -7 c28 -5 21 -6 -26 -3 -46 3 -71 0 -85 -10 -16 -13 -22
-13 -44 0 -23 14 -22 13 3 -9 15 -13 24 -26 20 -30 -3 -4 -17 3 -29 14 -30 28
-84 34 -77 9 3 -10 0 -21 -6 -25 -7 -3 -10 -1 -9 6 2 9 -8 14 -26 14 -16 0
-31 6 -34 14 -3 10 0 12 12 8 9 -4 16 -2 16 3 0 5 23 12 50 16 28 4 53 11 57
17 5 8 8 8 10 1 2 -7 41 -10 106 -8z m433 -24 c-9 -8 -26 10 -26 26 1 15 2 15
15 -2 8 -11 13 -21 11 -24z m-746 19 c0 -5 8 -11 18 -13 14 -3 13 -5 -6 -10
-12 -3 -20 -2 -17 2 3 5 1 11 -4 14 -5 3 -12 -1 -15 -10 -3 -9 -12 -14 -19
-11 -7 2 -18 -6 -24 -19 -7 -16 -8 -24 -1 -24 7 0 6 -5 -1 -13 -6 -8 -9 -17
-6 -21 3 -3 -2 0 -11 8 -14 12 -13 18 10 55 15 22 29 41 32 41 3 0 2 -4 -1
-10 -3 -5 -2 -10 3 -10 6 0 12 7 16 15 6 16 26 21 26 6z m564 3 c15 -6 23 -34
10 -34 -15 0 -44 22 -39 31 7 11 9 11 29 3z m88 -12 c-1 -8 2 -11 7 -8 5 4 12
2 15 -3 4 -6 -7 -8 -24 -6 -21 3 -28 1 -24 -7 4 -7 3 -8 -5 -4 -6 4 -9 12 -6
17 4 5 1 9 -4 9 -6 0 -11 5 -11 11 0 6 12 9 28 7 16 -2 26 -8 24 -16z m48 8
c0 -5 -4 -10 -9 -10 -6 0 -13 5 -16 10 -3 6 1 10 9 10 9 0 16 -4 16 -10z
m-655 -30 c-3 -5 -12 -10 -18 -10 -7 0 -6 4 3 10 19 12 23 12 15 0z m660 -20
c3 -5 2 -10 -4 -10 -5 0 -13 5 -16 10 -3 6 -2 10 4 10 5 0 13 -4 16 -10z m134
-37 c13 -10 14 -12 1 -13 -11 0 -9 -6 8 -19 12 -11 22 -23 22 -27 0 -4 -11 3
-25 16 -29 27 -45 19 -26 -13 13 -20 13 -21 -2 -8 -21 17 -22 37 -1 49 11 6
13 11 5 16 -6 4 -10 17 -10 29 1 20 2 20 6 2 3 -11 13 -25 22 -32z m-1289 -19
c0 -7 4 -14 9 -16 4 -1 12 -14 16 -28 5 -17 -5 -9 -28 24 -20 27 -33 54 -30
59 7 11 33 -20 33 -39z m1168 11 c-3 -3 -9 2 -12 12 -6 14 -5 15 5 6 7 -7 10
-15 7 -18z m53 16 c-8 -5 -20 -7 -28 -4 -21 8 -15 13 15 13 20 0 23 -3 13 -9z
m-501 -11 c0 -5 -4 -10 -9 -10 -6 0 -13 5 -16 10 -3 6 1 10 9 10 9 0 16 -4 16
-10z m-375 -10 c3 -5 1 -10 -4 -10 -6 0 -11 5 -11 10 0 6 2 10 4 10 3 0 8 -4
11 -10z m1049 -40 c4 0 5 4 1 10 -3 5 7 5 25 -1 38 -14 39 -21 3 -14 -27 6
-27 6 -9 -9 11 -9 15 -16 8 -16 -6 0 -24 12 -40 28 -15 15 -21 21 -12 15 9 -7
20 -13 24 -13z m-1207 -6 c-3 -3 -12 -4 -19 -1 -8 3 -5 6 6 6 11 1 17 -2 13
-5z m13 -18 c0 -2 3 -13 6 -23 6 -17 6 -17 -7 -1 -8 9 -23 18 -34 21 -15 4
-13 5 8 6 15 0 27 -1 27 -3z m-1381 -146 l-1 -25 -8 25 c-4 14 -8 32 -9 40 -1
13 0 13 9 0 5 -8 9 -26 9 -40z m31 10 c-16 -31 -23 -18 -8 15 7 15 14 23 16
17 2 -6 -2 -21 -8 -32z m1281 -37 c13 -16 12 -17 -3 -4 -10 7 -18 15 -18 17 0
8 8 3 21 -13z m895 1 c10 -8 14 -13 8 -10 -7 3 -11 -9 -11 -34 0 -22 -7 -45
-16 -55 -18 -18 -23 -40 -7 -30 6 3 7 -1 4 -9 -3 -9 -10 -16 -14 -16 -5 0 -16
-20 -26 -45 -12 -31 -22 -44 -31 -41 -8 3 -12 2 -9 -3 6 -8 -20 -37 -39 -43
-5 -2 -9 -7 -7 -12 5 -14 -29 -33 -54 -30 -13 1 -24 -1 -24 -5 0 -4 -10 -8
-22 -8 -18 -2 -20 0 -8 7 8 5 12 10 8 11 -5 1 -11 2 -15 3 -5 1 -13 5 -20 9
-6 4 -14 3 -17 -2 -4 -5 -1 -12 4 -14 6 -3 5 -4 -1 -3 -14 3 -20 45 -9 65 4 8
2 25 -6 39 -14 27 -10 48 11 56 8 3 16 -5 20 -21 3 -14 13 -32 20 -40 13 -13
15 -9 15 26 0 43 13 59 34 41 12 -9 13 -5 6 25 -5 21 -4 35 2 35 5 0 37 -28
70 -62 51 -53 67 -50 20 4 -18 21 -25 93 -12 118 8 15 83 60 101 60 3 0 14 -7
25 -16z m-2192 -19 c-4 -8 -7 -15 -9 -15 -2 0 -5 7 -9 15 -3 9 0 15 9 15 9 0
12 -6 9 -15z m-37 -25 c-4 -16 -2 -32 3 -35 6 -3 10 -12 9 -18 0 -9 -2 -8 -6
1 -2 6 -8 10 -12 7 -5 -2 -7 6 -6 18 1 12 3 30 4 40 0 9 4 17 7 17 4 0 4 -13
1 -30z m2434 -4 c9 5 11 0 13 -28 1 -7 5 -16 9 -19 5 -4 -2 -24 -15 -45 -13
-22 -30 -54 -38 -73 -7 -18 -24 -44 -36 -56 -13 -13 -21 -25 -18 -27 2 -3 -7
-10 -21 -16 -15 -7 -25 -8 -25 -2 0 6 -7 10 -15 10 -17 0 -20 21 -6 48 5 9 26
53 47 97 36 76 85 137 92 115 2 -6 8 -8 13 -4z m-831 -121 c15 -39 17 -40 44
-20 11 8 23 15 26 15 11 0 30 -49 30 -75 0 -25 14 -33 25 -15 3 6 0 10 -7 10
-10 0 -10 2 0 9 8 4 13 17 12 27 -4 34 0 43 23 54 18 9 20 9 7 -2 -20 -18 -24
-77 -5 -85 8 -3 15 -11 15 -19 0 -8 4 -14 9 -14 5 0 11 -10 13 -22 2 -15 11
-24 26 -26 36 -5 15 -22 -28 -22 -21 0 -42 -4 -45 -10 -4 -6 -17 -4 -36 5 -16
9 -35 13 -41 9 -6 -4 -8 -3 -5 3 4 6 -5 21 -19 34 -35 32 -74 111 -74 149 0
40 13 38 30 -5z m371 -6 c-10 -23 -10 -22 -7 6 6 39 7 42 12 29 3 -6 0 -22 -5
-35z m-101 -43 c0 -44 -16 -47 -34 -6 -9 22 -14 45 -11 51 10 15 45 -20 45
-45z m-56 -12 c3 -8 2 -12 -4 -9 -6 3 -10 10 -10 16 0 14 7 11 14 -7z m1254
-28 c3 -12 -1 -17 -10 -14 -7 3 -15 13 -16 22 -3 12 1 17 10 14 7 -3 15 -13
16 -22z m-434 -1 c-4 -8 -10 -12 -15 -9 -11 6 -2 24 11 24 5 0 7 -7 4 -15z
m60 -4 c3 -4 -6 -6 -19 -3 -14 2 -25 6 -25 8 0 8 39 4 44 -5z m-874 -23 c0
-19 -2 -20 -10 -8 -13 19 -13 30 0 30 6 0 10 -10 10 -22z m3070 18 c0 -3 -4
-8 -10 -11 -5 -3 -10 -1 -10 4 0 6 5 11 10 11 6 0 10 -2 10 -4z m-1870 -56 c0
-5 -5 -10 -11 -10 -5 0 -7 5 -4 10 3 6 8 10 11 10 2 0 4 -4 4 -10z m-4040
-952 c22 -7 40 -16 40 -20 0 -5 11 -8 24 -8 13 0 29 -7 36 -15 16 -19 31 -19
24 0 -7 16 8 13 56 -12 14 -7 42 -16 63 -19 20 -4 37 -10 37 -14 0 -3 6 -7 13
-7 19 0 127 -34 127 -40 0 -2 -13 -2 -30 2 -19 4 -30 3 -30 -4 0 -6 8 -11 17
-11 9 0 14 -2 11 -5 -3 -4 -18 -3 -32 1 -25 6 -25 7 -9 20 16 12 15 13 -17 14
-23 0 -30 -3 -22 -9 10 -6 8 -10 -10 -16 -21 -7 -21 -8 12 -15 l35 -7 -32 -2
c-32 -1 -33 -3 -33 -41 l0 -40 -56 0 c-45 0 -61 -5 -80 -22 -13 -13 -24 -31
-24 -40 0 -14 -9 -18 -40 -18 l-40 0 0 -40 c0 -32 -4 -40 -18 -40 -10 0 -25
-9 -35 -20 -12 -15 -29 -20 -62 -20 -38 0 -45 -3 -45 -20 0 -13 -7 -20 -20
-20 -17 0 -20 -7 -20 -40 0 -33 -3 -40 -19 -40 -11 0 -21 6 -24 13 -2 6 -2
-12 1 -40 4 -49 3 -53 -17 -53 -18 0 -21 -6 -21 -40 0 -33 -3 -40 -20 -40 -18
0 -20 7 -20 79 0 61 3 80 15 85 9 3 15 18 15 34 0 16 7 48 15 71 8 23 12 48 9
56 -3 8 1 28 10 44 9 17 23 45 32 61 9 17 20 57 24 88 27 171 33 198 48 210
20 15 61 15 112 0z m2447 -20 c-3 -8 -6 -5 -6 6 -1 11 2 17 5 13 3 -3 4 -12 1
-19z m-1640 -186 c8 -5 9 -13 3 -22 -7 -10 -10 -11 -10 -2 0 6 -7 12 -15 12
-8 0 -15 5 -15 10 0 12 20 13 37 2z m-27 -22 c12 -8 12 -11 -2 -27 -8 -10 -23
-31 -32 -48 -12 -21 -15 -23 -11 -7 4 12 2 22 -4 22 -6 0 -8 8 -4 18 4 11 -1
8 -15 -8 -12 -14 -21 -20 -22 -15 0 10 60 74 70 74 3 1 12 -3 20 -9z m-63 -82
c-1 -13 -10 -36 -20 -53 l-16 -30 -1 30 c0 27 23 75 36 75 3 0 3 -10 1 -22z"/>
<path d="M6493 4944 c-22 -32 -115 -124 -125 -124 -5 0 -8 -5 -8 -12 0 -6 10
-3 22 8 20 17 21 17 9 1 -18 -23 -57 -45 -45 -25 4 7 -8 0 -28 -17 -19 -16
-33 -33 -31 -37 2 -4 -7 -14 -21 -23 -13 -9 -27 -23 -30 -31 -7 -18 105 57
157 105 20 19 37 40 37 46 0 7 10 20 21 31 12 10 25 28 30 39 5 11 16 30 25
43 9 12 14 22 11 22 -3 0 -14 -12 -24 -26z"/>
<path d="M6669 4444 c-11 -26 -18 -49 -16 -51 2 -2 14 19 25 47 11 27 19 50
16 50 -3 0 -14 -21 -25 -46z"/>
<path d="M5929 4232 c8 -34 19 -62 23 -62 12 0 10 48 -2 55 -6 4 -8 10 -6 13
2 4 -4 18 -14 31 -17 24 -17 22 -1 -37z"/>
<path d="M5850 4211 c0 -6 4 -13 10 -16 6 -3 7 1 4 9 -7 18 -14 21 -14 7z"/>
<path d="M5782 4150 c0 -14 2 -19 5 -12 2 6 2 18 0 25 -3 6 -5 1 -5 -13z"/>
<path d="M5791 4104 c0 -11 3 -14 6 -6 3 7 2 16 -1 19 -3 4 -6 -2 -5 -13z"/>
<path d="M5981 4094 c0 -11 3 -14 6 -6 3 7 2 16 -1 19 -3 4 -6 -2 -5 -13z"/>
<path d="M5801 4064 c0 -11 3 -14 6 -6 3 7 2 16 -1 19 -3 4 -6 -2 -5 -13z"/>
<path d="M5830 3981 c0 -6 4 -13 10 -16 6 -3 7 1 4 9 -7 18 -14 21 -14 7z"/>
<path d="M6116 3935 c4 -8 11 -15 16 -15 6 0 5 6 -2 15 -7 8 -14 15 -16 15 -2
0 -1 -7 2 -15z"/>
<path d="M6086 3924 c-4 -9 -4 -19 -1 -22 3 -3 5 0 5 8 0 10 3 10 17 -1 15
-13 15 -12 4 9 -14 26 -17 27 -25 6z"/>
<path d="M5866 3900 c7 -28 12 -35 18 -29 2 2 -2 15 -10 29 l-15 25 7 -25z"/>
<path d="M6144 3905 c-9 -21 -2 -26 13 -10 8 9 9 16 3 20 -6 3 -13 -1 -16 -10z"/>
<path d="M5906 3833 c-6 -14 -5 -15 5 -6 7 7 10 15 7 18 -3 3 -9 -2 -12 -12z"/>
<path d="M5985 3780 c-3 -5 -1 -10 4 -10 6 0 11 5 11 10 0 6 -2 10 -4 10 -3 0
-8 -4 -11 -10z"/>
<path d="M6025 3770 c11 -5 27 -9 35 -9 9 0 8 4 -5 9 -11 5 -27 9 -35 9 -9 0
-8 -4 5 -9z"/>
<path d="M6825 3320 c-3 -5 -1 -10 4 -10 6 0 11 5 11 10 0 6 -2 10 -4 10 -3 0
-8 -4 -11 -10z"/>
<path d="M6818 3222 c-4 -15 0 -17 31 -13 26 4 30 6 14 9 -13 2 -23 8 -23 13
0 16 -18 10 -22 -9z"/>
<path d="M6115 2870 c3 -5 8 -10 11 -10 2 0 4 5 4 10 0 6 -5 10 -11 10 -5 0
-7 -4 -4 -10z"/>
<path d="M5206 2665 c-9 -26 -7 -32 5 -12 6 10 9 21 6 23 -2 3 -7 -2 -11 -11z"/>
<path d="M5223 2635 c-3 -9 -3 -18 -1 -21 3 -3 8 4 11 16 6 23 -1 27 -10 5z"/>
<path d="M5203 2588 c-2 -16 1 -18 10 -9 7 7 8 14 1 21 -6 6 -10 2 -11 -12z"/>
<path d="M5227 2563 c-4 -3 -7 -11 -7 -17 0 -6 5 -5 12 2 6 6 9 14 7 17 -3 3
-9 2 -12 -2z"/>
<path d="M5190 2543 c0 -10 7 -26 14 -36 12 -16 14 -16 20 -2 3 9 2 13 -4 10
-6 -3 -10 3 -10 14 0 11 -4 23 -10 26 -5 3 -10 -2 -10 -12z"/>
<path d="M7067 2093 c-4 -3 -7 -11 -7 -17 0 -6 5 -5 12 2 6 6 9 14 7 17 -3 3
-9 2 -12 -2z"/>
<path d="M7430 2090 c-9 -6 -10 -10 -3 -10 6 0 15 5 18 10 8 12 4 12 -15 0z"/>
<path d="M6883 2081 c0 -10 9 -23 18 -29 15 -10 16 -8 6 19 -13 33 -26 39 -24
10z"/>
<path d="M4863 819 c-2 -23 3 -25 10 -4 4 8 3 16 -1 19 -4 3 -9 -4 -9 -15z"/>
<path d="M6865 6360 c3 -5 11 -10 16 -10 6 0 7 5 4 10 -3 6 -11 10 -16 10 -6
0 -7 -4 -4 -10z"/>
<path d="M6193 6293 c-31 -46 -53 -102 -60 -149 -9 -67 3 -53 22 26 10 39 28
87 42 106 13 20 22 38 20 41 -3 2 -13 -8 -24 -24z"/>
<path d="M6257 6303 c-3 -5 -15 -35 -27 -66 -12 -31 -25 -57 -29 -57 -4 0 -8
-14 -9 -31 0 -18 -4 -49 -7 -69 -4 -23 -2 -41 4 -45 7 -4 11 9 11 38 0 31 5
47 15 51 8 3 15 11 15 18 0 9 -3 9 -10 -2 -16 -23 -1 35 27 104 13 32 22 60
20 63 -3 2 -7 0 -10 -4z"/>
<path d="M5887 6273 c-49 -52 -73 -152 -47 -193 7 -11 8 -6 4 17 -9 47 12 122
47 166 35 44 34 48 -4 10z"/>
<path d="M6171 6144 c0 -11 3 -14 6 -6 3 7 2 16 -1 19 -3 4 -6 -2 -5 -13z"/>
<path d="M5489 5998 c14 -16 32 -28 40 -27 14 0 14 1 1 6 -8 3 -26 15 -40 27
l-25 21 24 -27z"/>
<path d="M5858 5973 c7 -3 16 -2 19 1 4 3 -2 6 -13 5 -11 0 -14 -3 -6 -6z"/>
<path d="M6785 5809 c-4 -6 -5 -12 -2 -15 2 -3 7 2 10 11 7 17 1 20 -8 4z"/>
<path d="M7638 4663 c-93 -75 -228 -236 -208 -248 5 -3 15 6 20 20 5 14 14 23
20 20 6 -4 7 1 3 11 -4 12 -3 15 6 10 6 -4 11 -4 10 1 -3 20 2 34 11 28 6 -3
10 -2 10 3 0 11 131 142 142 142 4 0 12 9 18 20 14 27 8 25 -32 -7z"/>
<path d="M7889 4323 c-13 -15 -12 -15 9 -4 23 12 28 21 13 21 -5 0 -15 -7 -22
-17z"/>
<path d="M7750 4320 c0 -5 4 -10 9 -10 6 0 13 5 16 10 3 6 -1 10 -9 10 -9 0
-16 -4 -16 -10z"/>
<path d="M9680 4320 c0 -5 5 -10 11 -10 5 0 7 5 4 10 -3 6 -8 10 -11 10 -2 0
-4 -4 -4 -10z"/>
<path d="M9720 4310 c-13 -8 -12 -10 3 -10 9 0 17 5 17 10 0 12 -1 12 -20 0z"/>
<path d="M10201 4245 c-13 -48 -10 -53 11 -17 10 17 13 33 8 42 -6 9 -11 2
-19 -25z"/>
<path d="M9960 4250 c6 -11 13 -20 16 -20 2 0 0 9 -6 20 -6 11 -13 20 -16 20
-2 0 0 -9 6 -20z"/>
<path d="M10012 4245 c0 -16 2 -22 5 -12 2 9 2 23 0 30 -3 6 -5 -1 -5 -18z"/>
<path d="M9856 4205 c8 -46 22 -54 45 -26 10 13 19 28 19 34 0 6 -7 1 -16 -11
-20 -29 -30 -28 -43 6 l-11 27 6 -30z"/>
<path d="M10053 4195 c0 -22 2 -30 4 -17 2 12 2 30 0 40 -3 9 -5 -1 -4 -23z"/>
<path d="M10175 4179 c-10 -15 -20 -196 -11 -188 7 6 26 190 20 197 -1 2 -5
-2 -9 -9z"/>
<path d="M4760 3596 c33 -36 90 -82 90 -73 0 2 -28 28 -62 57 -47 40 -54 44
-28 16z"/>
<path d="M8890 3451 c-83 -18 -169 -63 -214 -110 -17 -17 -27 -31 -24 -31 3 0
0 -25 -8 -55 -19 -70 -6 -152 34 -228 43 -81 56 -97 123 -154 48 -41 80 -57
154 -82 109 -36 169 -39 270 -12 145 38 239 93 270 157 18 38 20 131 3 171 -6
15 -11 31 -10 36 1 4 -3 7 -10 7 -6 0 -9 3 -5 6 6 6 -24 57 -85 147 -44 63
-74 79 -258 132 -137 39 -137 39 -240 16z m90 -62 c0 -5 -4 -9 -10 -9 -5 0
-10 7 -10 16 0 8 5 12 10 9 6 -3 10 -10 10 -16z m180 -20 c0 -6 -4 -7 -10 -4
-5 3 -10 11 -10 16 0 6 5 7 10 4 6 -3 10 -11 10 -16z m-344 -16 c-7 -7 -26 7
-26 19 0 6 6 6 15 -2 9 -7 13 -15 11 -17z m218 -114 c14 -41 26 -83 26 -91 0
-9 7 -19 16 -22 9 -4 14 -13 10 -21 -3 -9 0 -15 9 -15 22 0 27 17 10 33 -8 9
-15 19 -15 24 1 4 9 -2 20 -15 28 -34 16 -52 -37 -52 -36 0 -46 4 -50 19 -5
20 -13 24 -130 76 -35 15 -63 32 -63 36 0 12 6 11 28 -1 24 -14 185 -80 188
-77 1 1 -9 36 -22 77 -21 67 -31 121 -20 109 2 -2 16 -38 30 -80z m292 44
c-11 -11 -19 6 -11 24 8 17 8 17 12 0 3 -10 2 -21 -1 -24z m-628 -8 c-3 -3 -9
2 -12 12 -6 14 -5 15 5 6 7 -7 10 -15 7 -18z m588 -103 c6 -4 16 -22 22 -41
15 -41 15 -41 1 -41 -5 0 -7 5 -4 10 3 6 1 10 -5 10 -6 0 -9 4 -5 9 3 5 -4 13
-16 16 -17 6 -19 9 -8 16 11 7 11 9 -3 9 -9 0 -20 5 -23 10 -7 12 25 13 41 2z
m164 -52 c0 -5 -4 -10 -9 -10 -6 0 -13 5 -16 10 -3 6 1 10 9 10 9 0 16 -4 16
-10z m-705 -20 c-3 -5 -15 -10 -26 -10 -10 0 -19 5 -19 10 0 6 12 10 26 10 14
0 23 -4 19 -10z m722 -136 c-3 -3 -12 -4 -19 -1 -8 3 -5 6 6 6 11 1 17 -2 13
-5z m-625 -36 c-13 -13 -32 -2 -32 18 0 12 4 13 21 3 14 -7 18 -14 11 -21z
m48 -2 c0 -15 -18 -31 -26 -23 -7 7 7 37 17 37 5 0 9 -6 9 -14z m435 -64 c-8
-9 -35 20 -28 31 4 6 11 3 19 -8 8 -10 12 -21 9 -23z m-386 9 c9 -6 10 -11 2
-15 -13 -8 -31 1 -31 15 0 11 11 11 29 0z m181 -36 c0 -8 -4 -15 -10 -15 -5 0
-10 7 -10 15 0 8 5 15 10 15 6 0 10 -7 10 -15z"/>
<path d="M9035 3100 c3 -5 11 -10 16 -10 6 0 7 5 4 10 -3 6 -11 10 -16 10 -6
0 -7 -4 -4 -10z"/>
<path d="M2434 3295 c-21 -21 -24 -28 -13 -41 28 -34 97 5 73 43 -17 27 -32
26 -60 -2z"/>
<path d="M5228 3303 c6 -2 18 -2 25 0 6 3 1 5 -13 5 -14 0 -19 -2 -12 -5z"/>
<path d="M8479 3193 l-40 -38 47 -90 c64 -126 98 -215 84 -229 -13 -13 -13
-26 0 -26 5 0 14 8 19 19 13 23 -17 103 -88 236 l-50 94 35 30 c47 42 57 40
51 -9 -6 -55 17 -162 52 -236 19 -40 26 -65 19 -72 -6 -6 1 -9 20 -8 l30 1
-20 27 c-49 70 -81 161 -86 251 -6 101 -12 106 -73 50z"/>
<path d="M2077 3204 c-8 -8 1 -24 14 -24 5 0 9 7 9 15 0 15 -12 20 -23 9z"/>
<path d="M9551 2954 c0 -17 -17 -55 -37 -85 -36 -56 -43 -61 -249 -168 l-70
-36 -265 1 -265 2 185 -9 c333 -17 364 -13 480 61 74 48 181 93 250 107 l65
13 -72 -4 -72 -5 25 36 c28 42 38 73 31 100 -3 11 -5 5 -6 -13z"/>
<path d="M8369 2873 c16 -32 36 -76 45 -97 9 -22 19 -37 21 -34 13 12 -68 188
-86 188 -5 0 4 -26 20 -57z"/>
<path d="M8660 2808 c0 -17 54 -68 73 -68 7 0 -1 9 -17 19 -16 11 -35 30 -42
43 -10 17 -13 19 -14 6z"/>
<path d="M8750 2800 c8 -5 20 -10 25 -10 6 0 3 5 -5 10 -8 5 -19 10 -25 10 -5
0 -3 -5 5 -10z"/>
<path d="M8828 2773 c7 -3 16 -2 19 1 4 3 -2 6 -13 5 -11 0 -14 -3 -6 -6z"/>
<path d="M8221 2757 c-1 -24 58 -167 69 -167 5 0 -6 33 -24 73 -19 40 -36 82
-39 93 -4 17 -5 17 -6 1z"/>
<path d="M8709 2715 c42 -19 50 -19 25 0 -10 8 -28 14 -39 14 -14 0 -10 -4 14
-14z"/>
<path d="M8530 2665 c-14 -7 -24 -16 -22 -19 1 -4 -19 -25 -45 -48 -63 -53
-63 -53 -28 -35 26 13 137 118 125 117 -3 -1 -16 -7 -30 -15z"/>
<path d="M9594 2668 c-4 -6 -3 -8 4 -4 6 3 13 -2 15 -11 4 -14 5 -13 6 5 1 23
-13 30 -25 10z"/>
<path d="M9640 2661 c0 -6 4 -13 10 -16 6 -3 7 1 4 9 -7 18 -14 21 -14 7z"/>
<path d="M8098 2625 c-4 -4 2 -30 12 -59 21 -63 59 -137 59 -116 0 25 -64 181
-71 175z"/>
<path d="M8351 2578 l31 -43 -63 -57 c-35 -32 -66 -58 -70 -58 -4 0 -12 14
-19 30 -7 17 -15 29 -17 26 -2 -2 3 -21 11 -41 21 -50 21 -55 -14 -92 -44 -47
-36 -52 10 -5 22 22 40 46 40 55 0 22 123 128 132 114 5 -8 8 -6 8 6 0 21 -56
107 -71 107 -5 0 5 -19 22 -42z"/>
<path d="M8031 2597 c-2 -14 59 -161 85 -207 31 -56 26 -41 -26 80 -56 130
-59 136 -59 127z"/>
<path d="M9797 2582 c3 -7 9 -10 12 -5 3 4 10 11 15 15 4 4 -1 6 -12 5 -12 -1
-18 -6 -15 -15z"/>
<path d="M6405 2574 c22 -16 35 -18 35 -5 0 5 -12 11 -27 14 -26 5 -26 4 -8
-9z"/>
<path d="M6421 2511 c-1 -24 2 -41 6 -38 3 4 15 -5 25 -20 l18 -28 -3 35 c-2
20 -8 34 -15 33 -6 -2 -16 12 -21 30 l-9 32 -1 -44z"/>
<path d="M9875 2500 c3 -5 8 -10 11 -10 2 0 4 5 4 10 0 6 -5 10 -11 10 -5 0
-7 -4 -4 -10z"/>
<path d="M6061 2427 c-2 -45 135 -321 169 -342 6 -4 -6 22 -25 57 -41 70 -110
214 -131 268 -7 20 -13 27 -13 17z"/>
<path d="M9750 2411 c0 -16 38 -51 54 -50 6 0 6 3 -1 6 -7 2 -13 9 -13 14 0 4
8 5 17 2 15 -6 16 -5 3 9 -11 11 -17 12 -22 4 -5 -7 -12 -4 -22 9 -10 13 -15
15 -16 6z"/>
<path d="M6350 2395 c0 -5 5 -17 10 -25 5 -8 10 -10 10 -5 0 6 -5 17 -10 25
-5 8 -10 11 -10 5z"/>
<path d="M9741 2364 c0 -11 3 -14 6 -6 3 7 2 16 -1 19 -3 4 -6 -2 -5 -13z"/>
<path d="M10201 2364 c0 -11 3 -14 6 -6 3 7 2 16 -1 19 -3 4 -6 -2 -5 -13z"/>
<path d="M6043 2325 c0 -27 2 -38 4 -22 2 15 2 37 0 50 -2 12 -4 0 -4 -28z"/>
<path d="M8146 2327 c3 -10 9 -15 12 -12 3 3 0 11 -7 18 -10 9 -11 8 -5 -6z"/>
<path d="M6372 2305 c0 -16 2 -22 5 -12 2 9 2 23 0 30 -3 6 -5 -1 -5 -18z"/>
<path d="M9950 2327 c0 -4 11 -24 24 -44 19 -28 25 -31 23 -15 0 11 -5 18 -9
16 -4 -3 -8 -1 -8 3 0 12 -29 51 -30 40z"/>
<path d="M10092 2300 c0 -19 2 -27 5 -17 2 9 2 25 0 35 -3 9 -5 1 -5 -18z"/>
<path d="M10122 2300 c0 -14 2 -19 5 -12 2 6 2 18 0 25 -3 6 -5 1 -5 -13z"/>
<path d="M5922 2285 c0 -16 2 -22 5 -12 2 9 2 23 0 30 -3 6 -5 -1 -5 -18z"/>
<path d="M9845 2280 c-10 -11 -15 -23 -12 -27 4 -3 7 -1 7 6 0 7 5 9 10 6 6
-3 10 1 10 10 0 10 5 13 12 9 7 -4 8 -3 4 4 -9 16 -10 15 -31 -8z"/>
<path d="M9870 2263 c1 -10 26 -43 33 -43 3 0 0 11 -6 25 -11 23 -27 34 -27
18z"/>
<path d="M6261 2244 c0 -11 3 -14 6 -6 3 7 2 16 -1 19 -3 4 -6 -2 -5 -13z"/>
<path d="M6051 2234 c0 -11 3 -14 6 -6 3 7 2 16 -1 19 -3 4 -6 -2 -5 -13z"/>
<path d="M9845 2240 c-3 -5 -1 -10 4 -10 6 0 11 5 11 10 0 6 -2 10 -4 10 -3 0
-8 -4 -11 -10z"/>
<path d="M10100 2225 c-1 -26 -3 -27 -10 -10 -8 18 -9 18 -9 2 -1 -14 -6 -17
-23 -12 -18 5 -20 4 -8 -4 10 -7 11 -11 3 -11 -7 0 -13 -5 -13 -11 0 -8 4 -9
13 0 8 6 17 8 20 4 4 -3 7 -1 7 6 0 7 5 9 10 6 13 -8 23 18 17 42 -3 11 -5 7
-7 -12z"/>
<path d="M9824 2205 c8 -27 12 -31 17 -17 4 9 2 19 -2 20 -5 2 -9 10 -9 18 0
8 -4 14 -9 14 -4 0 -3 -16 3 -35z"/>
<path d="M5941 2194 c0 -11 3 -14 6 -6 3 7 2 16 -1 19 -3 4 -6 -2 -5 -13z"/>
<path d="M6066 2166 c7 -52 48 -190 91 -311 34 -96 108 -255 118 -255 3 0 -8
26 -24 58 -55 109 -119 287 -175 492 -12 40 -14 44 -10 16z"/>
<path d="M6272 2180 c0 -14 2 -19 5 -12 2 6 2 18 0 25 -3 6 -5 1 -5 -13z"/>
<path d="M9926 2187 c3 -10 9 -15 12 -12 3 3 0 11 -7 18 -10 9 -11 8 -5 -6z"/>
<path d="M6282 2130 c0 -14 2 -19 5 -12 2 6 2 18 0 25 -3 6 -5 1 -5 -13z"/>
<path d="M9931 2136 c-9 -11 -6 -13 15 -13 14 0 22 2 18 6 -5 3 -12 10 -15 14
-3 4 -11 1 -18 -7z"/>
<path d="M9907 2099 c4 -13 8 -18 11 -10 2 7 -1 18 -6 23 -8 8 -9 4 -5 -13z"/>
<path d="M2670 2093 c-8 -3 -46 -20 -85 -38 -38 -18 -79 -35 -90 -40 -13 -5
-15 -9 -7 -12 17 -7 142 43 182 72 32 24 32 30 0 18z"/>
<path d="M5971 2095 c1 -19 18 -51 18 -35 0 8 -4 22 -9 30 -5 8 -9 11 -9 5z"/>
<path d="M6291 2084 c0 -11 3 -14 6 -6 3 7 2 16 -1 19 -3 4 -6 -2 -5 -13z"/>
<path d="M9896 2057 c3 -10 9 -15 12 -12 3 3 0 11 -7 18 -10 9 -11 8 -5 -6z"/>
<path d="M6301 2044 c0 -11 3 -14 6 -6 3 7 2 16 -1 19 -3 4 -6 -2 -5 -13z"/>
<path d="M6312 2005 c0 -21 25 -107 27 -90 0 6 -6 33 -13 60 -8 28 -14 41 -14
30z"/>
<path d="M6000 2005 c0 -5 5 -17 10 -25 5 -8 10 -10 10 -5 0 6 -5 17 -10 25
-5 8 -10 11 -10 5z"/>
<path d="M7791 1985 c0 -11 4 -29 9 -40 l9 -20 0 20 c0 11 -4 29 -9 40 l-9 20
0 -20z"/>
<path d="M8085 1964 c-9 -15 -12 -23 -6 -20 11 7 35 46 28 46 -3 0 -12 -12
-22 -26z"/>
<path d="M6620 1976 c0 -15 71 -202 121 -318 214 -502 722 -1352 963 -1614 56
-61 60 -52 6 11 -285 329 -820 1241 -1003 1710 -30 77 -60 157 -67 178 -10 31
-20 48 -20 33z"/>
<path d="M5681 1920 c23 -51 125 -177 208 -259 115 -113 226 -204 346 -286
131 -89 104 -64 -70 66 -77 57 -192 156 -255 219 -101 100 -140 145 -223 260
l-18 25 12 -25z"/>
<path d="M6866 1933 c-11 -11 -6 -23 9 -23 8 0 15 4 15 9 0 13 -16 22 -24 14z"/>
<path d="M8029 1905 c-13 -20 -34 -38 -46 -41 -14 -4 -23 -14 -23 -25 0 -10
-7 -19 -15 -19 -8 0 -15 -7 -15 -15 0 -8 -9 -15 -21 -15 -11 0 -17 -4 -14 -10
3 -5 -3 -10 -14 -10 -25 0 -28 -25 -5 -34 26 -10 30 -6 9 11 -19 15 -19 15 9
9 23 -6 27 -4 23 8 -4 10 -1 16 8 16 8 0 15 7 15 15 0 9 9 15 21 15 16 0 20 5
16 20 -4 15 0 20 14 20 11 0 24 10 29 23 5 12 17 32 26 45 9 12 14 22 12 22
-3 0 -16 -16 -29 -35z"/>
<path d="M10120 1930 c0 -5 5 -10 11 -10 5 0 7 5 4 10 -3 6 -8 10 -11 10 -2 0
-4 -4 -4 -10z"/>
<path d="M6030 1925 c0 -5 5 -17 10 -25 5 -8 10 -10 10 -5 0 6 -5 17 -10 25
-5 8 -10 11 -10 5z"/>
<path d="M7071 1914 c0 -11 3 -14 6 -6 3 7 2 16 -1 19 -3 4 -6 -2 -5 -13z"/>
<path d="M7681 1894 c0 -11 3 -14 6 -6 3 7 2 16 -1 19 -3 4 -6 -2 -5 -13z"/>
<path d="M10145 1899 c-4 -6 -5 -12 -2 -15 2 -3 7 2 10 11 7 17 1 20 -8 4z"/>
<path d="M6341 1895 c-1 -25 88 -300 95 -293 2 2 -19 71 -46 153 -27 83 -49
146 -49 140z"/>
<path d="M7005 1880 c-3 -6 1 -7 9 -4 18 7 21 14 7 14 -6 0 -13 -4 -16 -10z"/>
<path d="M5820 1866 c0 -2 8 -10 18 -17 15 -13 16 -12 3 4 -13 16 -21 21 -21
13z"/>
<path d="M6971 1821 c-7 -5 -11 -15 -9 -22 3 -10 8 -7 17 9 13 24 12 26 -8 13z"/>
<path d="M5900 1778 c24 -27 45 -48 47 -48 8 0 0 9 -44 50 l-48 45 45 -47z"/>
<path d="M7011 1761 c-1 -24 2 -32 9 -25 7 7 7 19 1 35 -9 23 -10 22 -10 -10z"/>
<path d="M7083 1725 c-6 -7 -8 -18 -2 -26 11 -19 29 1 20 22 -5 13 -8 14 -18
4z"/>
<path d="M7834 1719 c2 -13 8 -35 13 -49 6 -14 29 -86 53 -160 80 -255 103
-325 138 -418 19 -51 37 -91 39 -89 2 3 -5 27 -16 55 -19 47 -113 342 -182
571 -27 92 -51 140 -45 90z"/>
<path d="M7117 1723 c-3 -5 -1 -17 4 -28 7 -17 8 -17 8 8 1 27 -4 34 -12 20z"/>
<path d="M7793 1718 c4 -12 2 -15 -9 -11 -15 6 -19 -14 -6 -34 6 -9 12 -8 23
6 14 16 14 20 1 37 -12 15 -14 16 -9 2z"/>
<path d="M7150 1657 c0 -29 134 -327 315 -702 63 -129 159 -312 233 -440 129
-225 372 -558 372 -510 0 4 -26 39 -59 78 -88 108 -258 365 -346 521 -120 213
-490 983 -498 1035 -4 26 -17 40 -17 18z"/>
<path d="M7600 1650 c0 -5 5 -10 11 -10 5 0 7 5 4 10 -3 6 -8 10 -11 10 -2 0
-4 -4 -4 -10z"/>
<path d="M7640 1656 c0 -2 8 -10 18 -17 15 -13 16 -12 3 4 -13 16 -21 21 -21
13z"/>
<path d="M3910 1642 c0 -35 181 -237 205 -229 5 3 18 0 28 -5 9 -5 17 -7 17
-4 0 2 -25 18 -54 35 -54 30 -140 122 -171 182 -15 28 -25 37 -25 21z"/>
<path d="M7230 1635 c0 -11 35 -45 46 -45 7 0 15 -6 17 -12 4 -10 6 -9 6 1 1
10 4 11 14 2 11 -8 13 -4 9 20 -3 22 -7 27 -13 18 -12 -19 -31 -18 -50 3 -16
17 -29 23 -29 13z"/>
<path d="M7550 1631 c0 -10 30 -24 37 -17 3 2 -5 9 -16 16 -12 6 -21 7 -21 1z"/>
<path d="M7506 1619 c4 -8 0 -9 -15 -4 -13 4 -21 2 -21 -5 0 -8 10 -10 25 -8
14 3 28 1 31 -4 3 -4 10 -6 15 -2 6 3 3 12 -8 20 -22 16 -37 18 -27 3z"/>
<path d="M7683 1595 c0 -22 2 -30 4 -17 2 12 2 30 0 40 -3 9 -5 -1 -4 -23z"/>
<path d="M6165 1560 c33 -33 62 -60 64 -60 3 0 -21 27 -54 60 -33 33 -62 60
-64 60 -3 0 21 -27 54 -60z"/>
<path d="M7340 1615 c0 -5 5 -17 10 -25 5 -8 10 -10 10 -5 0 6 -5 17 -10 25
-5 8 -10 11 -10 5z"/>
<path d="M7442 1601 c13 -22 28 -28 28 -11 0 5 -9 14 -20 20 -19 10 -20 10 -8
-9z"/>
<path d="M7400 1590 c0 -6 7 -10 15 -10 8 0 15 2 15 4 0 2 -7 6 -15 10 -8 3
-15 1 -15 -4z"/>
<path d="M7523 1525 c0 -33 2 -45 4 -27 2 18 2 45 0 60 -2 15 -4 0 -4 -33z"/>
<path d="M7693 1475 c0 -22 2 -30 4 -17 2 12 2 30 0 40 -3 9 -5 -1 -4 -23z"/>
<path d="M7532 1430 c0 -19 2 -27 5 -17 2 9 2 25 0 35 -3 9 -5 1 -5 -18z"/>
<path d="M7703 1395 c0 -22 2 -30 4 -17 2 12 2 30 0 40 -3 9 -5 -1 -4 -23z"/>
<path d="M5735 1390 c173 -67 465 -220 638 -334 15 -10 27 -16 27 -13 0 11
-154 109 -275 175 -134 73 -387 186 -440 197 -16 3 6 -8 50 -25z"/>
<path d="M7542 1370 c0 -14 2 -19 5 -12 2 6 2 18 0 25 -3 6 -5 1 -5 -13z"/>
<path d="M4250 1358 c13 -14 90 -47 90 -39 0 5 -12 14 -27 19 -16 5 -37 13
-48 18 -11 4 -18 5 -15 2z"/>
<path d="M7711 1333 c-2 -41 40 -237 71 -333 32 -98 73 -200 82 -200 3 0 -6
24 -19 54 -38 87 -86 249 -110 380 -13 66 -24 111 -24 99z"/>
<path d="M4728 1303 c7 -3 16 -2 19 1 4 3 -2 6 -13 5 -11 0 -14 -3 -6 -6z"/>
<path d="M4365 1250 c-8 -16 -15 -36 -15 -45 0 -24 -24 -28 -65 -10 -21 8 -40
14 -42 11 -4 -4 89 -41 127 -51 23 -5 23 -5 5 6 -11 7 -21 13 -23 14 -2 1 6
26 17 54 21 57 20 67 -4 21z"/>
<path d="M7561 1254 c0 -11 3 -14 6 -6 3 7 2 16 -1 19 -3 4 -6 -2 -5 -13z"/>
<path d="M4531 1224 c0 -11 3 -14 6 -6 3 7 2 16 -1 19 -3 4 -6 -2 -5 -13z"/>
<path d="M5518 1223 c6 -2 18 -2 25 0 6 3 1 5 -13 5 -14 0 -19 -2 -12 -5z"/>
<path d="M7571 1214 c0 -11 3 -14 6 -6 3 7 2 16 -1 19 -3 4 -6 -2 -5 -13z"/>
<path d="M5568 1213 c7 -3 16 -2 19 1 4 3 -2 6 -13 5 -11 0 -14 -3 -6 -6z"/>
<path d="M3506 1048 c-213 -408 -484 -1049 -442 -1048 6 1 30 60 54 133 23 73
79 215 123 317 45 102 87 199 94 215 7 17 69 146 139 288 69 141 123 257 121
257 -2 0 -42 -73 -89 -162z"/>
<path d="M5608 1203 c7 -3 16 -2 19 1 4 3 -2 6 -13 5 -11 0 -14 -3 -6 -6z"/>
<path d="M4520 1186 c0 -8 -3 -23 -6 -33 -5 -15 -3 -15 7 2 7 11 16 23 21 26
6 3 3 9 -6 12 -10 4 -16 1 -16 -7z"/>
<path d="M5655 1190 c11 -5 27 -9 35 -9 9 0 8 4 -5 9 -11 5 -27 9 -35 9 -9 0
-8 -4 5 -9z"/>
<path d="M7586 1160 c4 -19 11 -44 15 -55 6 -14 7 -9 3 15 -4 19 -11 44 -15
55 -6 14 -7 9 -3 -15z"/>
<path d="M5885 1116 c99 -35 189 -66 200 -70 19 -7 19 -7 1 4 -10 7 -73 32
-139 55 -67 23 -115 45 -107 47 8 3 5 3 -7 2 -12 -2 -23 0 -25 4 -2 5 -25 12
-53 15 -36 4 -1 -11 130 -57z"/>
<path d="M4710 1118 c0 -12 7 -18 23 -17 15 0 17 2 7 6 -8 3 -18 11 -22 17 -5
7 -8 4 -8 -6z"/>
<path d="M8343 950 c0 -47 2 -66 4 -42 2 23 2 61 0 85 -2 23 -4 4 -4 -43z"/>
<path d="M8080 985 c0 -5 5 -17 10 -25 5 -8 10 -10 10 -5 0 6 -5 17 -10 25 -5
8 -10 11 -10 5z"/>
<path d="M8352 830 c0 -19 2 -27 5 -17 2 9 2 25 0 35 -3 9 -5 1 -5 -18z"/>
<path d="M8362 755 c0 -16 2 -22 5 -12 2 9 2 23 0 30 -3 6 -5 -1 -5 -18z"/>
<path d="M8372 685 c0 -16 2 -22 5 -12 2 9 2 23 0 30 -3 6 -5 -1 -5 -18z"/>
<path d="M879 647 c-21 -42 -14 -57 26 -57 69 0 83 23 40 65 -32 33 -47 31
-66 -8z"/>
<path d="M542 615 c0 -40 17 -54 54 -47 22 4 25 9 22 41 -3 34 -5 36 -39 39
-36 3 -37 2 -37 -33z"/>
<path d="M8382 620 c0 -14 2 -19 5 -12 2 6 2 18 0 25 -3 6 -5 1 -5 -13z"/>
<path d="M8391 554 c0 -11 3 -14 6 -6 3 7 2 16 -1 19 -3 4 -6 -2 -5 -13z"/>
<path d="M8402 500 c0 -14 2 -19 5 -12 2 6 2 18 0 25 -3 6 -5 1 -5 -13z"/>
<path d="M3396 445 c-9 -26 -7 -32 5 -12 6 10 9 21 6 23 -2 3 -7 -2 -11 -11z"/>
<path d="M3380 404 c0 -5 -29 -98 -64 -206 -35 -109 -61 -198 -57 -198 10 0
134 401 127 408 -3 3 -6 1 -6 -4z"/>
<path d="M8451 229 c0 -13 4 -33 9 -44 7 -14 8 -8 3 20 -7 46 -13 59 -12 24z"/>
<path d="M8472 145 c0 -11 3 -29 8 -40 11 -25 11 1 0 35 -6 20 -8 21 -8 5z"/>
<path d="M1214 65 l9 -65 34 0 c18 0 33 2 33 5 0 12 -53 111 -64 117 -21 14
-22 8 -12 -57z"/>
<path d="M620 83 c0 -33 124 -82 159 -64 18 10 19 13 6 39 -10 19 -23 27 -42
28 -16 1 -49 5 -75 9 -44 7 -48 6 -48 -12z"/>
</g>
</svg>
