<svg width="500" height="500" viewBox="0 0 500 500" fill="none" xmlns="http://www.w3.org/2000/svg">
<g>
<path d="M0 0H500V500H0V0Z" fill="rgb(0 0 0 / 15%)"/>
<path d="M298.509 168.665C305.825 161.112 317.647 161.112 324.963 168.665L390.513 236.343C397.829 243.897 397.829 256.103 390.513 263.657L324.963 331.335C317.647 338.888 305.825 338.888 298.509 331.335C291.193 323.782 291.193 311.575 298.509 304.022L332.045 269.337H208.729C198.369 269.337 190 260.696 190 250C190 239.304 198.369 230.663 208.729 230.663H332.045L298.509 195.978C291.193 188.425 291.193 176.218 298.509 168.665Z" fill="white"/>
<path opacity="0.4" d="M242.667 137.5C184.763 137.5 138.667 187.363 138.667 250C138.667 312.109 184.763 362.5 242.667 362.5C252.254 362.5 260 370.879 260 381.25C260 391.621 252.254 400 242.667 400C166.075 400 104 332.852 104 250C104 167.148 166.075 100 242.667 100C252.254 100 260 108.396 260 118.75C260 129.104 252.254 137.5 242.667 137.5Z" fill="white"/>
</g>
</svg>
