<?xml version="1.0" encoding="UTF-8"?> <svg xmlns="http://www.w3.org/2000/svg" width="1276" height="795" viewBox="0 0 1276 795" fill="none"><path d="M872.633 59.5205L568.125 59.3125L785.17 276.67C791.202 282.494 798.066 287.278 805.866 290.606C850.898 309.533 908.617 274.278 934.72 211.879C960.824 149.479 945.536 83.5442 900.505 64.6165C891.561 60.8725 882.201 59.3125 872.633 59.6245V59.5205Z" fill="#0B2D0E" fill-opacity="0.25"></path><path d="M540.13 392.653L539.922 88.1445L757.279 305.19H757.175C763.103 311.222 767.887 318.086 771.215 325.99C790.143 371.021 754.887 428.74 692.488 454.844C630.089 480.948 564.154 465.66 545.226 420.628C541.482 411.685 539.922 402.325 540.234 392.757L540.13 392.653Z" fill="#0B2D0E" fill-opacity="0.25"></path><path d="M285.144 301.945L500.317 86.3555L500.629 393.464H500.525C500.525 401.784 498.965 410.103 495.741 418.007C477.229 463.247 411.502 479.055 348.895 453.471C286.287 427.783 250.512 370.376 268.92 325.136C272.56 316.193 278.176 308.497 285.04 301.945H285.144Z" fill="#0B2D0E" fill-opacity="0.25"></path><path d="M782.558 -195.47L566.969 19.7036L874.077 20.0156C882.501 19.8076 890.717 18.3516 898.621 15.1276C943.86 -3.38414 959.668 -69.1113 934.084 -131.719C908.397 -194.326 850.989 -230.101 805.75 -211.694C796.806 -208.054 789.11 -202.438 782.558 -195.574V-195.47Z" fill="#0B2D0E" fill-opacity="0.25"></path><path d="M1070.49 -479.067L1068.73 -481.043L918.448 -330.765C1014.13 -227.598 1065.61 -93.1278 1063.21 47.8945C1060.82 189.541 1004.35 322.763 904.096 423.018C801.449 525.665 665.003 582.24 519.821 582.24C382.23 582.24 251.088 530.76 150.313 437.37L0.0351562 587.648L2.01114 589.416C142.721 721.702 326.591 794.605 519.925 794.605C713.258 794.605 911.584 715.982 1054.37 573.192C1194.25 433.314 1272.88 247.26 1275.68 49.5584C1278.49 -147.727 1205.59 -335.549 1070.6 -479.067H1070.49Z" fill="#0B2D0E" fill-opacity="0.25"></path></svg> 