<?xml version="1.0" encoding="UTF-8"?> <svg xmlns="http://www.w3.org/2000/svg" width="448" height="110" viewBox="0 0 448 110" fill="none"><path d="M123.642 88.8804H107.529V13.3799H162.183V27.6908H123.642V46.4H155.757V60.7109H123.642V88.8804ZM183.832 88.8804H167.719V33.6646H183.832V51.0171C185.634 41.7756 191.046 32.534 201.637 32.534C209.748 32.534 214.255 37.7201 214.255 46.3927C214.255 52.3665 212.454 57.1003 211.097 59.2375H195.546C197.574 57.2097 199.492 53.2637 199.492 50.1126C199.492 46.9616 198.026 44.5911 194.532 44.5911C189.011 44.5911 183.825 50.5649 183.825 59.6897V88.8731L183.832 88.8804ZM246.634 90.0037C229.055 90.0037 218.347 78.2822 218.347 61.2652C218.347 44.2482 229.055 32.5267 245.284 32.5267C262.863 32.5267 271.652 44.2482 271.652 58.6685C271.652 61.0318 271.426 64.1901 271.091 65.4301H233.453C234.467 73.2056 239.653 76.9255 246.867 76.9255C254.642 76.9255 258.815 73.5411 260.842 68.8145L270.646 78.6177C266.473 84.5915 259.041 89.9964 246.641 89.9964L246.634 90.0037ZM245.394 44.9266C238.515 44.9266 234.234 48.756 233.446 56.1959H257.115C256.553 48.8727 252.607 44.9266 245.394 44.9266ZM304.38 90.0037C292.097 90.0037 281.164 85.496 276.43 78.8438L283.87 67.9101C288.494 72.87 296.488 77.7133 304.833 77.7133C309.231 77.7133 311.82 76.3639 311.82 73.4317C311.82 70.4995 308.662 69.3762 302.805 67.9101L295.365 66.1085C285.445 63.5191 278.239 59.573 278.239 49.8792C278.239 39.0622 287.028 32.6361 300.551 32.6361C312.499 32.6361 321.171 37.8222 325.008 42.6654L317.794 53.4825C312.382 47.8515 305.62 44.8026 299.202 44.8026C295.256 44.8026 292.892 46.2687 292.892 48.9748C292.892 51.907 295.256 53.0303 302.586 55.058L308.786 56.7502C320.96 60.0179 326.255 64.7518 326.255 73.2056C326.255 83.9132 317.24 89.9964 304.395 89.9964L304.38 90.0037ZM349.166 88.8804H333.053V13.3799H349.166V49.6677C350.968 40.6523 356.263 32.5413 367.649 32.5413C378.13 32.5413 384.549 38.9674 384.549 50.3461V88.8877H368.437V55.9843C368.437 49.2228 366.635 45.0506 359.312 45.0506C351.989 45.0506 349.166 49.3322 349.166 58.3476V88.8877V88.8804ZM406.643 109.165C398.306 109.165 391.201 105.562 387.372 101.616L393.798 88.0927C397.292 92.1482 401.347 94.971 406.191 94.971C410.472 94.971 412.952 93.5049 414.754 88.2094L415.884 85.2772H406.081L388.16 33.6646H405.965L413.857 59.697L417.912 78.1801L422.084 59.697L429.86 33.6646H448L428.168 92.2649C423.886 104.548 417.008 109.165 406.643 109.165Z" fill="white"></path><path d="M61.2034 38.0268L39.8464 38.0122L55.0691 53.2567C55.4921 53.6652 55.9735 54.0007 56.5206 54.2341C59.6789 55.5617 63.7271 53.089 65.5579 48.7126C67.3887 44.3361 66.3165 39.7117 63.1582 38.3842C62.5309 38.1216 61.8744 38.0122 61.2034 38.0341V38.0268Z" fill="#BFEF1E"></path><path d="M37.8799 61.3916L37.8654 40.0347L53.1099 55.2573H53.1026C53.5184 55.6804 53.8539 56.1618 54.0873 56.7161C55.4148 59.8744 52.9421 63.9226 48.5657 65.7534C44.1893 67.5842 39.5649 66.512 38.2374 63.3537C37.9748 62.7264 37.8654 62.0699 37.8872 61.3989L37.8799 61.3916Z" fill="#BFEF1E"></path><path d="M19.9976 55.0282L35.089 39.9077L35.1109 61.447H35.1036C35.1036 62.0305 34.9942 62.614 34.7681 63.1684C33.4697 66.3413 28.8599 67.45 24.4689 65.6557C20.0779 63.854 17.5687 59.8277 18.8598 56.6548C19.1151 56.0275 19.5089 55.4878 19.9903 55.0282H19.9976Z" fill="#BFEF1E"></path><path d="M54.8848 20.141L39.7643 35.2323L61.3036 35.2542C61.8944 35.2396 62.4706 35.1375 63.025 34.9114C66.1979 33.613 67.3066 29.0032 65.5122 24.6122C63.7106 20.2212 59.6843 17.712 56.5114 19.0031C55.8841 19.2584 55.3443 19.6523 54.8848 20.1337V20.141Z" fill="#BFEF1E"></path><path d="M75.0775 0.250891L74.9535 0.112305L64.4136 10.6522C71.1241 17.8879 74.7347 27.3191 74.5669 37.2098C74.3992 47.1442 70.4385 56.4879 63.4071 63.5193C56.2078 70.7186 46.6381 74.6865 36.4556 74.6865C26.8056 74.6865 17.6078 71.076 10.5399 64.5259L0 75.0658L0.138587 75.1898C10.0074 84.4678 22.9033 89.5809 36.4629 89.5809C50.0225 89.5809 63.9322 84.0666 73.9469 74.0519C83.7574 64.2415 89.2717 51.1924 89.4686 37.3265C89.6656 23.4897 84.5525 10.3167 75.0848 0.250891H75.0775Z" fill="white"></path></svg> 