<svg width="998" height="232" viewBox="0 0 998 232" fill="none" xmlns="http://www.w3.org/2000/svg">
<g clip-path="url(#clip0_1_562)">
<path d="M283.756 186.401H248.286V20.2312H368.576V51.7312H283.756V92.9012H354.436V124.401H283.756V186.401ZM416.216 186.401H380.746V64.8712H416.216V103.061C420.186 82.7212 432.086 62.3912 455.406 62.3912C473.266 62.3912 483.186 73.8012 483.186 92.9012C483.186 106.041 479.216 116.461 476.246 121.171H442.016C446.476 116.711 450.696 108.031 450.696 101.081C450.696 94.1312 447.476 88.9312 439.786 88.9312C427.636 88.9312 416.226 102.071 416.226 122.161V186.401H416.216ZM554.436 188.881C515.746 188.881 492.186 163.091 492.186 125.641C492.186 88.1912 515.746 62.4012 551.466 62.4012C590.156 62.4012 609.506 88.1912 609.506 119.941C609.506 125.151 609.006 132.091 608.266 134.821H525.426C527.656 151.931 539.066 160.121 554.936 160.121C572.046 160.121 581.226 152.681 585.686 142.261L607.266 163.841C598.086 176.991 581.726 188.891 554.436 188.891V188.881ZM551.716 89.6712C536.586 89.6712 527.166 98.1012 525.426 114.471H577.506C576.266 98.3512 567.586 89.6712 551.716 89.6712ZM681.536 188.881C654.506 188.881 630.446 178.961 620.026 164.331L636.396 140.271C646.566 151.181 664.176 161.851 682.526 161.851C692.196 161.851 697.906 158.871 697.906 152.431C697.906 145.991 690.966 143.501 678.066 140.281L661.696 136.311C639.866 130.611 623.996 121.931 623.996 100.601C623.996 76.7912 643.346 62.6512 673.106 62.6512C699.396 62.6512 718.496 74.0612 726.926 84.7212L711.056 108.531C699.156 96.1312 684.266 89.4312 670.136 89.4312C661.456 89.4312 656.246 92.6512 656.246 98.6112C656.246 105.061 661.456 107.541 677.576 112.001L691.216 115.721C718.006 122.911 729.656 133.331 729.656 151.931C729.656 175.491 709.816 188.891 681.546 188.891L681.536 188.881ZM780.096 186.401H744.626V20.2312H780.096V100.091C784.066 80.2512 795.726 62.3912 820.766 62.3912C843.826 62.3912 857.966 76.5312 857.966 101.581V186.401H822.496V113.981C822.496 99.1012 818.526 89.9212 802.406 89.9212C786.286 89.9212 780.086 99.3412 780.086 119.191V186.401H780.096ZM906.586 231.041C888.236 231.041 872.606 223.101 864.176 214.421L878.316 184.661C886.006 193.591 894.936 199.791 905.596 199.791C915.016 199.791 920.476 196.561 924.446 184.911L926.926 178.461H905.346L865.916 64.8712H905.096L922.456 122.161L931.386 162.831L940.566 122.161L957.676 64.8712H997.606L953.956 193.841C944.536 220.871 929.406 231.041 906.586 231.041Z" fill="#10512A"/>
<path d="M146.806 89.1511L94.966 89.1111L131.906 126.111V126.091C132.936 127.091 134.106 127.911 135.446 128.471C143.116 131.691 152.936 125.691 157.386 115.071C161.836 104.451 159.226 93.2311 151.556 90.0111C150.036 89.3711 148.436 89.1111 146.816 89.1611L146.806 89.1511Z" fill="#BFEF1E"/>
<path d="M89.926 151.631C93.146 159.301 104.366 161.901 114.986 157.461C125.606 153.011 131.606 143.191 128.386 135.521C127.826 134.181 127.006 133.011 126.006 131.991H126.026L89.026 95.051L89.066 146.891C89.016 148.521 89.276 150.121 89.916 151.631H89.926Z" fill="#BFEF1E"/>
<path d="M54.876 157.531C65.536 161.891 76.726 159.191 79.866 151.491C80.416 150.151 80.666 148.741 80.676 147.311H80.696L80.646 95.041L44.026 131.731C42.846 132.851 41.896 134.161 41.276 135.691C38.136 143.391 44.226 153.171 54.886 157.531H54.876Z" fill="#BFEF1E"/>
<path d="M147.236 80.7611C148.666 80.7511 150.076 80.5011 151.416 79.9511C159.116 76.8111 161.816 65.6211 157.456 54.9611C153.096 44.3011 143.316 38.2111 135.616 41.3511C134.096 41.9711 132.776 42.9211 131.656 44.1011L94.966 80.7211L147.246 80.7711V80.7511L147.236 80.7611Z" fill="#BFEF1E"/>
<path d="M152.986 22.7011C168.946 40.1611 177.526 62.7811 177.126 86.5011C176.726 110.551 167.126 133.171 150.106 150.191C132.676 167.621 109.506 177.221 84.856 177.221C61.716 177.221 39.656 168.641 22.616 153.071L0.286011 175.401C23.296 196.921 53.316 208.771 84.866 208.771C117.936 208.771 149.036 195.891 172.416 172.501C195.336 149.581 208.216 119.111 208.666 86.7111C209.126 54.5011 197.276 23.8511 175.306 0.371094L152.976 22.7011H152.986Z" fill="#10512A"/>
</g>
<defs>
<clipPath id="clip0_1_562">
<rect width="997.33" height="230.67" fill="white" transform="translate(0.286011 0.371094)"/>
</clipPath>
</defs>
</svg>
