<svg width="31" height="31" viewBox="0 0 31 31" fill="none" xmlns="http://www.w3.org/2000/svg">
<path d="M21.5661 13.74L14.1035 13.7343L19.4212 19.0605V19.0577C19.5694 19.2016 19.7379 19.3197 19.9308 19.4003C21.0349 19.8638 22.4485 19.0001 23.0891 17.4713C23.7297 15.9425 23.354 14.3273 22.2499 13.8638C22.0311 13.7717 21.8007 13.7343 21.5675 13.7415L21.5661 13.74Z" fill="#10512A"/>
<path d="M13.3757 22.7323C13.8392 23.8364 15.4543 24.2107 16.9831 23.5716C18.5119 22.931 19.3757 21.5173 18.9121 20.4132C18.8315 20.2203 18.7135 20.0519 18.5695 19.9051H18.5724L13.2461 14.5874L13.2519 22.05C13.2447 22.2846 13.2821 22.5149 13.3742 22.7323H13.3757Z" fill="#10512A"/>
<path d="M8.32859 23.5831C9.86314 24.2107 11.474 23.822 11.926 22.7136C12.0052 22.5207 12.0412 22.3177 12.0426 22.1119H12.0455L12.0383 14.5874L6.76669 19.8691C6.59683 20.0303 6.46007 20.2189 6.37082 20.4391C5.9188 21.5476 6.79548 22.9554 8.33003 23.5831H8.32859Z" fill="#10512A"/>
<path d="M21.628 12.5299C21.8338 12.5284 22.0368 12.4925 22.2297 12.4133C23.3382 11.9613 23.7268 10.3504 23.0992 8.81587C22.4716 7.28132 21.0637 6.40464 19.9552 6.85666C19.7364 6.94591 19.5464 7.08267 19.3852 7.25253L14.1035 12.5241L21.6294 12.5313V12.5284L21.628 12.5299Z" fill="#10512A"/>
<path d="M22.4544 4.17152C24.7519 6.68496 25.9871 9.9412 25.9295 13.3558C25.8719 16.8179 24.4899 20.0741 22.0398 22.5242C19.5307 25.0333 16.1953 26.4153 12.6468 26.4153C9.31575 26.4153 6.14012 25.1802 3.68715 22.9388L0.472656 26.1533C3.78504 29.2512 8.10653 30.957 12.6483 30.957C17.4088 30.957 21.8858 29.1029 25.2514 25.7358C28.5509 22.4364 30.405 18.0501 30.4698 13.386C30.536 8.74926 28.8301 4.33707 25.6675 0.957031L22.453 4.17152H22.4544Z" fill="#10512A"/>
</svg>
