<svg width="302" height="224" viewBox="0 0 302 224" fill="none" xmlns="http://www.w3.org/2000/svg">
<g filter="url(#filter0_d_1284_12787)">
<path d="M173.777 108.085C166.058 152.101 124.119 181.525 80.1034 173.806C36.0879 166.088 6.66354 124.149 14.3823 80.1332C22.1011 36.1177 64.04 6.69334 108.056 14.4121C152.071 22.1309 181.495 64.0698 173.777 108.085Z" fill="#FFFBF3"/>
</g>
<path d="M75.7504 64.6015L70.9462 63.759L74.8935 41.2496L79.6978 42.0921L77.8007 52.91C78.8096 50.3166 80.8128 48.1746 84.206 48.7697C87.3304 49.3176 88.9096 51.5684 88.3145 54.9616L86.2996 66.4515L81.4954 65.609L83.2157 55.7989C83.5692 53.7831 83.2497 52.4458 81.0659 52.0628C78.7814 51.6622 77.8184 52.8093 77.347 55.4969L75.7504 64.6015ZM97.6144 49.4588L92.8101 48.6163L93.5289 44.5176L98.3331 45.3601L97.6144 49.4588ZM94.3858 67.8695L89.5815 67.027L92.4684 50.5649L97.2727 51.4074L94.3858 67.8695Z" fill="#E75719"/>
<path d="M70.3958 95.1356L65.5916 94.2931L69.5389 71.7836L74.3432 72.6261L72.4461 83.4441C73.455 80.8507 75.4582 78.7087 78.8514 79.3037C81.9758 79.8516 83.555 82.1024 82.9599 85.4956L80.945 96.9855L76.1408 96.143L77.8611 86.3329C78.2146 84.3172 77.8951 82.9798 75.7113 82.5969C73.4268 82.1963 72.4638 83.3433 71.9924 86.031L70.3958 95.1356ZM91.7959 99.2347C86.5549 98.3156 83.976 94.2619 84.8656 89.1889C85.7553 84.1159 89.5596 81.1816 94.3975 82.0299C99.6385 82.949 101.646 86.9026 100.892 91.2029C100.768 91.9084 100.536 92.8373 100.371 93.1892L89.1495 91.2214C89.0454 93.5926 90.3964 94.9722 92.5465 95.3493C94.8647 95.7558 96.2845 94.9659 97.1367 93.6609L99.5469 97.0964C97.9916 98.659 95.4915 99.8827 91.7959 99.2347ZM93.783 85.7314C91.7336 85.372 90.2567 86.2904 89.6326 88.4665L96.6878 89.7037C96.9028 87.4905 95.9332 86.1085 93.783 85.7314ZM106.945 101.545L102.141 100.702L106.088 78.193L110.892 79.0355L106.945 101.545ZM115.147 102.983L110.343 102.141L114.29 79.6314L119.094 80.4739L115.147 102.983ZM125.877 105.211C120.871 104.333 118.265 100.24 119.148 95.2009C120.026 90.195 123.876 87.1994 128.882 88.0773C134.022 88.9787 136.656 93.1114 135.779 98.1172C134.895 103.157 131.017 106.113 125.877 105.211ZM126.628 101.326C128.677 101.685 130.318 100.623 130.907 97.2629C131.502 93.8697 130.315 92.3456 128.266 91.9862C126.25 91.6327 124.615 92.6619 124.02 96.0551C123.431 99.4148 124.612 100.972 126.628 101.326Z" fill="#A675F7"/>
<path d="M65.0412 125.67L60.237 124.827L64.1843 102.318L68.9886 103.16L67.0915 113.978C68.1004 111.385 70.1036 109.243 73.4968 109.838C76.6212 110.386 78.2004 112.636 77.6053 116.03L75.5904 127.52L70.7862 126.677L72.5065 116.867C72.86 114.851 72.5405 113.514 70.3567 113.131C68.0722 112.73 67.1092 113.877 66.6378 116.565L65.0412 125.67ZM86.4413 129.769C81.2003 128.85 78.6214 124.796 79.511 119.723C80.4007 114.65 84.205 111.716 89.0429 112.564C94.2839 113.483 96.2916 117.437 95.5375 121.737C95.4138 122.442 95.1816 123.371 95.016 123.723L83.7949 121.755C83.6908 124.127 85.0418 125.506 87.1919 125.883C89.5101 126.29 90.9299 125.5 91.7821 124.195L94.1923 127.63C92.637 129.193 90.1369 130.417 86.4413 129.769ZM88.4284 116.265C86.379 115.906 84.9021 116.824 84.278 119.001L91.3332 120.238C91.5482 118.025 90.5785 116.643 88.4284 116.265ZM99.3992 137.928C96.9131 137.492 94.9851 136.046 94.049 134.67L96.671 130.974C97.5004 132.366 98.5625 133.418 100.007 133.671C101.284 133.895 102.1 133.588 102.914 132.103L103.403 131.289L100.48 130.776L97.8368 114.452L103.145 115.383L104.136 123.556L104.379 129.278L106.588 123.987L110.267 116.632L115.676 117.581L106.7 134.014C104.781 137.452 102.49 138.47 99.3992 137.928Z" fill="#BFEF1E"/>
<g filter="url(#filter1_d_1284_12787)">
<path d="M277.364 135.022C278.256 168.312 251.993 196.021 218.704 196.913C185.414 197.806 157.704 171.542 156.812 138.253C155.92 104.964 182.183 77.2539 215.473 76.3617C248.762 75.4695 276.472 101.733 277.364 135.022Z" fill="#10512A"/>
</g>
<path d="M185.525 126.086L182.542 126.692L179.662 112.51L189.775 110.455L190.321 113.144L183.19 114.592L183.904 118.106L189.846 116.899L190.392 119.588L184.45 120.795L185.525 126.086ZM196.661 123.824L193.679 124.43L191.572 114.057L194.555 113.452L195.217 116.711C195.198 114.907 195.846 112.969 197.807 112.571C199.308 112.266 200.34 113.07 200.671 114.7C200.899 115.822 200.746 116.779 200.578 117.232L197.7 117.816C197.997 117.359 198.202 116.546 198.081 115.953C197.961 115.36 197.6 114.971 196.953 115.103C195.932 115.31 195.2 116.626 195.549 118.341L196.662 123.824L196.661 123.824ZM208.326 121.675C205.073 122.336 202.645 120.537 201.995 117.341C201.346 114.145 202.88 111.541 205.883 110.931C209.136 110.27 211.21 112.141 211.761 114.851C211.851 115.295 211.929 115.896 211.914 116.142L204.949 117.557C205.433 118.979 206.535 119.483 207.869 119.212C209.308 118.92 209.95 118.128 210.145 117.163L212.333 118.636C211.789 119.915 210.62 121.21 208.326 121.676L208.326 121.675ZM206.377 113.254C205.105 113.513 204.459 114.393 204.597 115.82L208.975 114.93C208.592 113.576 207.711 112.983 206.377 113.254ZM219.012 119.505C216.739 119.966 214.544 119.53 213.415 118.46L214.374 116.127C215.418 116.884 217.084 117.494 218.626 117.181C219.439 117.016 219.868 116.664 219.756 116.114C219.645 115.564 219.018 115.47 217.878 115.416L216.432 115.357C214.498 115.243 213.013 114.773 212.644 112.953C212.231 110.921 213.613 109.383 216.115 108.875C218.325 108.426 220.129 109.074 221.022 109.84L220.101 112.143C218.885 111.288 217.517 110.97 216.329 111.211C215.599 111.36 215.217 111.723 215.321 112.232C215.432 112.783 215.913 112.905 217.346 113.011L218.557 113.095C220.934 113.251 222.095 113.942 222.417 115.529C222.825 117.54 221.39 119.022 219.013 119.505L219.012 119.505ZM227.255 117.61L224.273 118.215L221.393 104.033L224.375 103.427L225.759 110.243C225.749 108.482 226.42 106.759 228.525 106.331C230.464 105.937 231.898 106.903 232.332 109.041L233.803 116.28L230.82 116.886L229.565 110.705C229.307 109.435 228.814 108.719 227.459 108.994C226.103 109.27 225.745 110.179 226.089 111.874L227.255 117.61L227.255 117.61ZM238.664 119.259C237.121 119.573 235.67 119.162 234.81 118.565L235.483 115.784C236.285 116.415 237.143 116.791 238.039 116.609C238.831 116.448 239.234 116.079 239.366 115.017L239.463 114.424L237.648 114.793L232.364 105.772L235.658 105.103L238.111 109.696L239.567 113.014L239.634 109.386L240.079 104.205L243.436 103.523L242.002 115.276C241.679 117.743 240.583 118.87 238.664 119.259Z" fill="white"/>
<path d="M237.635 151.646L220.822 140.491L224.737 160.618L224.741 160.611C224.857 161.162 225.058 161.684 225.37 162.156C227.157 164.865 231.652 164.999 235.413 162.458C239.174 159.916 240.775 155.659 238.989 152.95C238.635 152.413 238.172 151.983 237.636 151.651L237.635 151.646Z" fill="#BFEF1E"/>
<path d="M205.551 159.994C204.922 163.212 207.996 166.48 212.41 167.3C216.827 168.117 220.916 166.172 221.545 162.953C221.656 162.391 221.645 161.83 221.543 161.279L221.549 161.283L217.603 141.164L206.306 158.248C205.934 158.774 205.669 159.357 205.547 159.992L205.551 159.994Z" fill="#BFEF1E"/>
<path d="M192.888 154.405C195.396 158.132 199.616 159.648 202.315 157.787C202.785 157.463 203.174 157.053 203.489 156.584L203.496 156.588L214.883 139.36L194.996 143.575C194.369 143.69 193.775 143.918 193.24 144.288C190.541 146.15 190.383 150.68 192.891 154.407L192.888 154.405Z" fill="#BFEF1E"/>
<path d="M239.607 148.983C240.073 149.287 240.585 149.508 241.14 149.615C244.324 150.235 247.641 147.13 248.552 142.681C249.463 138.233 247.618 134.125 244.434 133.504C243.806 133.382 243.17 133.411 242.55 133.559L222.655 137.736L239.608 148.988L239.612 148.982L239.607 148.983Z" fill="#BFEF1E"/>
<path d="M254.142 131.078C255.512 140.259 253.361 149.554 248.056 157.281C242.68 165.117 234.63 170.504 225.394 172.452C215.935 174.447 206.323 172.63 198.324 167.332C190.815 162.359 185.529 154.792 183.397 146.001L171.279 148.557C174.051 160.591 181.207 170.946 191.444 177.726C202.175 184.834 215.076 187.275 227.766 184.596C240.203 181.972 251.03 174.704 258.245 164.128C265.421 153.618 268.263 140.975 266.257 128.519L254.139 131.075L254.142 131.078Z" fill="white"/>
<defs>
<filter id="filter0_d_1284_12787" x="9.09463" y="11.5111" width="169.97" height="169.97" filterUnits="userSpaceOnUse" color-interpolation-filters="sRGB">
<feFlood flood-opacity="0" result="BackgroundImageFix"/>
<feColorMatrix in="SourceAlpha" type="matrix" values="0 0 0 0 0 0 0 0 0 0 0 0 0 0 0 0 0 0 127 0" result="hardAlpha"/>
<feOffset dy="2.38682"/>
<feGaussianBlur stdDeviation="2.0291"/>
<feComposite in2="hardAlpha" operator="out"/>
<feColorMatrix type="matrix" values="0 0 0 0 0.0627451 0 0 0 0 0.317647 0 0 0 0 0.164706 0 0 0 0.1 0"/>
<feBlend mode="normal" in2="BackgroundImageFix" result="effect1_dropShadow_1284_12787"/>
<feBlend mode="normal" in="SourceGraphic" in2="effect1_dropShadow_1284_12787" result="shape"/>
</filter>
<filter id="filter1_d_1284_12787" x="132.922" y="54.8582" width="168.333" height="168.332" filterUnits="userSpaceOnUse" color-interpolation-filters="sRGB">
<feFlood flood-opacity="0" result="BackgroundImageFix"/>
<feColorMatrix in="SourceAlpha" type="matrix" values="0 0 0 0 0 0 0 0 0 0 0 0 0 0 0 0 0 0 127 0" result="hardAlpha"/>
<feOffset dy="2.38682"/>
<feGaussianBlur stdDeviation="11.9341"/>
<feComposite in2="hardAlpha" operator="out"/>
<feColorMatrix type="matrix" values="0 0 0 0 0.0627451 0 0 0 0 0.317647 0 0 0 0 0.164706 0 0 0 0.15 0"/>
<feBlend mode="normal" in2="BackgroundImageFix" result="effect1_dropShadow_1284_12787"/>
<feBlend mode="normal" in="SourceGraphic" in2="effect1_dropShadow_1284_12787" result="shape"/>
</filter>
</defs>
</svg>
