<svg width="1221" height="995" viewBox="0 0 1221 995" fill="none" xmlns="http://www.w3.org/2000/svg">
<g opacity="0.1">
<path d="M835.387 380.919L544.102 380.734L751.722 573.974C757.492 579.151 764.058 583.404 771.519 586.363C814.595 603.191 869.808 571.847 894.778 516.372C919.748 460.896 905.124 402.277 862.048 385.45C853.492 382.121 844.539 380.734 835.387 381.012V380.919Z" fill="#E75719"/>
<path d="M517.33 677.091L517.131 406.371L725.049 599.333H724.95C730.62 604.695 735.197 610.798 738.38 617.825C756.486 657.859 722.761 709.174 663.072 732.381C603.382 755.588 540.31 741.997 522.204 701.962C518.623 694.011 517.131 685.69 517.429 677.183L517.33 677.091Z" fill="#E75719"/>
<path d="M273.413 596.441L479.242 404.773L479.541 677.805H479.441C479.441 685.201 477.949 692.598 474.865 699.625C457.157 739.845 394.284 753.898 334.396 731.154C274.507 708.316 240.285 657.279 257.893 617.059C261.375 609.108 266.747 602.266 273.313 596.441H273.413Z" fill="#E75719"/>
<path d="M749.226 154.221L542.998 345.519L836.77 345.796C844.828 345.611 852.688 344.317 860.248 341.45C903.523 324.993 918.644 266.559 894.172 210.898C869.599 155.238 814.685 123.432 771.41 139.797C762.855 143.033 755.493 148.026 749.226 154.129V154.221Z" fill="#E75719"/>
<path d="M1024.66 -97.9034L1022.96 -99.6602L879.212 33.943C970.736 125.662 1019.98 245.212 1017.69 370.586C1015.4 496.515 961.385 614.955 865.484 704.085C767.295 795.342 636.773 845.64 497.896 845.64C366.28 845.64 240.833 799.873 144.434 716.845L0.681641 850.448L2.57182 852.02C137.172 969.628 313.057 1034.44 497.995 1034.44C682.933 1034.44 872.647 964.542 1009.24 837.596C1143.04 713.239 1218.25 547.83 1220.94 372.065C1223.62 196.671 1153.88 29.6899 1024.76 -97.9034H1024.66Z" fill="#E75719"/>
</g>
</svg>
