<?xml version="1.0" encoding="UTF-8"?>
<svg xmlns="http://www.w3.org/2000/svg" version="1.1" viewBox="0 0 1920 1249">
  <defs>
    <style>
      .cls-1 {
        fill: #e75719;
      }

      .cls-1, .cls-2, .cls-3, .cls-4 {
        stroke-width: 0px;
      }

      .cls-2 {
        fill: #bfef1e;
        isolation: isolate;
        opacity: .2;
      }

      .cls-5 {
        opacity: .1;
      }

      .cls-3 {
        fill: #ecfc9b;
      }

      .cls-6 {
        display: none;
      }

      .cls-4 {
        fill: #a675f7;
      }
    </style>
  </defs>
  <g id="Layer_1" data-name="Layer 1" class="cls-6">
    <g id="Layer_3" data-name="Layer 3">
      <path class="cls-3" d="M432.1,699.4h-107.4l76.6,76.6c2.1,2.1,4.6,3.7,7.3,4.9,15.9,6.7,36.2-5.8,45.5-27.8,9.2-22,3.8-45.3-12.1-52-3.2-1.3-6.5-1.9-9.8-1.8h-.1Z"/>
      <path class="cls-3" d="M314.8,816.9v-107.4l76.6,76.6h0c2.1,2.1,3.8,4.5,5,7.3,6.7,15.9-5.8,36.2-27.8,45.5-22,9.2-45.3,3.8-52-12.1-1.3-3.2-1.9-6.5-1.8-9.8h0Z"/>
      <path class="cls-3" d="M224.9,784.9l75.9-76.1v108.3c.1,0,0,0,0,0,0,2.9-.6,5.9-1.7,8.7-6.5,16-29.7,21.5-51.8,12.5-22.1-9.1-34.7-29.3-28.2-45.3,1.3-3.2,3.3-5.9,5.7-8.2h.1Z"/>
      <path class="cls-3" d="M400.4,609.4l-76.1,75.9h108.3c3,0,5.9-.5,8.7-1.6,16-6.5,21.5-29.7,12.5-51.8-9.1-22.1-29.3-34.7-45.3-28.2-3.2,1.3-5.9,3.3-8.2,5.7h.1Z"/>
      <path class="cls-3" d="M502,509.4l-.6-.7-53,53c33.8,36.4,51.9,83.8,51.1,133.6-.8,50-20.8,97-56.1,132.3s-84.3,56.2-135.6,56.2-94.8-18.2-130.4-51.1l-53,53,.7.6c49.6,46.7,114.5,72.4,182.7,72.4s138.2-27.7,188.5-78.1c49.3-49.3,77.1-115,78.1-184.7,1-69.6-24.7-135.9-72.4-186.5h0Z"/>
    </g>
    <g id="Layer_2" data-name="Layer 2">
      <path class="cls-3" d="M1792.6,318.1v-107.2l-76.4,76.4c-2.1,2.1-3.7,4.5-4.9,7.3-6.7,15.9,5.7,36.2,27.7,45.4,22,9.2,45.2,3.8,51.8-12,1.3-3.1,1.9-6.4,1.8-9.8h0Z"/>
      <path class="cls-3" d="M1675.3,201.1h107.2l-76.4,76.4h0c-2.1,2.1-4.5,3.7-7.3,4.9-15.9,6.7-36.2-5.7-45.4-27.7-9.2-22-3.8-45.2,12-51.8,3.1-1.3,6.4-1.9,9.8-1.8h.1Z"/>
      <path class="cls-3" d="M1707.2,111.4l75.9,75.7h-108.1c0,.1,0,0,0,0-2.9,0-5.9-.5-8.6-1.7-15.9-6.5-21.5-29.7-12.5-51.7s29.2-34.6,45.2-28.2c3.1,1.3,5.9,3.3,8.2,5.7h0v.2Z"/>
      <path class="cls-3" d="M1882.3,286.4l-75.7-75.9v108.1c0,3,.5,5.9,1.6,8.6,6.5,15.9,29.7,21.5,51.7,12.5s34.6-29.2,28.2-45.2c-1.3-3.1-3.3-5.9-5.7-8.2h0Z"/>
      <path class="cls-3" d="M1982.2,387.8l.7-.6-52.9-52.9c-36.3,33.7-83.6,51.8-133.3,51-49.9-.8-96.8-20.7-132-56-36.1-36.1-56-84.2-56-135.3s18.1-94.6,51-130.1l-52.9-52.9-.6.7c-46.6,49.5-72.2,114.3-72.2,182.3s27.7,137.9,77.9,188.1c49.2,49.2,114.7,76.9,184.3,77.9,69.4,1,135.6-24.7,186.1-72.2h0Z"/>
    </g>
  </g>
  <g id="Layer_2-2" data-name="Layer 2" class="cls-6">
    <g class="cls-5">
      <path class="cls-4" d="M432.2,699.4h-107.4c0,0,76.6,76.6,76.6,76.6,2.1,2.1,4.5,3.7,7.3,4.9,15.9,6.7,36.2-5.8,45.5-27.8,9.2-22,3.8-45.3-12.1-52-3.2-1.3-6.5-1.9-9.8-1.8h0Z"/>
      <path class="cls-4" d="M314.9,816.9v-107.4c0,0,76.6,76.6,76.6,76.6h0c2.1,2.1,3.8,4.5,5,7.3,6.7,15.9-5.8,36.2-27.8,45.5-22,9.2-45.3,3.8-52-12.1-1.3-3.2-1.9-6.5-1.8-9.8h0Z"/>
      <path class="cls-4" d="M225,784.9l75.9-76.1v108.3c.1,0,0,0,0,0,0,2.9-.6,5.9-1.7,8.7-6.5,16-29.7,21.5-51.8,12.5-22.1-9.1-34.7-29.3-28.2-45.3,1.3-3.2,3.3-5.9,5.7-8.2h0Z"/>
      <path class="cls-4" d="M400.4,609.4l-76.1,75.9h108.3c3,0,5.9-.5,8.7-1.6,16-6.5,21.5-29.7,12.5-51.8-9.1-22.1-29.3-34.7-45.3-28.2-3.2,1.3-5.9,3.3-8.2,5.7h0Z"/>
      <path class="cls-4" d="M502,509.4l-.6-.7-53,53c33.8,36.4,51.9,83.8,51.1,133.6-.8,50-20.8,97-56.1,132.3-36.2,36.2-84.3,56.2-135.6,56.2s-94.8-18.2-130.4-51.1l-53,53,.7.6c49.6,46.7,114.5,72.4,182.7,72.4s138.2-27.7,188.5-78.1c49.3-49.3,77.1-115,78.1-184.7,1-69.6-24.7-135.9-72.4-186.5h0Z"/>
    </g>
    <g class="cls-5">
      <path class="cls-4" d="M1792.7,318.1v-107.2c0,0-76.4,76.4-76.4,76.4-2.1,2.1-3.7,4.5-4.9,7.3-6.7,15.9,5.7,36.2,27.7,45.4,22,9.2,45.2,3.8,51.8-12,1.3-3.1,1.9-6.4,1.8-9.8h0Z"/>
      <path class="cls-4" d="M1675.4,201.1h107.2c0,0-76.4,76.4-76.4,76.4h0c-2.1,2-4.5,3.7-7.3,4.9-15.9,6.7-36.2-5.7-45.4-27.7-9.2-22-3.8-45.2,12-51.8,3.1-1.3,6.4-1.9,9.8-1.8h0Z"/>
      <path class="cls-4" d="M1707.4,111.3l75.9,75.7h-108.1c0,.1,0,0,0,0-2.9,0-5.9-.5-8.6-1.7-15.9-6.5-21.5-29.7-12.5-51.7,9-22,29.2-34.6,45.2-28.2,3.1,1.3,5.9,3.3,8.2,5.7h0Z"/>
      <path class="cls-4" d="M1882.4,286.4l-75.7-75.9v108.1c0,3,.5,5.9,1.6,8.6,6.5,15.9,29.7,21.5,51.7,12.5,22-9,34.6-29.2,28.2-45.2-1.3-3.1-3.3-5.9-5.7-8.2h0Z"/>
      <path class="cls-4" d="M1982.3,387.8l.7-.6-52.9-52.9c-36.3,33.7-83.6,51.8-133.3,51-49.9-.8-96.8-20.7-132-56-36.1-36.1-56-84.2-56-135.3s18.1-94.6,51-130.1l-52.9-52.9-.6.7c-46.6,49.5-72.2,114.3-72.2,182.3,0,68.1,27.7,137.9,77.9,188.1,49.2,49.2,114.7,76.9,184.3,77.9,69.4,1,135.6-24.7,186.1-72.2h0Z"/>
    </g>
  </g>
  <g id="Layer_3-2" data-name="Layer 3" class="cls-6">
    <g class="cls-5">
      <path class="cls-1" d="M432.2,699.4h-107.4c0,0,76.6,76.6,76.6,76.6,2.1,2.1,4.5,3.7,7.3,4.9,15.9,6.7,36.2-5.8,45.5-27.8,9.2-22,3.8-45.3-12.1-52-3.2-1.3-6.5-1.9-9.8-1.8h0Z"/>
      <path class="cls-1" d="M314.9,816.9v-107.4c0,0,76.6,76.6,76.6,76.6h0c2.1,2.1,3.8,4.5,5,7.3,6.7,15.9-5.8,36.2-27.8,45.5-22,9.2-45.3,3.8-52-12.1-1.3-3.2-1.9-6.5-1.8-9.8h0Z"/>
      <path class="cls-1" d="M225,784.9l75.9-76.1v108.3c.1,0,0,0,0,0,0,2.9-.6,5.9-1.7,8.7-6.5,16-29.7,21.5-51.8,12.5-22.1-9.1-34.7-29.3-28.2-45.3,1.3-3.2,3.3-5.9,5.7-8.2h0Z"/>
      <path class="cls-1" d="M400.4,609.4l-76.1,75.9h108.3c3,0,5.9-.5,8.7-1.6,16-6.5,21.5-29.7,12.5-51.8-9.1-22.1-29.3-34.7-45.3-28.2-3.2,1.3-5.9,3.3-8.2,5.7h0Z"/>
      <path class="cls-1" d="M502,509.4l-.6-.7-53,53c33.8,36.4,51.9,83.8,51.1,133.6-.8,50-20.8,97-56.1,132.3-36.2,36.2-84.3,56.2-135.6,56.2s-94.8-18.2-130.4-51.1l-53,53,.7.6c49.6,46.7,114.5,72.4,182.7,72.4s138.2-27.7,188.5-78.1c49.3-49.3,77.1-115,78.1-184.7,1-69.6-24.7-135.9-72.4-186.5h0Z"/>
    </g>
    <g class="cls-5">
      <path class="cls-1" d="M1792.7,318.1v-107.2c0,0-76.4,76.4-76.4,76.4-2.1,2.1-3.7,4.5-4.9,7.3-6.7,15.9,5.7,36.2,27.7,45.4,22,9.2,45.2,3.8,51.8-12,1.3-3.1,1.9-6.4,1.8-9.8h0Z"/>
      <path class="cls-1" d="M1675.4,201.1h107.2c0,0-76.4,76.4-76.4,76.4h0c-2.1,2-4.5,3.7-7.3,4.9-15.9,6.7-36.2-5.7-45.4-27.7-9.2-22-3.8-45.2,12-51.8,3.1-1.3,6.4-1.9,9.8-1.8h0Z"/>
      <path class="cls-1" d="M1707.4,111.3l75.9,75.7h-108.1c0,.1,0,0,0,0-2.9,0-5.9-.5-8.6-1.7-15.9-6.5-21.5-29.7-12.5-51.7,9-22,29.2-34.6,45.2-28.2,3.1,1.3,5.9,3.3,8.2,5.7h0Z"/>
      <path class="cls-1" d="M1882.4,286.4l-75.7-75.9v108.1c0,3,.5,5.9,1.6,8.6,6.5,15.9,29.7,21.5,51.7,12.5,22-9,34.6-29.2,28.2-45.2-1.3-3.1-3.3-5.9-5.7-8.2h0Z"/>
      <path class="cls-1" d="M1982.3,387.8l.7-.6-52.9-52.9c-36.3,33.7-83.6,51.8-133.3,51-49.9-.8-96.8-20.7-132-56-36.1-36.1-56-84.2-56-135.3s18.1-94.6,51-130.1l-52.9-52.9-.6.7c-46.6,49.5-72.2,114.3-72.2,182.3,0,68.1,27.7,137.9,77.9,188.1,49.2,49.2,114.7,76.9,184.3,77.9,69.4,1,135.6-24.7,186.1-72.2h0Z"/>
    </g>
  </g>
  <g id="Layer_4" data-name="Layer 4">
    <path class="cls-2" d="M144.3,1254.7H0v-595.9h489.4v113H144.3v147.7h287.6v113H144.3v222.3ZM683.2,1254.7h-144.3v-435.8h144.3v137c16.1-72.9,64.6-145.9,159.4-145.9s113,40.9,113,109.4-16.1,84.5-28.3,101.4h-139.2c18.2-16,35.3-47.1,35.3-72s-13.1-43.6-44.4-43.6c-49.4,0-95.9,47.1-95.9,119.2v230.3h0ZM1245.6,1263.5c-157.4,0-253.3-92.5-253.3-226.8s95.9-226.8,241.2-226.8,236.1,92.5,236.1,206.3-2,43.6-5,53.4h-337c9.1,61.4,55.5,90.7,120.1,90.7s107-26.7,125.1-64l87.8,77.4c-37.4,47.1-103.9,89.8-214.9,89.8h0ZM1234.5,907.8c-61.6,0-99.9,30.2-107,88.9h211.9c-5-57.8-40.4-88.9-105-88.9ZM1762.6,1263.5c-110,0-207.9-35.6-250.3-88.1l66.6-86.3c41.4,39.1,113,77.4,187.7,77.4s62.6-10.6,62.6-33.8-28.3-32-80.7-43.6l-66.6-14.2c-88.8-20.4-153.4-51.6-153.4-128.1s78.7-136.1,199.8-136.1,184.6,40.9,219,79.2l-64.6,85.4c-48.5-44.4-109-68.5-166.5-68.5s-56.5,11.6-56.5,32.9,21.2,32,86.8,48l55.5,13.4c109,25.8,156.4,63.2,156.4,129.9s-80.7,132.5-195.7,132.5h-.1ZM2163.7,1254.7h-144.3v-595.9h144.3v286.4c16.1-71.2,63.6-135.2,165.5-135.2s151.3,50.7,151.3,140.5v304.2h-144.3v-259.7c0-53.4-16.1-86.3-81.7-86.3s-90.8,33.8-90.8,104.9v241h0ZM2678.3,1414.8c-74.7,0-138.3-28.4-172.6-59.6l57.5-106.7c31.3,32,67.6,54.3,111,54.3s60.5-11.6,76.7-53.4l10.1-23.1h-87.8l-160.5-407.4h159.4l70.7,205.5,36.3,145.9,37.4-145.9,69.6-205.5h162.4l-177.6,462.5c-38.3,96.9-99.9,133.4-192.7,133.4Z"/>
  </g>
</svg>