<svg width="1220" height="1042" viewBox="0 0 1220 1042" fill="none" xmlns="http://www.w3.org/2000/svg">
<g opacity="0.2">
<path d="M834.629 427.294L543.681 427.109L751.06 620.349C756.824 625.526 763.382 629.779 770.835 632.738C813.861 649.566 869.01 618.222 893.951 562.747C918.892 507.271 904.285 448.652 861.259 431.825C852.713 428.496 843.77 427.109 834.629 427.387V427.294Z" fill="#BFEF1E"/>
<path d="M516.939 723.466L516.74 452.746L724.418 645.708H724.319C729.983 651.07 734.554 657.173 737.733 664.2C755.818 704.234 722.133 755.549 662.512 778.756C602.892 801.963 539.893 788.372 521.808 748.337C518.231 740.386 516.74 732.065 517.038 723.558L516.939 723.466Z" fill="#BFEF1E"/>
<path d="M273.303 642.816L478.895 451.148L479.193 724.18H479.093C479.093 731.576 477.603 738.973 474.523 746C456.835 786.22 394.035 800.273 334.216 777.529C274.396 754.691 240.214 703.654 257.802 663.434C261.28 655.483 266.646 648.641 273.204 642.816H273.303Z" fill="#BFEF1E"/>
<path d="M748.566 200.596L542.577 391.894L836.009 392.171C844.058 391.986 851.908 390.692 859.46 387.825C902.685 371.368 917.789 312.934 893.344 257.273C868.801 201.613 813.95 169.807 770.725 186.172C762.179 189.408 754.826 194.401 748.566 200.504V200.596Z" fill="#BFEF1E"/>
<path d="M1023.68 -51.5284L1021.99 -53.2852L878.403 80.318C969.821 172.037 1019.01 291.587 1016.72 416.961C1014.44 542.89 960.48 661.33 864.69 750.46C766.614 841.717 636.244 892.015 497.527 892.015C366.064 892.015 240.762 846.248 144.475 763.22L0.888672 896.823L2.77666 898.395C137.221 1016 312.902 1080.82 497.627 1080.82C682.351 1080.82 871.844 1010.92 1008.28 883.971C1141.93 759.614 1217.05 594.205 1219.73 418.44C1222.41 243.046 1152.76 76.0649 1023.78 -51.5284H1023.68Z" fill="#BFEF1E"/>
</g>
</svg>
