<?xml version="1.0" encoding="UTF-8"?>
<svg id="Layer_1" data-name="Layer 1" xmlns="http://www.w3.org/2000/svg" version="1.1" viewBox="0 0 31 31">
  <defs>
    <style>
      .cls-1 {
        fill: #e75719;
        stroke-width: 0px;
      }
    </style>
  </defs>
  <path class="cls-1" d="M21.6,13.7h-7.5s5.3,5.3,5.3,5.3h0c.1.1.3.3.5.3,1.1.5,2.5-.4,3.2-1.9.6-1.5.3-3.1-.8-3.6-.2,0-.4-.1-.7-.1h0Z"/>
  <path class="cls-1" d="M13.4,22.7c.5,1.1,2.1,1.5,3.6.8,1.5-.6,2.4-2.1,1.9-3.2,0-.2-.2-.4-.3-.5h0l-5.3-5.3v7.5c0,.2,0,.5.1.7h0Z"/>
  <path class="cls-1" d="M8.3,23.6c1.5.6,3.1.2,3.6-.9,0-.2.1-.4.1-.6h0v-7.5s-5.3,5.3-5.3,5.3c-.2.2-.3.3-.4.6-.5,1.1.4,2.5,2,3.1h0Z"/>
  <path class="cls-1" d="M21.6,12.5c.2,0,.4,0,.6-.1,1.1-.5,1.5-2.1.9-3.6-.6-1.5-2-2.4-3.1-2-.2,0-.4.2-.6.4l-5.3,5.3h7.5s0,0,0,0h0Z"/>
  <path class="cls-1" d="M22.5,4.2c2.3,2.5,3.5,5.8,3.5,9.2,0,3.5-1.4,6.7-3.9,9.2s-5.8,3.9-9.4,3.9-6.5-1.2-9-3.5l-3.2,3.2c3.3,3.1,7.6,4.8,12.2,4.8s9.2-1.9,12.6-5.2c3.3-3.3,5.2-7.7,5.2-12.3,0-4.6-1.6-9-4.8-12.4l-3.2,3.2h0Z"/>
</svg>