<?xml version="1.0" encoding="UTF-8"?>
<svg xmlns="http://www.w3.org/2000/svg" version="1.1" viewBox="0 0 938.7 929.8">
  <!-- Generator: Adobe Illustrator 28.7.1, SVG Export Plug-In . SVG Version: 1.2.0 Build 142)  -->
  <g>
    <g id="Layer_1">
      <g id="Layer_1-2" data-name="Layer_1">
        <path d="M513.1,733.1c-42.3,19.2-89.2,29.9-138.6,29.9-185.3,0-335.7-150.4-335.7-335.7S189.2,91.6,374.5,91.6s335.7,150.4,335.7,335.7h30c0-201.8-163.9-365.7-365.7-365.7S8.8,225.5,8.8,427.3s163.8,365.7,365.7,365.7,105-11.7,151-32.6l-12.4-27.3h0ZM437.5,563.4l-241.9-49.4,5.9-8.5c30.3-43.5,77.5-71.5,129.4-77.8,6.7-.8,12-6,13-12.7s-2.5-13.2-8.7-15.9c-33.8-15.1-57.5-49-57.5-88.5s43.4-96.8,96.8-96.8,96.8,43.4,96.8,96.8-23.6,73.4-57.5,88.5c-6.1,2.8-9.8,9.3-8.7,15.9,1,6.7,6.3,11.9,13,12.7,32.1,3.9,62.3,16.1,87.9,35.1l17.9-24.1c-19.8-14.7-42-25.8-65.5-33,26.3-23.2,42.8-57.2,42.8-95,0-69.9-56.8-126.7-126.7-126.7s-126.7,56.8-126.7,126.7,16.6,71.8,42.9,95c-45.6,13.9-85.8,42.7-113.7,82.6l-14.8,21.3c-3.3,4.7-3.6,11-.7,16l34.8,60.3c2.7,4.6,7.6,7.5,13,7.5h228.3v-30h0ZM901.8,248.2h-109.9v30h109.9v-30ZM901.5,21.6l-153.7,153.7,21.2,21.2,153.7-153.7-21.2-21.2h0ZM671.3,32.1v110h30V32.1h-30Z" fill="#10512a" fill-rule="evenodd"/>
        <path d="M665.1,494.5l-68.7,67.8-15.6-50.4-12.8,3.7,13.7,46.7h-97.1v12.8h100.8l66.9,218,12.8-3.7-65-213.4h152l-75.1,240-5.5,6.4-201.5-251.9,61.4-48.5-8.2-10.1-66.9,52.2c-1.8.9-1.8,2.7-2.7,4.6,0,1.8,0,3.7,1.8,4.6l210.7,263.8c1.8,1.8,2.7,2.7,5.5,2.7s3.7-.9,5.5-2.7l210.7-263.8c.9-1.8,1.8-2.7,1.8-4.6s-.9-3.7-2.7-4.6l-103.5-81.5c-.9-.9-2.7-1.8-3.7-1.8h-215.2c-1.8,0-2.7,0-3.7,1.8l-23.8,19.2,8.2,10.1,22-17.4h98.9-1Z" fill="#10512a" fill-rule="evenodd"/>
        <path d="M452.6,863.9c-2-.7-4-2.7-4-5.3s1.3-4.6,4-5.3c21.9-8.6,39.8-23.9,49.7-56.3.7-2,3.3-4,5.3-4s4.6,2,5.3,4c5.3,20.5,17.2,47.7,42.4,61,2,.7,3.3,3.3,3.3,5.3s-2,4.6-4,5.3c-16.6,4.6-38.4,15.9-46.4,41.1,0,2-2.7,4-4.6,4s-4.6-1.3-5.3-3.3c-7.3-15.9-21.2-37.1-45.7-47h0v.7-.2Z" fill="#10512a" fill-rule="evenodd"/>
        <path d="M803.5,411.1c-1.3,0-2.7-2-2.7-3.3s.7-2.7,2.7-3.3c13.9-5.3,25.2-15.2,31.1-35.1,0-1.3,2-2.7,3.3-2.7s2.7,1.3,3.3,2.7c3.3,13.3,11.3,30.5,26.5,38.4,1.3,0,2,2,2,3.3s-1.3,2.7-2.7,3.3c-10.6,3.3-24.5,9.9-29.2,25.8,0,1.3-1.3,2.7-2.7,2.7s-2.7-.7-3.3-2c-4.6-9.9-13.3-23.2-29.2-29.2h0l.7-.7h.2Z" fill="#10512a" fill-rule="evenodd"/>
      </g>
    </g>
    <g id="Layer_2">
      <path d="M525.5,760.4s-65.3,31.2-171.4,32.6-3.6,6.4-3.6,6.4h112.6l35.6-8,13.3-3.6s15.1-10.4,16.3-12.4-2.8-15-2.8-15Z" fill="#fff"/>
    </g>
  </g>
</svg>