<?xml version="1.0" encoding="UTF-8"?>
<svg id="Layer_1" data-name="Layer 1" xmlns="http://www.w3.org/2000/svg" version="1.1" viewBox="0 0 88 89">
  <path d="M52,76.3l-7.5,8.8c-.4.5-.4,1.2.1,1.6.5.4,1.2.4,1.6-.1l7.5-8.8c.4-.5.4-1.2-.1-1.6-.5-.4-1.2-.4-1.6.1ZM42.9,76.9l-6.3,6.2c-.5.5-.5,1.2,0,1.6.5.5,1.2.5,1.6,0l6.3-6.2c.5-.5.5-1.2,0-1.6-.4-.5-1.2-.5-1.6,0ZM43,15.3c13.6-10.4,31.5-11.7,39.7-13.3,0,0,0,0,0,0,1.1-.2,2.3.2,3.1,1,.8.8,1.2,2,1,3.1,0,0,0,0,0,0-1.6,8.2-2.9,26.1-13.3,39.7l1,3.9c1.2,4.5,0,9.3-2.9,12.8l-10.9,13.1c-.7.8-1.9,1.1-2.9.7-1-.4-1.6-1.5-1.5-2.6,0,0,0,0,0,0,.1-1.1.2-2.2.3-3.2,0-.6.6-1.1,1.2-1.1.6,0,1.1.6,1.1,1.2,0,1.1-.2,2.2-.3,3.4,0,0,0,.1,0,.2,0,0,.1,0,.2,0l10.9-13.1c2.2-2.6,3.2-6.1,2.7-9.4-1.8,2.6-14.4,13.7-14.4,13.6-.1,0-.2,0-.3,0-.6,0-1.2-.4-1.3-1-.2-1.5-.4-2.9-.8-4.3-3.3,1.9-6.5,3.5-9,4.9l-3.2,8.5c-.4,1-1.2,1.7-2.2,1.9-1,.2-2,0-2.8-.8l-7.2-7.2c-3.1,2.4-9.2,3.5-12.2,4-.4,0-.9,0-1.2-.4-.3-.3-.4-.7-.4-1.2.4-3,1.6-9.1,4-12.2l-3.1-3.1c-1.5,1.7-2.6,4.1-3.4,6.6-1.5,4.5-2.2,9.5-2.4,12.8h0c0,.7.2,1.3.7,1.8.5.5,1.1.7,1.8.6h0c4.5-.4,11.9-1.5,17-4.3.6-.3,1.3-.1,1.6.5.3.6.1,1.3-.5,1.6-5.4,3-13.2,4.1-18,4.5-1.3.1-2.7-.4-3.6-1.3-1-1-1.4-2.3-1.3-3.6.3-3.5,1-8.7,2.6-13.4,1-2.9,2.3-5.6,4-7.5l-2.4-2.4c-.7-.7-1-1.8-.8-2.8.2-1,.9-1.8,1.9-2.2l8.5-3.2c1.4-2.5,3.1-5.7,4.9-9-4.2-1.1-8.8-1.2-13.8-.6h0c-1.1.1-2.1-.5-2.6-1.5-.4-1-.1-2.2.7-2.9l7.7-6.4c.5-.4,1.2-.3,1.6.2.4.5.3,1.2-.2,1.6,0,0-7.7,6.4-7.7,6.4,0,0,0,.1,0,.2,0,0,0,.1.2,0,3.4-.4,6.7-.5,9.8-.2,4.6-6.5,10.9-11.3,14-13.4h0c-3.8-1-7.8,0-10.8,2.4-1.3,1.1-2.4,2-2.4,2-.5.4-1.2.3-1.6-.2-.4-.5-.3-1.2.2-1.6,0,0,1-.9,2.4-2,3.6-3,8.3-4,12.8-2.9l3.9,1ZM56.1,57.1c4.3-2.5,8.7-5.3,11.9-8.6,13.5-13.5,14.8-34,16.5-42.9,0-.4,0-.8-.3-1-.3-.3-.7-.4-1-.3-3.9.7-10,1.4-16.8,3,.8,3.1,2.8,6.5,5.7,9.4,2.1,2.1,4.4,3.7,6.7,4.7.6.3.8,1,.6,1.5-.3.6-1,.8-1.5.6-2.5-1.2-5.1-2.9-7.4-5.2-3.2-3.2-5.4-6.9-6.3-10.4-8.1,2.2-16.9,5.9-23.9,12.9-6,6-10.7,16-14.2,22.2l16.2,16.2c.5.5.5,1.2,0,1.6-.5.5-1.2.5-1.6,0l-16.4-16.4-8.1,3c-.2,0-.4.3-.4.5,0,.2,0,.5.2.6l24.2,24.2c.2.2.4.2.6.2.2,0,.4-.2.5-.4l3.2-8.5c0-.4.2-.7.6-.9,2.8-1.6,6.6-3.5,10.5-5.7.1-.1.3-.2.5-.3,0,0,0,0,0,0h0ZM9.6,44.6l-6.2,6.3c-.4.5-.4,1.2,0,1.6.5.4,1.2.4,1.6,0l6.2-6.3c.4-.5.4-1.2,0-1.6-.5-.5-1.2-.4-1.6,0ZM10.4,35.4l-8.8,7.5c-.5.4-.5,1.1-.1,1.6.4.5,1.1.5,1.6.1l8.8-7.5c.5-.4.5-1.1.1-1.6-.4-.5-1.1-.5-1.6-.1ZM60.8,27.9c2.8,2.8,2.8,7.3,0,10.1-2.8,2.8-7.3,2.8-10.1,0-2.8-2.8-2.8-7.3,0-10.1,2.8-2.8,7.3-2.8,10.1,0Z" fill="#10512a" fill-rule="evenodd" stroke-width="0"/>
</svg>