<?xml version="1.0" encoding="UTF-8"?>
<svg xmlns="http://www.w3.org/2000/svg" version="1.1" viewBox="0 0 1920 1249">
  <defs>
    <style>
      .cls-1 {
        fill: #e75719;
      }

      .cls-1, .cls-2, .cls-3 {
        stroke-width: 0px;
      }

      .cls-4 {
        opacity: .1;
      }

      .cls-2 {
        fill: #ecfc9b;
      }

      .cls-5 {
        display: none;
      }

      .cls-3 {
        fill: #a675f7;
      }
    </style>
  </defs>
  <g id="Layer_1" data-name="Layer 1" class="cls-5">
    <g id="Layer_3" data-name="Layer 3">
      <path class="cls-2" d="M432.1,699.4h-107.4l76.6,76.6c2.1,2.1,4.6,3.7,7.3,4.9,15.9,6.7,36.2-5.8,45.5-27.8,9.2-22,3.8-45.3-12.1-52-3.2-1.3-6.5-1.9-9.8-1.8h-.1Z"/>
      <path class="cls-2" d="M314.8,816.9v-107.4l76.6,76.6h0c2.1,2.1,3.8,4.5,5,7.3,6.7,15.9-5.8,36.2-27.8,45.5-22,9.2-45.3,3.8-52-12.1-1.3-3.2-1.9-6.5-1.8-9.8h0Z"/>
      <path class="cls-2" d="M224.9,784.9l75.9-76.1v108.3c.1,0,0,0,0,0,0,2.9-.6,5.9-1.7,8.7-6.5,16-29.7,21.5-51.8,12.5-22.1-9.1-34.7-29.3-28.2-45.3,1.3-3.2,3.3-5.9,5.7-8.2h.1Z"/>
      <path class="cls-2" d="M400.4,609.4l-76.1,75.9h108.3c3,0,5.9-.5,8.7-1.6,16-6.5,21.5-29.7,12.5-51.8-9.1-22.1-29.3-34.7-45.3-28.2-3.2,1.3-5.9,3.3-8.2,5.7h.1Z"/>
      <path class="cls-2" d="M502,509.4l-.6-.7-53,53c33.8,36.4,51.9,83.8,51.1,133.6-.8,50-20.8,97-56.1,132.3s-84.3,56.2-135.6,56.2-94.8-18.2-130.4-51.1l-53,53,.7.6c49.6,46.7,114.5,72.4,182.7,72.4s138.2-27.7,188.5-78.1c49.3-49.3,77.1-115,78.1-184.7,1-69.6-24.7-135.9-72.4-186.5h0Z"/>
    </g>
    <g id="Layer_2" data-name="Layer 2">
      <path class="cls-2" d="M1792.6,318.1v-107.2l-76.4,76.4c-2.1,2.1-3.7,4.5-4.9,7.3-6.7,15.9,5.7,36.2,27.7,45.4,22,9.2,45.2,3.8,51.8-12,1.3-3.1,1.9-6.4,1.8-9.8h0Z"/>
      <path class="cls-2" d="M1675.3,201.1h107.2l-76.4,76.4h0c-2.1,2.1-4.5,3.7-7.3,4.9-15.9,6.7-36.2-5.7-45.4-27.7-9.2-22-3.8-45.2,12-51.8,3.1-1.3,6.4-1.9,9.8-1.8h.1Z"/>
      <path class="cls-2" d="M1707.2,111.4l75.9,75.7h-108.1c0,.1,0,0,0,0-2.9,0-5.9-.5-8.6-1.7-15.9-6.5-21.5-29.7-12.5-51.7s29.2-34.6,45.2-28.2c3.1,1.3,5.9,3.3,8.2,5.7h0v.2Z"/>
      <path class="cls-2" d="M1882.3,286.4l-75.7-75.9v108.1c0,3,.5,5.9,1.6,8.6,6.5,15.9,29.7,21.5,51.7,12.5s34.6-29.2,28.2-45.2c-1.3-3.1-3.3-5.9-5.7-8.2h0Z"/>
      <path class="cls-2" d="M1982.2,387.8l.7-.6-52.9-52.9c-36.3,33.7-83.6,51.8-133.3,51-49.9-.8-96.8-20.7-132-56-36.1-36.1-56-84.2-56-135.3s18.1-94.6,51-130.1l-52.9-52.9-.6.7c-46.6,49.5-72.2,114.3-72.2,182.3s27.7,137.9,77.9,188.1c49.2,49.2,114.7,76.9,184.3,77.9,69.4,1,135.6-24.7,186.1-72.2h0Z"/>
    </g>
  </g>
  <g id="Layer_2-2" data-name="Layer 2" class="cls-5">
    <g class="cls-4">
      <path class="cls-3" d="M432.2,699.4h-107.4c0,0,76.6,76.6,76.6,76.6,2.1,2.1,4.5,3.7,7.3,4.9,15.9,6.7,36.2-5.8,45.5-27.8,9.2-22,3.8-45.3-12.1-52-3.2-1.3-6.5-1.9-9.8-1.8h0Z"/>
      <path class="cls-3" d="M314.9,816.9v-107.4c0,0,76.6,76.6,76.6,76.6h0c2.1,2.1,3.8,4.5,5,7.3,6.7,15.9-5.8,36.2-27.8,45.5-22,9.2-45.3,3.8-52-12.1-1.3-3.2-1.9-6.5-1.8-9.8h0Z"/>
      <path class="cls-3" d="M225,784.9l75.9-76.1v108.3c.1,0,0,0,0,0,0,2.9-.6,5.9-1.7,8.7-6.5,16-29.7,21.5-51.8,12.5-22.1-9.1-34.7-29.3-28.2-45.3,1.3-3.2,3.3-5.9,5.7-8.2h0Z"/>
      <path class="cls-3" d="M400.4,609.4l-76.1,75.9h108.3c3,0,5.9-.5,8.7-1.6,16-6.5,21.5-29.7,12.5-51.8-9.1-22.1-29.3-34.7-45.3-28.2-3.2,1.3-5.9,3.3-8.2,5.7h0Z"/>
      <path class="cls-3" d="M502,509.4l-.6-.7-53,53c33.8,36.4,51.9,83.8,51.1,133.6-.8,50-20.8,97-56.1,132.3-36.2,36.2-84.3,56.2-135.6,56.2s-94.8-18.2-130.4-51.1l-53,53,.7.6c49.6,46.7,114.5,72.4,182.7,72.4s138.2-27.7,188.5-78.1c49.3-49.3,77.1-115,78.1-184.7,1-69.6-24.7-135.9-72.4-186.5h0Z"/>
    </g>
    <g class="cls-4">
      <path class="cls-3" d="M1792.7,318.1v-107.2c0,0-76.4,76.4-76.4,76.4-2.1,2.1-3.7,4.5-4.9,7.3-6.7,15.9,5.7,36.2,27.7,45.4,22,9.2,45.2,3.8,51.8-12,1.3-3.1,1.9-6.4,1.8-9.8h0Z"/>
      <path class="cls-3" d="M1675.4,201.1h107.2c0,0-76.4,76.4-76.4,76.4h0c-2.1,2-4.5,3.7-7.3,4.9-15.9,6.7-36.2-5.7-45.4-27.7-9.2-22-3.8-45.2,12-51.8,3.1-1.3,6.4-1.9,9.8-1.8h0Z"/>
      <path class="cls-3" d="M1707.4,111.3l75.9,75.7h-108.1c0,.1,0,0,0,0-2.9,0-5.9-.5-8.6-1.7-15.9-6.5-21.5-29.7-12.5-51.7,9-22,29.2-34.6,45.2-28.2,3.1,1.3,5.9,3.3,8.2,5.7h0Z"/>
      <path class="cls-3" d="M1882.4,286.4l-75.7-75.9v108.1c0,3,.5,5.9,1.6,8.6,6.5,15.9,29.7,21.5,51.7,12.5,22-9,34.6-29.2,28.2-45.2-1.3-3.1-3.3-5.9-5.7-8.2h0Z"/>
      <path class="cls-3" d="M1982.3,387.8l.7-.6-52.9-52.9c-36.3,33.7-83.6,51.8-133.3,51-49.9-.8-96.8-20.7-132-56-36.1-36.1-56-84.2-56-135.3s18.1-94.6,51-130.1l-52.9-52.9-.6.7c-46.6,49.5-72.2,114.3-72.2,182.3,0,68.1,27.7,137.9,77.9,188.1,49.2,49.2,114.7,76.9,184.3,77.9,69.4,1,135.6-24.7,186.1-72.2h0Z"/>
    </g>
  </g>
  <g id="Layer_3-2" data-name="Layer 3">
    <g class="cls-4">
      <path class="cls-1" d="M432.2,699.4h-107.4c0,0,76.6,76.6,76.6,76.6,2.1,2.1,4.5,3.7,7.3,4.9,15.9,6.7,36.2-5.8,45.5-27.8,9.2-22,3.8-45.3-12.1-52-3.2-1.3-6.5-1.9-9.8-1.8h0Z"/>
      <path class="cls-1" d="M314.9,816.9v-107.4c0,0,76.6,76.6,76.6,76.6h0c2.1,2.1,3.8,4.5,5,7.3,6.7,15.9-5.8,36.2-27.8,45.5-22,9.2-45.3,3.8-52-12.1-1.3-3.2-1.9-6.5-1.8-9.8h0Z"/>
      <path class="cls-1" d="M225,784.9l75.9-76.1v108.3c.1,0,0,0,0,0,0,2.9-.6,5.9-1.7,8.7-6.5,16-29.7,21.5-51.8,12.5-22.1-9.1-34.7-29.3-28.2-45.3,1.3-3.2,3.3-5.9,5.7-8.2h0Z"/>
      <path class="cls-1" d="M400.4,609.4l-76.1,75.9h108.3c3,0,5.9-.5,8.7-1.6,16-6.5,21.5-29.7,12.5-51.8-9.1-22.1-29.3-34.7-45.3-28.2-3.2,1.3-5.9,3.3-8.2,5.7h0Z"/>
      <path class="cls-1" d="M502,509.4l-.6-.7-53,53c33.8,36.4,51.9,83.8,51.1,133.6-.8,50-20.8,97-56.1,132.3-36.2,36.2-84.3,56.2-135.6,56.2s-94.8-18.2-130.4-51.1l-53,53,.7.6c49.6,46.7,114.5,72.4,182.7,72.4s138.2-27.7,188.5-78.1c49.3-49.3,77.1-115,78.1-184.7,1-69.6-24.7-135.9-72.4-186.5h0Z"/>
    </g>
    <g class="cls-4">
      <path class="cls-1" d="M1792.7,318.1v-107.2c0,0-76.4,76.4-76.4,76.4-2.1,2.1-3.7,4.5-4.9,7.3-6.7,15.9,5.7,36.2,27.7,45.4,22,9.2,45.2,3.8,51.8-12,1.3-3.1,1.9-6.4,1.8-9.8h0Z"/>
      <path class="cls-1" d="M1675.4,201.1h107.2c0,0-76.4,76.4-76.4,76.4h0c-2.1,2-4.5,3.7-7.3,4.9-15.9,6.7-36.2-5.7-45.4-27.7-9.2-22-3.8-45.2,12-51.8,3.1-1.3,6.4-1.9,9.8-1.8h0Z"/>
      <path class="cls-1" d="M1707.4,111.3l75.9,75.7h-108.1c0,.1,0,0,0,0-2.9,0-5.9-.5-8.6-1.7-15.9-6.5-21.5-29.7-12.5-51.7,9-22,29.2-34.6,45.2-28.2,3.1,1.3,5.9,3.3,8.2,5.7h0Z"/>
      <path class="cls-1" d="M1882.4,286.4l-75.7-75.9v108.1c0,3,.5,5.9,1.6,8.6,6.5,15.9,29.7,21.5,51.7,12.5,22-9,34.6-29.2,28.2-45.2-1.3-3.1-3.3-5.9-5.7-8.2h0Z"/>
      <path class="cls-1" d="M1982.3,387.8l.7-.6-52.9-52.9c-36.3,33.7-83.6,51.8-133.3,51-49.9-.8-96.8-20.7-132-56-36.1-36.1-56-84.2-56-135.3s18.1-94.6,51-130.1l-52.9-52.9-.6.7c-46.6,49.5-72.2,114.3-72.2,182.3,0,68.1,27.7,137.9,77.9,188.1,49.2,49.2,114.7,76.9,184.3,77.9,69.4,1,135.6-24.7,186.1-72.2h0Z"/>
    </g>
  </g>
</svg>