<?xml version="1.0" encoding="UTF-8"?>
<svg xmlns="http://www.w3.org/2000/svg" version="1.1" xmlns:xlink="http://www.w3.org/1999/xlink" viewBox="0 0 1920 1249">
  <defs>
    <style>
      .cls-1 {
        fill: #e75719;
      }

      .cls-1, .cls-2, .cls-3, .cls-4 {
        stroke-width: 0px;
      }

      .cls-5 {
        isolation: isolate;
      }

      .cls-6 {
        opacity: .1;
      }

      .cls-2 {
        fill: #ecfc9b;
      }

      .cls-7 {
        opacity: .2;
      }

      .cls-8 {
        display: none;
      }

      .cls-3 {
        fill: #a675f7;
      }

      .cls-4 {
        fill: #bfef1e;
      }
    </style>
  </defs>
  <g id="Layer_1" data-name="Layer 1" class="cls-8">
    <g id="Layer_1-2" data-name="Layer 1" class="cls-8">
      <image class="cls-5" width="1920" height="1249" transform="translate(1)" xlink:href="homepage/limes-background.jpg"/>
    </g>
    <g id="Layer_3" data-name="Layer 3" class="cls-8">
      <path class="cls-2" d="M432.1,699.4h-107.4l76.6,76.6c2.1,2.1,4.6,3.7,7.3,4.9,15.9,6.7,36.2-5.8,45.5-27.8,9.2-22,3.8-45.3-12.1-52-3.2-1.3-6.5-1.9-9.8-1.8h-.1Z"/>
      <path class="cls-2" d="M314.8,816.9v-107.4l76.6,76.6h0c2.1,2.1,3.8,4.5,5,7.3,6.7,15.9-5.8,36.2-27.8,45.5-22,9.2-45.3,3.8-52-12.1-1.3-3.2-1.9-6.5-1.8-9.8h0Z"/>
      <path class="cls-2" d="M224.9,784.9l75.9-76.1v108.3c.1,0,0,0,0,0,0,2.9-.6,5.9-1.7,8.7-6.5,16-29.7,21.5-51.8,12.5-22.1-9.1-34.7-29.3-28.2-45.3,1.3-3.2,3.3-5.9,5.7-8.2h.1Z"/>
      <path class="cls-2" d="M400.4,609.4l-76.1,75.9h108.3c3,0,5.9-.5,8.7-1.6,16-6.5,21.5-29.7,12.5-51.8-9.1-22.1-29.3-34.7-45.3-28.2-3.2,1.3-5.9,3.3-8.2,5.7h.1Z"/>
      <path class="cls-2" d="M502,509.4l-.6-.7-53,53c33.8,36.4,51.9,83.8,51.1,133.6-.8,50-20.8,97-56.1,132.3s-84.3,56.2-135.6,56.2-94.8-18.2-130.4-51.1l-53,53,.7.6c49.6,46.7,114.5,72.4,182.7,72.4s138.2-27.7,188.5-78.1c49.3-49.3,77.1-115,78.1-184.7,1-69.6-24.7-135.9-72.4-186.5h0Z"/>
    </g>
    <g id="Layer_2" data-name="Layer 2" class="cls-8">
      <path class="cls-2" d="M1792.6,318.1v-107.2l-76.4,76.4c-2.1,2.1-3.7,4.5-4.9,7.3-6.7,15.9,5.7,36.2,27.7,45.4,22,9.2,45.2,3.8,51.8-12,1.3-3.1,1.9-6.4,1.8-9.8h0Z"/>
      <path class="cls-2" d="M1675.3,201.1h107.2l-76.4,76.4h0c-2.1,2.1-4.5,3.7-7.3,4.9-15.9,6.7-36.2-5.7-45.4-27.7-9.2-22-3.8-45.2,12-51.8,3.1-1.3,6.4-1.9,9.8-1.8h.1Z"/>
      <path class="cls-2" d="M1707.2,111.4l75.9,75.7h-108.1c0,.1,0,0,0,0-2.9,0-5.9-.5-8.6-1.7-15.9-6.5-21.5-29.7-12.5-51.7s29.2-34.6,45.2-28.2c3.1,1.3,5.9,3.3,8.2,5.7h0v.2Z"/>
      <path class="cls-2" d="M1882.3,286.4l-75.7-75.9v108.1c0,3,.5,5.9,1.6,8.6,6.5,15.9,29.7,21.5,51.7,12.5s34.6-29.2,28.2-45.2c-1.3-3.1-3.3-5.9-5.7-8.2h0Z"/>
      <path class="cls-2" d="M1982.2,387.8l.7-.6-52.9-52.9c-36.3,33.7-83.6,51.8-133.3,51-49.9-.8-96.8-20.7-132-56-36.1-36.1-56-84.2-56-135.3s18.1-94.6,51-130.1l-52.9-52.9-.6.7c-46.6,49.5-72.2,114.3-72.2,182.3s27.7,137.9,77.9,188.1c49.2,49.2,114.7,76.9,184.3,77.9,69.4,1,135.6-24.7,186.1-72.2h0Z"/>
    </g>
    <g id="Layer_4" data-name="Layer 4">
      <g class="cls-7">
        <path class="cls-4" d="M1709.3,182.2l-34.1-265.8-152.1,212.1c-4.1,5.9-7.2,12.4-9,19.5-10.3,41.3,24.8,88,78.4,104.2,53.6,16.3,105.4-4,115.7-45.3,2-8.2,2.2-16.5.9-24.8h.2Z"/>
        <path class="cls-4" d="M1401.4-73.1l247.3-32-151.8,212.4h0c-4.2,5.7-9.3,10.6-15.3,14.3-34.4,21.2-85.3-3.5-113.5-55.2-28.2-51.7-23.2-110.9,11.2-132.1,6.8-4.2,14.3-6.5,22.1-7.3h0Z"/>
        <path class="cls-4" d="M1906.2,76.9l-199-165.7,34.3,268.1c1.1,7.3,3.2,14.3,6.7,20.9,20.1,37.5,75.3,44.5,123.2,15.6,48-29,70.6-82.8,50.5-120.4-4-7.4-9.4-13.6-15.7-18.6h0Z"/>
        <path class="cls-4" d="M2168.9,298.6l1.4-1.8-138.9-115.4c-73,94.3-176.4,153.3-291.2,165.9-115.3,12.7-229.8-22.6-322.5-99.6-94.9-78.8-156.2-192-172.5-318.7-15.5-120.1,11.6-239.9,76.1-337.6l-138.9-115.4-1.2,1.9c-91.6,136.6-130.1,304.7-108.4,473.5,21.7,168.7,107.9,333.6,239.9,443.3,129.3,107.4,289.2,156.6,450.1,138.4,160.5-18.2,304.8-101.4,406.2-234.3h0v-.2Z"/>
      </g>
    </g>
    <g id="Layer_5" data-name="Layer 5">
      <g class="cls-7">
        <path class="cls-4" d="M198.2,536.1l17.1,176.3,104.8-137.1c2.8-3.8,5-8,6.3-12.7,7.6-27.1-14.6-58.6-49.7-70.4s-69.7.5-77.4,27.6c-1.5,5.4-1.8,10.9-1.1,16.4h0Z"/>
        <path class="cls-4" d="M396.4,711.1l-164,16.1,104.6-137.2h0c2.9-3.7,6.3-6.8,10.4-9.2,23.2-13.3,56.3,4,73.9,38.8,17.6,34.7,13.1,73.7-10.1,87-4.6,2.6-9.6,4-14.7,4.4h0Z"/>
        <path class="cls-4" d="M362,863.4l-128.3-113.2,165.4-16.3h0c4.5-.4,9,0,13.5,1.5,25.4,8.3,37.6,45.6,27.4,83.1-10.3,37.6-39.2,61.3-64.6,53-5-1.6-9.5-4.5-13.4-8.1h0Z"/>
        <path class="cls-4" d="M65.9,601.7l128.1,113.5-17.2-177.8c-.6-4.9-1.8-9.5-4-14-12.5-25.2-48.8-30.9-81.1-12.8-32.3,18.2-48.3,53.3-35.8,78.5,2.5,5,5.9,9.1,10,12.6h0Z"/>
        <path class="cls-4" d="M-103.1,449.9l-1,1.1,89.4,79.1c50.2-60.8,119.7-97.7,195.8-103.7,76.4-6.1,151.4,19.6,211,72.4,61.1,54,99.3,130,107.5,214.1,7.8,79.6-12.5,158.3-57.1,221.5l89.4,79.1.8-1.2c63.3-88.4,92.2-198.7,81.2-310.6-10.9-111.9-64.5-222.6-149.5-297.7-83.3-73.6-187.9-109.3-294.6-100.6-106.4,8.8-203.5,60.8-273.1,146.5h.2Z"/>
      </g>
    </g>
  </g>
  <g id="green" class="cls-8">
    <g class="cls-7">
      <path class="cls-4" d="M25.7,615.4l18.6,191.4,113.8-148.8c3-4.1,5.4-8.7,6.9-13.8,8.3-29.4-15.9-63.7-54-76.5-38.1-12.8-75.7.5-84,29.9-1.6,5.8-2,11.8-1.2,17.8h0Z"/>
      <path class="cls-4" d="M241,805.4l-178.1,17.5,113.6-149h0c3.2-4,6.9-7.4,11.3-9.9,25.2-14.5,61.1,4.4,80.2,42.1,19.1,37.7,14.2,80-11,94.5-5,2.9-10.4,4.4-16,4.7h0Z"/>
      <path class="cls-4" d="M203.6,970.9l-139.3-122.9,179.6-17.7h0c4.9-.4,9.8,0,14.6,1.7,27.6,9.1,40.9,49.5,29.8,90.3-11.2,40.8-42.6,66.6-70.1,57.6-5.5-1.8-10.3-4.9-14.6-8.8h0Z"/>
      <path class="cls-4" d="M-117.9,686.6l139.1,123.2L2.5,616.8c-.6-5.3-2-10.4-4.4-15.1-13.6-27.4-53-33.6-88.1-13.9-35,19.7-52.4,57.9-38.9,85.2,2.7,5.4,6.4,9.9,10.9,13.7h0Z"/>
      <path class="cls-4" d="M-301.4,521.8l-1,1.2,97.1,85.9c54.5-66,130-106.1,212.6-112.6,83-6.6,164.4,21.3,229.2,78.6,66.3,58.7,107.8,141.2,116.7,232.4,8.4,86.5-13.6,171.9-62,240.5l97.1,85.9.9-1.3c68.7-96,100.1-215.7,88.2-337.3-11.9-121.5-70-241.7-162.3-323.3-90.4-79.9-204-118.7-319.8-109.2-115.6,9.5-220.9,66.1-296.6,159.1h0Z"/>
    </g>
    <g class="cls-7">
      <path class="cls-4" d="M1657.6,383.7l-37-288.6-165.2,230.4c-4.4,6.4-7.8,13.4-9.8,21.2-11.2,44.8,26.9,95.5,85.1,113.2,58.2,17.7,114.5-4.3,125.7-49.1,2.2-8.9,2.4-17.9,1-27h0Z"/>
      <path class="cls-4" d="M1323.3,106.4l268.5-34.8-164.9,230.6h0c-4.6,6.2-10.1,11.5-16.6,15.6-37.4,23-92.6-3.8-123.2-60-30.6-56.2-25.2-120.4,12.2-143.4,7.4-4.6,15.5-7.1,24-7.9h0Z"/>
      <path class="cls-4" d="M1372.2-145.6l216.4,179.4-270.8,35.2h0c-7.3.8-14.9.3-22.2-1.8-42.1-12.4-64.1-72.9-49.2-135.1,15-62.2,61.3-102.7,103.4-90.4,8.3,2.4,15.8,6.9,22.4,12.6h0Z"/>
      <path class="cls-4" d="M1871.5,269.3l-216-179.9,37.2,291.1c1.2,8,3.5,15.6,7.3,22.7,21.8,40.8,81.7,48.3,133.8,16.9,52.1-31.5,76.6-89.9,54.9-130.7-4.3-8.1-10.2-14.7-17-20.1h0Z"/>
      <path class="cls-4" d="M2156.7,510l1.5-1.9-150.9-125.3c-79.3,102.4-191.6,166.4-316.2,180.2-125.2,13.8-249.5-24.6-350.2-108.2-103-85.6-169.6-208.5-187.3-346.1-16.8-130.4,12.6-260.5,82.7-366.6l-150.8-125.3-1.3,2.1c-99.5,148.4-141.3,330.9-117.7,514.1,23.6,183.2,117.1,362.2,260.4,481.3,140.4,116.7,314.1,170.1,488.7,150.3,174.3-19.7,331-110.2,441.1-254.4h0Z"/>
    </g>
  </g>
  <g id="purple" class="cls-8">
    <g class="cls-6">
      <path class="cls-3" d="M1657.6,383.7l-37-288.6-165.2,230.4c-4.4,6.4-7.8,13.4-9.8,21.2-11.2,44.8,26.9,95.5,85.1,113.2,58.2,17.7,114.5-4.3,125.7-49.1,2.2-8.9,2.4-17.9,1-27h0Z"/>
      <path class="cls-3" d="M1323.3,106.4l268.5-34.8-164.9,230.6h0c-4.6,6.2-10.1,11.5-16.6,15.6-37.4,23-92.6-3.8-123.2-60-30.6-56.2-25.2-120.4,12.2-143.4,7.4-4.6,15.5-7.1,24-7.9h0Z"/>
      <path class="cls-3" d="M1372.2-145.6l216.4,179.4-270.8,35.2h0c-7.3.8-14.9.3-22.2-1.8-42.1-12.4-64.1-72.9-49.2-135.1,15-62.2,61.3-102.7,103.4-90.4,8.3,2.4,15.8,6.9,22.4,12.6h0Z"/>
      <path class="cls-3" d="M1871.5,269.3l-216-179.9,37.2,291.1c1.2,8,3.5,15.6,7.3,22.7,21.8,40.8,81.7,48.3,133.8,16.9,52.1-31.5,76.6-89.9,54.9-130.7-4.3-8.1-10.2-14.7-17-20.1h0Z"/>
      <path class="cls-3" d="M2156.7,510l1.5-1.9-150.9-125.3c-79.3,102.4-191.6,166.4-316.2,180.2-125.2,13.8-249.5-24.6-350.2-108.2-103-85.6-169.6-208.5-187.3-346.1-16.8-130.4,12.6-260.5,82.7-366.6l-150.8-125.3-1.3,2.1c-99.5,148.4-141.3,330.9-117.7,514.1,23.6,183.2,117.1,362.2,260.4,481.3,140.4,116.7,314.1,170.1,488.7,150.3,174.3-19.7,331-110.2,441.1-254.4h0Z"/>
    </g>
    <g class="cls-6">
      <path class="cls-3" d="M25.7,615.4l18.6,191.4,113.8-148.8c3-4.1,5.4-8.7,6.9-13.8,8.3-29.4-15.9-63.7-54-76.5-38.1-12.8-75.7.5-84,29.9-1.6,5.8-2,11.8-1.2,17.8h0Z"/>
      <path class="cls-3" d="M241,805.4l-178.1,17.5,113.6-149h0c3.2-4,6.9-7.4,11.3-9.9,25.2-14.5,61.1,4.4,80.2,42.1,19.1,37.7,14.2,80-11,94.5-5,2.9-10.4,4.4-16,4.7h0Z"/>
      <path class="cls-3" d="M203.6,970.9l-139.3-122.9,179.6-17.7h0c4.9-.4,9.8,0,14.6,1.7,27.6,9.1,40.9,49.5,29.8,90.3-11.2,40.8-42.6,66.6-70.1,57.6-5.5-1.8-10.3-4.9-14.6-8.8h0Z"/>
      <path class="cls-3" d="M-117.9,686.6l139.1,123.2L2.5,616.8c-.6-5.3-2-10.4-4.4-15.1-13.6-27.4-53-33.6-88.1-13.9-35,19.7-52.4,57.9-38.9,85.2,2.7,5.4,6.4,9.9,10.9,13.7h0Z"/>
      <path class="cls-3" d="M-301.4,521.8l-1,1.2,97.1,85.9c54.5-66,130-106.1,212.6-112.6,83-6.6,164.4,21.3,229.2,78.6,66.3,58.7,107.8,141.2,116.7,232.4,8.4,86.5-13.6,171.9-62,240.5l97.1,85.9.9-1.3c68.7-96,100.1-215.7,88.2-337.3-11.9-121.5-70-241.7-162.3-323.3-90.4-79.9-204-118.7-319.8-109.2-115.6,9.5-220.9,66.1-296.6,159.1h0Z"/>
    </g>
  </g>
  <g id="orange">
    <g class="cls-6">
      <path class="cls-1" d="M1659,385.9l-37-288.6-165.2,230.4c-4.4,6.4-7.8,13.4-9.8,21.2-11.2,44.8,26.9,95.5,85.1,113.2,58.2,17.7,114.5-4.3,125.7-49.1,2.2-8.9,2.4-17.9,1-27h0Z"/>
      <path class="cls-1" d="M1324.7,108.6l268.5-34.8-164.9,230.6h0c-4.6,6.2-10.1,11.5-16.6,15.6-37.4,23-92.6-3.8-123.2-60-30.6-56.2-25.2-120.4,12.2-143.4,7.4-4.6,15.5-7.1,24-7.9h0Z"/>
      <path class="cls-1" d="M1373.6-143.3l216.4,179.4-270.8,35.2h0c-7.3.8-14.9.3-22.2-1.8-42.1-12.4-64.1-72.9-49.2-135.1,15-62.2,61.3-102.7,103.4-90.4,8.3,2.4,15.8,6.9,22.4,12.6h0Z"/>
      <path class="cls-1" d="M1872.9,271.6l-216-179.9,37.2,291.1c1.2,8,3.5,15.6,7.3,22.7,21.8,40.8,81.7,48.3,133.8,16.9,52.1-31.5,76.6-89.9,54.9-130.7-4.3-8.1-10.2-14.7-17-20.1h0Z"/>
      <path class="cls-1" d="M2158,512.2l1.5-1.9-150.9-125.3c-79.3,102.4-191.6,166.4-316.2,180.2-125.2,13.8-249.5-24.6-350.2-108.2-103-85.6-169.6-208.5-187.3-346.1-16.8-130.4,12.6-260.5,82.7-366.6l-150.8-125.3-1.3,2.1c-99.5,148.4-141.3,330.9-117.7,514.1,23.6,183.2,117.1,362.2,260.4,481.3,140.4,116.7,314.1,170.1,488.7,150.3,174.3-19.7,331-110.2,441.1-254.4h0Z"/>
    </g>
    <g class="cls-6">
      <path class="cls-1" d="M25.7,615.4l18.6,191.4,113.8-148.8c3-4.1,5.4-8.7,6.9-13.8,8.3-29.4-15.9-63.7-54-76.5-38.1-12.8-75.7.5-84,29.9-1.6,5.8-2,11.8-1.2,17.8h0Z"/>
      <path class="cls-1" d="M241,805.4l-178.1,17.5,113.6-149h0c3.2-4,6.9-7.4,11.3-9.9,25.2-14.5,61.1,4.4,80.2,42.1,19.1,37.7,14.2,80-11,94.5-5,2.9-10.4,4.4-16,4.7h0Z"/>
      <path class="cls-1" d="M203.6,970.9l-139.3-122.9,179.6-17.7h0c4.9-.4,9.8,0,14.6,1.7,27.6,9.1,40.9,49.5,29.8,90.3-11.2,40.8-42.6,66.6-70.1,57.6-5.5-1.8-10.3-4.9-14.6-8.8h0Z"/>
      <path class="cls-1" d="M-117.9,686.6l139.1,123.2L2.5,616.8c-.6-5.3-2-10.4-4.4-15.1-13.6-27.4-53-33.6-88.1-13.9-35,19.7-52.4,57.9-38.9,85.2,2.7,5.4,6.4,9.9,10.9,13.7h0Z"/>
      <path class="cls-1" d="M-301.4,521.8l-1,1.2,97.1,85.9c54.5-66,130-106.1,212.6-112.6,83-6.6,164.4,21.3,229.2,78.6,66.3,58.7,107.8,141.2,116.7,232.4,8.4,86.5-13.6,171.9-62,240.5l97.1,85.9.9-1.3c68.7-96,100.1-215.7,88.2-337.3-11.9-121.5-70-241.7-162.3-323.3-90.4-79.9-204-118.7-319.8-109.2-115.6,9.5-220.9,66.1-296.6,159.1h0Z"/>
    </g>
  </g>
</svg>