<?xml version="1.0" encoding="UTF-8"?>
<svg id="Layer_1" data-name="Layer 1" xmlns="http://www.w3.org/2000/svg" version="1.1" viewBox="0 0 88 89">
  <path d="M18.6,62.4c-.9-1.6-1.6-3.3-2.3-5.1-1-2.6-1.3-6.5-1.1-10.7.2-9.4,2.4-20.3,2.4-20.3.1-.6.7-1,1.3-1,0,0,15.4.4,27.4-9.8.5-.4,1.2-.4,1.6,0,4.5,3.8,9.5,6.1,13.9,7.6.4,0,.8-.1,1.2,0l2.5.2c0,0,.1,0,.2,0,0,0,0,0,.1,0l1.9-1.6c.7-.6,1.6-.9,2.5-.9s1.8.3,2.5.9l1.9,1.6s0,0,.1,0c0,0,.1,0,.2,0l2.5-.2c.9,0,1.8.2,2.6.7.7.5,1.3,1.3,1.5,2.2l.6,2.4c0,0,0,0,0,.1,0,0,0,0,.1.1l2.1,1.3c.8.5,1.4,1.2,1.7,2.1.3.9.3,1.8,0,2.7l-.9,2.3s0,0,0,.2,0,.1,0,.2l.9,2.3c.3.9.4,1.8,0,2.7-.3.9-.9,1.6-1.7,2.1l-2.1,1.3s0,0-.1.1c0,0,0,0,0,.1l-.6,2.4c-.2.9-.8,1.7-1.5,2.2-.7.5-1.7.8-2.6.7l-2.5-.2c0,0-.1,0-.2,0,0,0,0,0-.1,0l-1.9,1.6c-.7.6-1.6.9-2.5.9s-1.8-.3-2.5-.9l-1.9-1.6s0,0-.1,0c0,0-.1,0-.2,0l-2.5.2c-.9,0-1.8-.2-2.6-.7-.2-.2-.4-.3-.6-.5h-11.5v31.5h-2.5v-31.5h-25.8v-2.5h25.8v-27.2h2.5v27.2h10.4l-.4-1.6c0,0,0,0,0-.1,0,0,0,0-.1-.1l-2.1-1.3c-.8-.5-1.4-1.2-1.7-2.1-.3-.9-.3-1.8,0-2.7l.9-2.3s0,0,0-.2,0-.1,0-.2l-.9-2.3c-.3-.9-.4-1.8,0-2.7.3-.9.9-1.6,1.7-2.1l2.1-1.3s0,0,.1-.1c0,0,0,0,0-.1l.6-2.4c0-.4.2-.7.4-1.1-4-1.4-8.3-3.6-12.3-6.8-10.6,8.6-23.5,9.6-27.2,9.7-.5,2.9-2,11.3-2.2,18.8,0,3.8.1,7.4,1,9.8.6,1.7,1.3,3.3,2.1,4.8l7.5-4.1,11.3,6.2s0,1.9,0,5.5c0,3.9-1.4,7.1-3.3,9.4,5,3.6,9.3,5.6,10.7,6.2,3.2-1.4,22-10.3,28.4-28,.2-.6.4-1.3.5-2l2.5.5c-.2.9-.4,1.7-.6,2.4-7.4,20.3-30.3,29.6-30.3,29.6-.3.1-.6.1-.9,0,0,0-5.5-2.2-11.9-6.9-3,3-6.3,4.3-6.3,4.3,0,0-11.4-4.7-11.3-15.6,0-3.6,0-5.5,0-5.5l1.5-.8ZM68.6,80.1c-.3-.1-.5-.4-.5-.7,0-.3.2-.6.5-.7,2.8-1.1,5.1-3.1,6.4-7.2.1-.3.4-.5.7-.5.3,0,.6.2.7.5.7,2.7,2.2,6.2,5.4,7.8.3.1.5.4.4.7,0,.3-.2.6-.5.7-2.1.6-5,2-5.9,5.2,0,.3-.3.5-.6.5-.3,0-.6-.1-.7-.4-1-2-2.8-4.7-5.9-6ZM32.1,66.9v-1c0-2-1.6-3.7-3.7-3.7h0c-2,0-3.7,1.6-3.7,3.7v1h-.9c-.7,0-1.3.6-1.3,1.3v3.4c0,3.2,2.6,5.9,5.9,5.9h0c3.2,0,5.9-2.6,5.9-5.9v-3.4c0-.7-.6-1.3-1.3-1.3h-.9ZM31.8,69.4v2.1c0,1.9-1.5,3.4-3.4,3.4h0c-1.9,0-3.4-1.5-3.4-3.4v-2.1h6.7ZM29.6,66.8h-2.3v-1c0-.6.5-1.2,1.2-1.2h0c.6,0,1.2.5,1.2,1.2v1ZM2.2,44c-.2,0-.4-.3-.4-.6,0-.2.2-.5.4-.5,2.3-.9,4.2-2.5,5.2-5.8,0-.2.3-.4.6-.4.3,0,.5.2.5.4.6,2.1,1.8,5,4.4,6.3.2,0,.4.3.4.6,0,.2-.2.5-.4.5-1.7.5-4,1.6-4.8,4.2,0,.2-.3.4-.5.4-.2,0-.5-.1-.6-.3-.8-1.6-2.2-3.8-4.8-4.8h0ZM61.8,37.2l5,5.4c.2.3.6.4.9.4.4,0,.7-.1.9-.4l10-10.9-1.9-1.7-9.1,9.9-4-4.4-1.8,1.7ZM27.9,11c-.3-.1-.5-.4-.5-.7,0-.3.2-.6.5-.7,2.8-1.1,5.1-3.1,6.4-7.2.1-.3.4-.5.7-.5.3,0,.6.2.7.5.7,2.7,2.2,6.2,5.4,7.8.3.1.5.4.4.7,0,.3-.2.6-.5.7-2.1.6-5,2-5.9,5.2,0,.3-.3.5-.6.5-.3,0-.6-.1-.7-.4-1-2-2.8-4.7-5.9-6Z" fill="#10512a" fill-rule="evenodd" stroke-width="0"/>
</svg>