<?xml version="1.0" encoding="UTF-8"?>
<svg id="Layer_1" data-name="Layer 1" xmlns="http://www.w3.org/2000/svg" version="1.1" viewBox="0 0 88 89">
  <path d="M4.7,68.1H1.6c-.9,0-1.6.7-1.6,1.6v3.1c0,2.1.8,4.1,2.3,5.6,1.5,1.5,3.5,2.3,5.6,2.3h72.3c2.1,0,4.1-.8,5.6-2.3s2.3-3.5,2.3-5.6v-3.1c0-.9-.7-1.6-1.6-1.6h-3.1c1-1.3,1.6-2.9,1.6-4.7V16.2c0-2.1-.8-4.1-2.3-5.6s-3.5-2.3-5.6-2.3H11c-2.1,0-4.1.8-5.6,2.3s-2.3,3.5-2.3,5.6v47.1c0,1.8.6,3.4,1.6,4.7h0ZM77,71.2h-22.9l-2.7,2.7c-.3.3-.7.5-1.1.5h-12.6c-.4,0-.8-.2-1.1-.5l-2.7-2.7H3.1v1.6c0,1.3.5,2.4,1.4,3.3s2.1,1.4,3.3,1.4h72.3c1.3,0,2.4-.5,3.3-1.4s1.4-2.1,1.4-3.3v-1.6h-7.9,0ZM77,68.1c2.6,0,4.7-2.1,4.7-4.7V16.2c0-1.3-.5-2.4-1.4-3.3-.9-.9-2.1-1.4-3.3-1.4H11c-1.3,0-2.4.5-3.3,1.4-.9.9-1.4,2.1-1.4,3.3v47.1c0,2.6,2.1,4.7,4.7,4.7h23.6c.4,0,.8.2,1.1.5l2.7,2.7h11.3l2.7-2.7c.3-.3.7-.5,1.1-.5h23.6,0ZM50.7,50.7c-2.2-.6-4.4-.9-6.8-.9s-4.6.3-6.7.9c1.5,3.7,3.8,6.9,6.8,9,2.9-2.2,5.3-5.3,6.8-9h0ZM34.2,51.7c-1.5.6-2.9,1.4-4.2,2.3,2.4,2.6,5.5,4.5,9,5.4-2-2.2-3.6-4.8-4.8-7.7ZM53.7,51.7c-1.2,2.9-2.8,5.5-4.7,7.7,3.4-.9,6.5-2.8,8.9-5.4-1.3-.9-2.7-1.6-4.1-2.3h-.1ZM59.8,31c-1.6,1.1-3.3,2.1-5.1,2.8.6,2.3.9,4.8.9,7.4s-.4,5.2-1,7.6c1.8.8,3.5,1.7,5.1,2.8,2-3,3.1-6.5,3.1-10.4s-1.1-7.2-3-10.2ZM28,30.9c-1.9,3-3,6.5-3,10.3s1.1,7.4,3.1,10.4c1.6-1.1,3.3-2.1,5.1-2.8-.6-2.4-1-4.9-1-7.6s.3-5.1,1-7.4c-1.8-.8-3.6-1.7-5.2-2.9ZM36.2,34.8c-.5,2-.8,4.2-.8,6.4s.3,4.5.8,6.5c2.4-.7,5-1.1,7.7-1.1s5.3.4,7.8,1.1c.5-2.1.8-4.3.8-6.5s-.3-4.3-.8-6.3c-2.4.7-5,1.1-7.7,1.1s-5.4-.4-7.9-1.1h.1ZM43.9,22.6c-3,2.2-5.3,5.4-6.8,9.2,2.2.6,4.5,1,6.9,1s4.6-.3,6.8-.9c-1.5-3.8-3.9-7-6.8-9.2h-.1ZM48.9,22.9c2,2.2,3.7,4.9,4.8,7.9,1.5-.6,2.9-1.4,4.2-2.3-2.4-2.6-5.5-4.6-9-5.6ZM39,22.9c-3.5.9-6.6,2.9-9,5.5,1.3.9,2.7,1.7,4.2,2.4,1.2-3,2.8-5.6,4.8-7.8h0Z" fill="#10512a" fill-rule="evenodd" stroke-width="0"/>
</svg>