<?xml version="1.0" encoding="UTF-8"?>
<svg id="Layer_1" data-name="Layer 1" xmlns="http://www.w3.org/2000/svg" version="1.1" viewBox="0 0 88 89">
  <path d="M26,48.4v31.3c0,1.1.8,2.4,2.7,3.3,3,1.5,9,2.5,15.9,2.5s12.9-1,15.9-2.5c1.9-.9,2.7-2.2,2.7-3.3v-4.6h-2.9s-4.3,4.2-11.8,7.3c-1.3,0-2.6.1-4,.1-5.5,0-10.4-.7-13.4-1.7-.9-.3-1.6-.6-2-1-.1,0-.3-.2-.3-.3v-7c3,1.4,9,2.4,15.8,2.4s12.9-1,15.9-2.5c1.9-.9,2.7-2.2,2.7-3.3v-4.9h-2.9s-4.5,4.5-12.6,7.7c-1,0-2.1,0-3.2,0-5.5,0-10.4-.7-13.4-1.7-.9-.3-1.6-.6-2-1-.1,0-.3-.2-.3-.3v-7c3,1.4,9,2.4,15.8,2.4s12.9-1,15.9-2.5c1.9-.9,2.7-2.2,2.7-3.3v-4.6h-2.9s-4.2,4.2-11.6,7.4c-1.3,0-2.7.1-4.2.1-5.5,0-10.4-.7-13.4-1.7-.9-.3-1.6-.6-2-1-.1,0-.3-.2-.3-.3v-7c3,1.4,9,2.4,15.8,2.4s12.9-1,15.9-2.5c1.9-.9,2.7-2.2,2.7-3.3s-.8-2.4-2.7-3.3c-3-1.5-9-2.5-15.9-2.5s-12.9,1-15.9,2.5c-1.9.9-2.7,2.2-2.7,3.3h0ZM80.2,34.6c-1.3-1.4-2.8-2.6-4.4-3.6-.3-.2-.5-.4-.6-.8-3.8-10.5-14.1-18-26.2-18s-26.8,11-27.7,24.9c0,.7-.7,1.3-1.4,1.3-7.7.1-13.8,6.1-13.8,13.6s6.3,13.6,14.1,13.6h2.1v2.9h-2.1c-9.4,0-17-7.4-17-16.4s6.7-15.6,15.4-16.4c1.7-14.8,14.7-26.4,30.5-26.4s24.5,8.1,28.8,19.4c6.2,3.9,10.3,10.5,10.3,18.2,0,10.9-8.4,20-19.3,21.4-1,.1-2.1.2-2.1.2l-.2-2.9h0c0-1.1-.1-2.5-.2-3.7,2.7-.8,5.1-1.6,8.5-4.4,5.7-4.7,7.6-13.2,5.5-23.1h0ZM60.4,48.4c0,0-.2.2-.2.2-.5.4-1.2.7-2,1-3,1-7.9,1.7-13.4,1.7s-10.4-.7-13.4-1.7c-.9-.3-1.6-.6-2-1,0,0-.2-.2-.2-.2,0,0,.2-.2.2-.2.5-.4,1.2-.7,2-1,3-1,7.9-1.7,13.4-1.7s10.4.7,13.4,1.7c.9.3,1.6.6,2,1,0,0,.2.1.2.2ZM48.7,20.8c11,0,19.9,8.9,19.9,19.9v1.4h2.9v-1.4c0-12.6-10.2-22.8-22.8-22.8h-1.4v2.9h1.4ZM1.5,28.1h12.9v-2.9H1.5v2.9ZM0,5.6l16.1,16.1,2-2L2,3.6,0,5.6ZM21.2,4.2v12.9h2.9V4.2h-2.9Z" fill="#10512a" fill-rule="evenodd" stroke-width="0"/>
</svg>