<?xml version="1.0" encoding="UTF-8"?>
<svg id="Layer_1" data-name="Layer 1" xmlns="http://www.w3.org/2000/svg" version="1.1" viewBox="0 0 90 89">
  <path d="M10.2,53.8c-5.5,3-9.2,8.8-9.2,15.5,0,9.8,7.9,17.7,17.7,17.7s17.7-7.9,17.7-17.7-7.9-17.7-17.7-17.7-3.9.3-5.6.9v-26.2c0-.8,0-1.5.1-2.3h17.7c.8,0,1.4-.6,1.4-1.4V4.9c.8,0,1.5-.1,2.3-.1h36.1v18.8c-1.9,1.5-4.2,2.4-6.8,2.4v2.8c2.6,0,4.9.9,6.8,2.5v13.9c-6.6-2.3-11.4-9-11.4-16.8h-2.8c0,9.8-7.4,17.7-16.7,17.7v2.8c9.2,0,16.7,8,16.7,17.7v1.4h2.8v-1.4c0-.3,0-.7,0-1,.2-3.1,1.1-6,2.6-8.5l.6-.9c1.1-1.6,2.5-3,4-4.2,1.3-1,2.7-1.7,4.3-2.3v26.1h-33v2.8h34.5c.8,0,1.4-.6,1.4-1.4v-28.2c.8-.1,1.6-.2,2.4-.2v-2.9c-.8,0-1.6,0-2.4-.2v-11.3c1,1.8,1.6,3.9,1.6,6.1v1.4h2.8v-1.4c0-6.5,5-11.8,11.2-11.8v-2.9c-6.2,0-11.2-5.4-11.2-11.9h-2.8c0,2.2-.6,4.3-1.6,6.1V3.4c0-.8-.6-1.4-1.4-1.4h-37.5c-13.4,0-24.3,10.9-24.3,24.3v27.5ZM3.8,69.3c0-8.2,6.7-14.8,14.8-14.8s14.8,6.7,14.8,14.8-6.7,14.8-14.8,14.8-14.8-6.7-14.8-14.8ZM17.2,67.9h-8.1v2.8h8.1v8.1h2.8v-8.1h8.1v-2.8h-8.1v-8.1h-2.8v8.1ZM59.1,38.9c-.5-.9-.9-1.8-1.3-2.7-2,5.2-6,9.4-11,11.4,0,0,.1,0,.2,0,5.6-.7,10.2-3.5,12.1-8.8ZM77.7,22.8c-.5-.7-.9-1.4-1.3-2.2-1.4,3-3.7,5.4-6.6,6.9,0,0,.1,0,.2.1,3.3-.6,6.2-2.1,7.7-4.8ZM29.4,5.4c-7.5,1.8-13.5,7.7-15.6,15.1.9-1.7,2.5-4.2,5.6-6.7,4.4-3.6,8.5-4.7,10-5v-3.5Z" fill="#10512a" fill-rule="evenodd" stroke-width="0"/>
</svg>