<svg xmlns="http://www.w3.org/2000/svg" viewBox="0 0 72.74 16.825">
  <title>WordPress experts</title>
  <g data-name="WP experts">
    <path d="M8.232,0C3.694,0,0,3.691,0,8.232s3.694,8.232,8.232,8.232,8.232-3.694,8.232-8.232S12.769,0,8.232,0ZM.83,8.232c0-1.072,.229-2.091,.641-3.011l3.532,9.672C2.533,13.692,.83,11.16,.83,8.232Zm7.402,7.402c-.727,0-1.427-.106-2.091-.302l2.221-6.453,2.274,6.234c.017,.037,.033,.07,.053,.103-.767,.269-1.593,.418-2.456,.418Zm1.019-10.871c.445-.023,.846-.07,.846-.07,.398-.046,.352-.634-.046-.611,0,0-1.198,.093-1.972,.093-.727,0-1.948-.093-1.948-.093-.398-.023-.445,.588-.046,.611,0,0,.378,.046,.777,.07l1.152,3.16-1.62,4.856L3.698,4.763c.445-.023,.846-.07,.846-.07,.398-.046,.352-.634-.046-.611,0,0-1.198,.093-1.972,.093-.139,0-.302-.003-.478-.01C3.372,2.158,5.646,.83,8.232,.83c1.925,0,3.681,.737,4.999,1.942-.033-.003-.063-.007-.096-.007-.727,0-1.241,.634-1.241,1.314,0,.611,.352,1.125,.727,1.736,.282,.491,.611,1.125,.611,2.041,0,.634-.242,1.368-.564,2.393l-.737,2.466-2.679-7.953h0Zm2.702,9.865l2.26-6.536c.422-1.056,.564-1.899,.564-2.652,0-.272-.017-.524-.05-.76,.578,1.056,.906,2.264,.906,3.552,0,2.732-1.48,5.115-3.681,6.396Z" style="fill: #262828;"/>
    <path d="M25.763,10.064c-.479,.675-1.349,1.065-2.236,1.065-1.242,0-2.13-.621-2.36-1.774h6.424c.018-.302,.035-.568,.035-.799,0-2.591-1.863-4.277-4.223-4.277-2.378,0-4.347,1.704-4.347,4.347,0,2.591,1.881,4.366,4.347,4.366,1.509,0,2.981-.675,3.745-1.881l-1.384-1.047Zm-2.343-3.957c1.153,0,2.041,.674,2.165,1.81h-4.419c.248-1.26,1.154-1.81,2.254-1.81Zm9.175,2.147l3.265,4.525h-2.431l-2.005-2.857-2.023,2.857h-2.414l3.265-4.525-2.715-3.762h2.431l1.455,2.112,1.455-2.112h2.431l-2.715,3.762Zm8.324-3.975c-.994,0-2.182,.426-2.75,1.313v-1.1h-2.059v12.333h2.059v-5.146c.568,.887,1.721,1.313,2.768,1.313,2.183,0,4.064-1.704,4.064-4.348,0-2.662-1.899-4.365-4.082-4.365Zm-.319,6.796c-1.189,0-2.395-.958-2.395-2.431,0-1.455,1.136-2.449,2.395-2.449,1.278,0,2.342,1.083,2.342,2.449,0,1.384-1.064,2.431-2.342,2.431Zm9.14-6.796c-2.378,0-4.347,1.704-4.347,4.347,0,2.591,1.881,4.366,4.347,4.366,1.508,0,2.981-.675,3.744-1.881l-1.384-1.047c-.479,.675-1.349,1.065-2.236,1.065-1.242,0-2.129-.621-2.36-1.774h6.424c.018-.302,.035-.568,.035-.799,0-2.591-1.863-4.277-4.223-4.277Zm-2.236,3.638c.248-1.26,1.153-1.81,2.254-1.81,1.153,0,2.041,.674,2.165,1.81h-4.419Zm11.731-3.638c.497,0,1.029,.106,1.349,.284l-.408,1.952c-.479-.248-.905-.302-1.207-.302-1.349,0-2.094,1.349-2.094,3.673v2.892h-2.076V4.492h2.059v1.774c.443-1.384,1.348-1.987,2.378-1.987Zm6.921,1.846h-1.757v6.654h-2.058V6.125h-1.491v-1.633h1.491V1.44h2.058v3.052h1.757v1.633Zm6.584,4.259c0,1.685-1.686,2.608-3.372,2.608-1.65,0-3.301-.994-3.336-2.768h1.934c0,.568,.497,1.1,1.366,1.1,.816,0,1.349-.408,1.349-.94,0-.462-.355-.675-.976-.816l-1.1-.284c-1.863-.497-2.342-1.491-2.342-2.538,0-1.296,1.278-2.467,3.088-2.467,1.473,0,3.141,.745,3.123,2.591h-1.97c0-.568-.515-.923-1.1-.923-.639,0-1.083,.372-1.083,.887,0,.426,.408,.674,.887,.781l1.331,.355c1.863,.479,2.201,1.65,2.201,2.414Z" style="fill: #262828;"/>
  </g>
</svg>