<?xml version="1.0" standalone="no"?>
<!DOCTYPE svg PUBLIC "-//W3C//DTD SVG 20010904//EN"
 "http://www.w3.org/TR/2001/REC-SVG-20010904/DTD/svg10.dtd">
<svg version="1.0"
     xmlns="http://www.w3.org/2000/svg" width="275.000000pt" height="183.000000pt" viewBox="0 0 275.000000 183.000000" preserveAspectRatio="xMidYMid meet">

     <g transform="translate(0.000000,183.000000) scale(0.100000,-0.100000)" fill="#000000" stroke="none">
          <path d="M10 1377 c1 -335 4 -447 13 -451 9 -3 9 -5 0 -5 -10 -1 -13 -99 -13
-456 l0 -455 516 0 c412 0 515 3 507 12 -5 7 -79 101 -165 208 -167 210 -318
407 -325 427 -3 7 -1 13 5 13 5 0 61 -69 125 -152 119 -159 261 -341 304 -393
14 -16 39 -49 56 -73 l30 -42 156 1 156 0 60 77 c33 42 86 113 119 157 33 44
66 86 73 93 16 16 16 22 3 22 -6 0 -16 -11 -22 -25 -14 -31 -37 -32 -63 -2
l-20 22 -3 -32 c-3 -31 -6 -33 -40 -33 -20 0 -44 5 -52 10 -10 6 -11 10 -2 10
6 0 12 6 12 14 0 8 8 17 18 19 11 3 8 5 -9 6 -14 0 -34 10 -44 21 -17 19 -17
20 1 21 11 0 6 5 -13 10 -22 6 -30 14 -27 23 6 15 2 15 -53 2 -22 -5 -30 -12
-26 -22 3 -8 0 -14 -6 -14 -6 0 -11 6 -11 13 0 7 -17 28 -38 47 -33 29 -34 32
-12 27 14 -4 19 -4 12 -1 -6 3 -10 10 -6 15 8 14 -9 11 -34 -7 -29 -20 -56
-11 -47 16 4 13 2 20 -7 20 -8 0 -23 7 -34 15 -18 15 -17 16 16 10 28 -5 32
-4 17 5 -9 6 -15 15 -12 20 7 11 -22 19 -80 24 -22 2 -45 4 -52 5 -20 2 -42
31 -37 46 7 17 25 20 21 4 -1 -6 4 -14 12 -17 8 -3 11 0 7 7 -13 20 -11 19
197 -79 28 -13 44 -26 37 -30 -6 -4 4 -7 22 -7 17 0 34 -5 36 -11 2 -7 7 -10
12 -7 5 3 81 -26 169 -65 89 -38 172 -72 186 -76 26 -6 32 -18 15 -29 -5 -3
-10 -12 -9 -18 0 -9 2 -9 5 -1 7 16 64 -5 64 -23 0 -7 -15 -20 -32 -29 -18 -9
-36 -21 -39 -27 -9 -13 -29 0 -29 19 0 21 -21 17 -27 -6 -3 -11 -10 -20 -15
-20 -6 0 -8 -7 -5 -14 4 -9 1 -13 -6 -11 -7 2 -26 -15 -44 -38 -17 -23 -52
-68 -77 -99 l-46 -58 670 0 670 0 0 35 c0 19 -3 35 -6 35 -4 0 -59 12 -122 26
-115 26 -126 31 -166 84 -6 9 -32 32 -57 53 -26 21 -49 46 -52 57 -7 28 3 25
31 -7 21 -26 22 -26 17 -5 -8 28 9 29 29 0 13 -18 16 -19 16 -5 0 21 13 22 31
1 12 -14 14 -13 21 6 7 18 11 20 23 10 8 -7 43 -13 78 -14 38 0 71 -7 80 -15
15 -12 17 -11 17 4 0 14 3 15 15 5 8 -7 22 -10 30 -6 13 5 15 55 15 386 0 331
-2 380 -15 380 -9 0 -15 -9 -15 -25 0 -24 -3 -25 -56 -25 -40 0 -54 -3 -51
-12 2 -7 10 -12 16 -10 6 1 11 -2 11 -7 0 -5 8 -12 18 -14 9 -3 -10 -6 -43 -7
-46 -1 -54 -4 -35 -10 l25 -8 -26 -1 c-14 -1 -39 3 -55 8 -16 5 -60 14 -99 20
-155 26 -194 38 -167 55 5 3 9 18 10 33 0 15 8 62 17 103 9 41 25 121 35 177
10 56 21 112 25 123 3 11 3 20 -2 20 -7 0 -28 -88 -55 -245 -6 -33 -15 -63
-20 -66 -5 -3 -11 -23 -14 -45 -2 -21 -8 -48 -11 -59 -4 -11 -7 -27 -7 -35 -1
-10 -11 -15 -31 -15 -38 0 -42 22 -20 113 10 37 19 76 20 87 19 121 40 222 48
233 7 9 1 12 -24 11 -19 -1 -26 -3 -16 -6 9 -2 17 -5 17 -6 0 -5 -43 -209 -56
-267 -8 -36 -17 -82 -21 -103 -6 -41 -22 -54 -50 -41 -10 4 -31 8 -48 9 -29 3
-29 2 25 -47 30 -27 69 -56 85 -63 20 -9 24 -14 12 -14 -9 -1 -35 10 -57 24
-22 14 -49 25 -61 25 -15 0 -19 5 -15 15 3 10 -1 15 -14 15 -10 0 -28 12 -39
26 -11 14 -25 23 -31 19 -6 -3 -10 4 -11 17 0 13 -3 17 -6 11 -8 -21 -20 -15
-33 17 -12 29 -11 32 23 65 l36 35 -5 -44 c-4 -25 -1 -46 4 -50 7 -4 13 13 17
41 4 27 11 72 16 102 11 69 12 111 0 111 -5 0 -12 -21 -15 -47 -14 -99 -14
-100 -45 -95 -17 2 -34 -3 -45 -13 -13 -13 -26 -16 -54 -11 -46 8 -108 16
-145 18 -30 1 -106 -20 -122 -34 -5 -4 -23 -8 -41 -8 -17 0 -49 -6 -70 -13
-39 -14 -93 -15 -113 -2 -6 3 -11 14 -11 23 0 12 -2 14 -8 4 -10 -14 -68 -33
-76 -24 -3 3 -6 15 -7 26 0 21 -1 21 -8 1 -10 -24 4 -55 24 -55 7 0 15 -6 18
-12 3 -10 8 -10 18 -2 15 11 59 17 59 7 0 -4 -11 -35 -25 -70 -31 -77 -52
-227 -35 -248 9 -11 7 -16 -9 -24 -11 -6 -19 -20 -18 -31 2 -25 3 -25 54 4 59
34 74 12 28 -42 -23 -27 -29 -30 -58 -21 -43 12 -44 12 -13 -12 15 -12 25 -24
22 -27 -6 -5 17 -21 59 -41 33 -16 92 -64 70 -57 -101 30 -215 78 -348 145
-86 45 -164 81 -172 81 -19 0 -19 16 0 24 8 3 13 11 11 18 -1 7 -1 10 1 6 8
-14 25 -8 20 6 -4 9 5 15 26 19 18 3 40 8 50 12 12 5 17 2 17 -9 0 -9 5 -16
10 -16 6 0 4 13 -5 30 -24 47 -18 65 37 114 l51 45 -43 53 c-24 29 -45 55 -47
57 -2 3 -28 -3 -59 -13 -73 -23 -80 -16 -9 9 46 15 55 22 55 42 0 16 4 22 12
17 13 -8 3 12 -20 39 -14 16 -14 17 1 11 10 -3 17 -1 17 5 0 16 -26 13 -44 -5
-20 -20 -20 -28 0 -20 8 3 12 2 9 -4 -9 -14 -52 -13 -61 2 -5 8 -1 9 12 4 13
-5 16 -4 9 3 -6 6 -24 7 -47 2 -28 -7 -38 -5 -42 5 -3 7 0 16 6 20 7 4 8 3 4
-4 -4 -7 -1 -12 8 -12 26 0 28 19 1 26 -20 5 -25 13 -26 38 0 17 -3 43 -5 58
-5 33 13 73 53 112 l28 29 -37 -5 c-21 -2 -38 0 -38 4 0 4 12 8 28 8 15 0 34
5 42 10 13 8 12 10 -2 10 -11 0 -18 8 -18 20 0 11 -4 20 -8 20 -5 0 -18 8 -30
18 -33 29 -56 102 -31 102 5 0 8 -4 5 -9 -10 -15 22 -21 106 -21 45 0 79 -3
75 -6 -3 -3 -43 -6 -89 -7 -69 0 -77 -1 -48 -9 19 -5 40 -9 47 -10 7 -1 10 -4
8 -8 -2 -4 11 -21 30 -38 19 -16 35 -37 35 -46 0 -9 8 -16 18 -16 14 0 15 -2
2 -10 -12 -7 -12 -13 -1 -33 7 -13 11 -39 9 -57 -3 -31 -7 -35 -43 -44 -50
-11 -47 -8 -39 -40 8 -31 17 -32 55 -5 l29 20 0 -45 c0 -25 4 -46 10 -46 6 0
8 37 6 95 -4 93 -1 106 20 85 7 -7 16 -4 29 10 10 11 14 20 8 20 -6 0 -8 12
-5 26 4 23 2 25 -17 19 -12 -4 -21 -2 -21 4 0 6 8 11 19 11 22 0 30 28 23 83
-4 33 -7 37 -33 37 -23 0 -27 3 -22 17 4 11 8 12 11 5 5 -17 32 -15 32 2 0 7
-11 33 -24 57 -13 24 -27 55 -30 69 -3 14 -3 19 0 13 3 -7 20 -14 37 -14 29
-2 29 -2 6 -6 l-26 -4 31 -64 c30 -61 33 -64 71 -68 l40 -4 -41 -1 c-39 -2
-40 -3 -36 -32 5 -36 12 -37 42 -5 13 14 25 23 28 20 3 -2 13 6 23 18 20 26
87 74 109 79 8 2 23 11 32 21 13 14 24 17 55 11 21 -4 57 -7 81 -8 23 0 42 -3
42 -7 0 -4 17 -5 38 -3 28 4 33 3 22 -5 -11 -8 0 -11 48 -11 55 0 62 2 62 20
0 13 7 20 20 20 13 0 20 -7 20 -20 0 -13 -5 -18 -15 -14 -11 5 -15 -1 -15 -20
0 -14 -4 -26 -10 -26 -5 0 -10 -7 -10 -15 0 -8 -4 -15 -10 -15 -5 0 -10 5 -10
10 0 6 -6 10 -12 10 -7 0 -1 -12 14 -26 18 -19 31 -24 47 -19 11 3 21 11 21
18 0 8 -3 8 -12 -1 -15 -15 -38 -16 -38 -2 0 6 8 10 18 10 14 0 14 2 3 9 -11
7 -7 13 16 25 17 8 33 12 37 9 3 -4 6 6 6 21 0 15 7 34 15 42 13 14 15 13 15
-8 0 -13 -4 -28 -9 -33 -4 -6 -5 -32 -2 -60 l7 -50 8 70 c10 87 24 127 26 75
1 -29 3 -32 10 -14 8 20 13 65 11 94 -1 13 -2 13 -11 0 -6 -10 -10 -11 -10 -2
0 26 -29 10 -36 -20 -6 -29 -8 -30 -14 -13 -4 11 -3 25 2 31 6 9 -92 12 -382
13 -299 1 -390 -1 -384 -10 5 -9 1 -10 -17 -4 -39 13 -532 19 -524 6 7 -12
-27 -16 -38 -4 -4 3 -106 8 -227 11 l-220 4 0 -445z m577 427 c-3 -3 -12 -4
-19 -1 -8 3 -5 6 6 6 11 1 17 -2 13 -5z m369 -9 c-4 -12 3 -15 34 -15 22 0 40
-4 40 -10 0 -5 -5 -10 -12 -10 -6 0 -4 -6 6 -13 13 -10 17 -24 14 -62 l-3 -50
-22 37 c-14 24 -21 49 -18 68 l4 30 -57 1 c-31 1 -68 5 -82 9 -20 7 -15 9 22
7 27 0 53 4 60 11 16 16 21 15 14 -3z m-258 -2 c-16 -2 -40 -2 -55 0 -16 2 -3
4 27 4 30 0 43 -2 28 -4z m1055 0 c-7 -2 -19 -2 -25 0 -7 3 -2 5 12 5 14 0 19
-2 13 -5z m-6 -29 c-3 -3 -12 -4 -19 -1 -8 3 -5 6 6 6 11 1 17 -2 13 -5z
m-559 -11 c-10 -2 -26 -2 -35 0 -10 3 -2 5 17 5 19 0 27 -2 18 -5z m-291 -9
c-3 -3 -12 -4 -19 -1 -8 3 -5 6 6 6 11 1 17 -2 13 -5z m410 0 c-3 -3 -12 -4
-19 -1 -8 3 -5 6 6 6 11 1 17 -2 13 -5z m470 -26 c-3 -8 -6 -5 -6 6 -1 11 2
17 5 13 3 -3 4 -12 1 -19z m-707 -16 c0 -10 5 -23 12 -30 9 -9 8 -12 -5 -12
-9 0 -17 6 -17 14 0 8 -3 21 -6 30 -3 9 -1 16 5 16 6 0 11 -8 11 -18z m-386
-9 c4 -5 37 -15 74 -23 55 -13 67 -19 67 -35 0 -19 -8 -20 -129 -23 -72 -1
-128 0 -125 2 3 3 49 6 102 7 l97 2 -60 30 c-33 16 -57 34 -54 38 6 11 18 11
28 2z m-362 -14 c29 -7 73 -20 98 -31 25 -11 63 -23 85 -28 30 -6 6 -9 -95
-11 l-135 -3 122 -5 c150 -7 163 -15 166 -107 1 -32 5 -61 9 -64 3 -3 10 -38
13 -77 6 -58 5 -73 -6 -77 -59 -16 -311 -53 -284 -41 6 2 64 14 130 25 154 27
150 26 153 55 2 32 -29 41 -87 25 -43 -11 -86 -6 -76 11 4 5 2 9 -3 9 -15 0
-22 41 -9 45 7 2 38 6 71 9 32 3 61 8 65 12 3 4 -15 4 -40 1 -74 -10 -264 -20
-259 -14 3 3 29 8 59 11 30 3 56 8 58 10 16 15 -41 37 -104 41 -28 1 -27 0
-46 60 -16 51 -9 71 21 60 6 -2 12 0 12 5 0 5 -12 10 -27 12 -25 3 -28 7 -30
41 l-1 37 44 0 c23 0 67 -5 96 -11z m-166 -35 c4 -17 2 -29 -7 -35 -30 -19
-79 -6 -79 20 0 25 20 41 52 41 21 0 29 -6 34 -26z m637 -51 c-7 -2 -21 -2
-30 0 -10 3 -4 5 12 5 17 0 24 -2 18 -5z m-623 -23 c0 -13 -5 -18 -15 -14 -8
4 -15 1 -15 -5 0 -6 4 -11 10 -11 13 0 37 -39 46 -74 5 -22 4 -28 -7 -24 -8 3
-13 13 -11 23 3 13 -1 16 -12 12 -11 -4 -16 -1 -16 12 0 11 -9 21 -21 24 -15
4 -20 11 -15 23 4 10 -1 25 -10 35 -16 18 -15 19 24 19 35 0 42 -3 42 -20z
m440 -78 l21 -38 72 8 c40 4 88 7 107 6 29 0 26 -2 -15 -8 -27 -5 -76 -11
-108 -15 l-58 -7 2 -69 c2 -56 5 -69 18 -68 27 1 97 17 81 18 -13 1 -13 2 0
11 19 12 33 13 25 0 -3 -5 15 -7 47 -3 29 3 51 3 48 0 -9 -10 -218 -45 -229
-38 -8 6 -33 121 -29 140 1 3 -1 13 -5 21 -10 26 -14 80 -6 80 4 0 17 -17 29
-38z m67 12 c-3 -3 -12 -4 -19 -1 -8 3 -5 6 6 6 11 1 17 -2 13 -5z m148 -4
c-3 -5 -13 -10 -21 -10 -8 0 -12 5 -9 10 3 6 13 10 21 10 8 0 12 -4 9 -10z
m-630 -90 c3 -5 -1 -10 -10 -10 -9 0 -13 5 -10 10 3 6 8 10 10 10 2 0 7 -4 10
-10z m660 -141 c8 -48 2 -58 -21 -34 -14 13 -15 18 -4 25 7 4 10 17 7 29 -3
12 -1 21 3 21 5 0 11 -18 15 -41z m-305 -16 c-1 -23 -23 -36 -69 -41 -44 -4
-50 -2 -45 11 7 20 114 47 114 30z m-317 -24 c21 0 21 -1 2 -8 -11 -5 -44 -12
-74 -16 -49 -7 -53 -6 -40 8 17 16 55 27 77 21 8 -2 23 -4 35 -5z m613 -19
c22 0 17 -21 -7 -27 -16 -4 -17 -8 -7 -14 10 -7 11 -9 0 -9 -7 0 -11 -4 -7
-10 5 -8 -85 -39 -160 -55 -64 -13 1 15 73 31 67 15 88 32 51 42 -11 3 -11 1
1 -8 12 -9 10 -11 -12 -6 -34 8 -94 -4 -77 -15 8 -5 1 -11 -22 -17 -23 -6 -36
-5 -41 2 -15 22 -8 33 20 29 16 -3 22 -1 15 4 -21 15 -5 62 17 48 8 -5 8 -11
1 -19 -12 -14 -5 -26 16 -26 8 0 11 5 7 11 -5 8 1 10 19 5 14 -3 29 -2 32 4 4
6 -5 10 -19 10 -14 0 -26 5 -26 11 0 7 17 10 45 7 33 -2 46 1 51 12 5 11 8 12
11 3 3 -7 11 -13 19 -13z m-651 -49 c-5 -15 -12 -20 -28 -16 -59 12 -100 14
-118 5 -10 -6 -19 -7 -19 -2 0 21 145 57 163 41 5 -4 6 -16 2 -28z m395 24 c7
-9 8 -15 2 -15 -5 0 -12 7 -16 15 -3 8 -4 15 -2 15 2 0 9 -7 16 -15z m-140
-63 c9 -3 10 0 4 9 -10 17 -13 49 -3 49 3 0 9 -9 12 -20 7 -28 26 -25 20 3 -5
18 -3 20 8 10 19 -18 29 -16 23 5 -4 13 -2 12 7 -3 17 -29 17 -29 32 -17 18
15 62 -8 62 -33 0 -14 -8 -21 -25 -22 -23 -2 -23 -2 -5 6 28 13 12 13 -41 0
-33 -9 -42 -14 -32 -21 8 -6 1 -7 -22 -4 -28 5 -31 4 -15 -4 16 -8 11 -9 -20
-5 -26 3 -33 2 -20 -4 13 -5 -1 -8 -42 -7 -75 1 -70 9 15 26 l63 13 -58 20
c-56 19 -104 47 -55 32 15 -4 22 -2 22 7 0 8 4 6 11 -4 15 -27 27 -22 23 10
-4 23 -2 23 9 -7 7 -19 19 -37 27 -39z m-94 0 c-6 -6 -56 10 -56 18 0 5 13 3
30 -3 16 -6 28 -13 26 -15z m59 -12 c13 -5 14 -9 5 -9 -8 0 -24 4 -35 9 -13 5
-14 9 -5 9 8 0 24 -4 35 -9z m405 0 c-8 -5 -24 -9 -35 -9 l-20 0 20 9 c11 5
27 9 35 9 13 1 13 0 0 -9z m-443 -16 c-3 -3 -12 -4 -19 -1 -8 3 -5 6 6 6 11 1
17 -2 13 -5z m180 0 c-3 -3 -12 -4 -19 -1 -8 3 -5 6 6 6 11 1 17 -2 13 -5z
m201 0 c-8 -8 -111 -34 -116 -29 -4 4 85 32 107 34 8 1 12 -2 9 -5z m97 -3
c-12 -11 -196 -64 -202 -58 -2 3 20 12 49 20 29 9 73 22 98 30 56 18 67 20 55
8z m-370 -42 c-77 -21 -144 -38 -150 -38 -19 1 30 18 130 44 55 15 105 28 110
30 6 2 19 3 30 4 11 0 -43 -18 -120 -40z m-198 25 c-3 -3 -12 -4 -19 -1 -8 3
-5 6 6 6 11 1 17 -2 13 -5z m578 -13 c-12 -11 -198 -71 -204 -65 -7 7 0 9 99
41 106 34 119 37 105 24z m-579 -8 c-8 -9 -143 -42 -166 -42 -16 1 135 46 159
48 8 0 11 -2 7 -6z m111 1 c-3 -3 -12 -4 -19 -1 -8 3 -5 6 6 6 11 1 17 -2 13
-5z m222 2 c-10 -10 -139 -43 -139 -36 0 4 26 15 58 23 58 15 89 20 81 13z
m-29 -46 c-65 -23 -60 -22 -60 -12 0 9 63 29 95 30 11 0 -5 -8 -35 -18z m-130
0 c-8 -5 -22 -9 -30 -9 -10 0 -8 3 5 9 27 12 43 12 25 0z m-363 -6 c-3 -3 -12
-4 -19 -1 -8 3 -5 6 6 6 11 1 17 -2 13 -5z m110 0 c-3 -3 -12 -4 -19 -1 -8 3
-5 6 6 6 11 1 17 -2 13 -5z m201 -9 c-2 -3 -20 -7 -39 -10 l-34 -5 35 14 c32
12 50 13 38 1z m107 -5 c-3 -5 -12 -10 -19 -10 -7 0 -42 -9 -76 -20 -34 -11
-68 -20 -74 -19 -10 1 149 56 167 58 5 1 5 -3 2 -9z m124 -5 c-5 -5 -262 -85
-273 -85 -3 0 -6 5 -6 10 0 6 8 10 18 10 9 0 64 16 122 34 96 31 151 44 139
31z m1006 -15 c-10 -11 -25 -20 -34 -20 -12 0 -9 6 9 20 33 26 48 26 25 0z
m-1338 -6 c-3 -3 -12 -4 -19 -1 -8 3 -5 6 6 6 11 1 17 -2 13 -5z m328 -13
c-13 -12 -196 -73 -202 -67 -2 2 42 20 99 39 119 41 115 40 103 28z m352 -28
c-3 -10 -5 -4 -5 12 0 17 2 24 5 18 2 -7 2 -21 0 -30z m-24 14 c3 -8 -3 -13
-14 -13 -22 0 -25 12 -6 19 6 3 13 6 13 6 1 1 4 -5 7 -12z m-633 -1 c0 -5
-104 -36 -117 -35 -8 1 95 37 110 38 4 1 7 -1 7 -3z m389 0 c-15 -13 -49 -25
-49 -17 0 5 8 12 18 14 24 6 36 8 31 3z m111 -21 c-32 -14 -46 -24 -34 -25 11
0 25 5 32 12 6 6 14 9 18 6 3 -4 -18 -19 -48 -34 -29 -14 -55 -30 -58 -34 -6
-8 -46 -30 -54 -30 -10 0 -6 40 4 41 6 1 14 2 19 3 5 0 13 4 17 9 4 4 16 7 26
7 10 0 18 5 18 10 0 13 -1 13 -41 -4 -46 -18 -72 -8 -28 12 39 17 147 50 169
51 8 0 -10 -11 -40 -24z m956 12 c-10 -7 -32 -24 -48 -39 -17 -16 -33 -28 -37
-29 -3 0 -15 -3 -26 -5 -11 -3 -38 -4 -60 -3 -22 1 -62 2 -88 1 -43 0 -48 2
-44 19 6 21 -4 24 -63 20 -29 -2 -33 0 -22 11 13 13 56 15 232 7 65 -3 92 0
115 12 36 20 71 25 41 6z m899 -7 c3 -5 -3 -10 -15 -10 -12 0 -18 5 -15 10 3
6 10 10 15 10 5 0 12 -4 15 -10z m-2035 -9 c0 -9 -180 -74 -187 -68 -2 3 158
69 185 76 1 1 2 -3 2 -8z m324 -10 c6 -10 -24 -25 -32 -16 -3 3 1 5 9 5 11 0
11 2 -1 10 -13 8 -13 10 2 10 9 0 19 -4 22 -9z m-644 -10 c0 -9 -89 -35 -96
-28 -3 3 65 29 94 36 1 1 2 -3 2 -8z m1480 -6 c-7 -9 -15 -13 -19 -10 -3 3 1
10 9 15 21 14 24 12 10 -5z m-1395 -15 c-3 -5 5 -16 17 -24 12 -9 19 -16 14
-16 -5 0 -3 -7 4 -15 8 -9 9 -15 2 -15 -6 0 -14 5 -18 11 -3 6 -18 8 -33 5
-25 -6 -25 -5 -5 6 25 15 21 38 -7 38 -16 0 -18 2 -7 14 13 14 42 10 33 -4z
m515 10 c0 -5 -5 -10 -11 -10 -5 0 -7 5 -4 10 3 6 8 10 11 10 2 0 4 -4 4 -10z
m-270 -20 c0 -6 -19 -19 -42 -30 -39 -17 -41 -19 -15 -19 15 -1 27 4 27 9 0 6
9 10 20 10 11 0 20 -5 20 -11 0 -16 -24 -36 -38 -31 -6 2 -12 -1 -12 -7 0 -6
-7 -7 -17 -4 -11 4 -14 3 -9 -5 4 -8 0 -12 -11 -12 -10 0 -27 -6 -38 -13 -31
-20 -77 -38 -70 -27 3 5 -7 3 -22 -5 -15 -8 -34 -15 -41 -15 -21 0 -9 34 13
39 11 2 23 8 26 13 3 5 17 10 30 11 13 1 30 7 37 14 7 7 22 13 33 13 10 0 19
3 19 8 0 4 -11 7 -24 7 -13 0 -22 -3 -20 -6 2 -4 -23 -15 -56 -27 -112 -38
-70 -5 58 46 70 27 128 50 130 51 1 1 2 -4 2 -9z m-455 -10 c-27 -12 -43 -12
-25 0 8 5 22 9 30 9 10 0 8 -3 -5 -9z m115 -9 c-8 -5 -26 -11 -40 -15 -21 -5
-20 -3 5 9 32 15 60 20 35 6z m630 -1 c-20 -13 -33 -13 -25 0 3 6 14 10 23 10
15 0 15 -2 2 -10z m-715 -30 c-3 -5 -12 -10 -18 -10 -7 0 -6 4 3 10 19 12 23
12 15 0z m125 -10 c0 -5 -5 -10 -11 -10 -5 0 -7 5 -4 10 3 6 8 10 11 10 2 0 4
-4 4 -10z m-35 -10 c-3 -5 -12 -10 -18 -10 -7 0 -6 4 3 10 19 12 23 12 15 0z
m402 -26 c-16 -9 -31 -13 -34 -10 -3 3 5 10 18 15 37 15 47 12 16 -5z m-487
-9 c0 -6 -73 -25 -78 -20 -2 2 11 8 29 14 41 11 49 12 49 6z m420 -15 c-19
-12 -30 -12 -30 -1 0 10 31 20 40 14 2 -2 -2 -8 -10 -13z m-291 -3 c-13 -10
-97 -40 -144 -52 -23 -6 -32 -9 -64 -22 -18 -8 -35 -12 -37 -10 -3 2 33 18 78
36 46 17 97 38 113 46 17 7 39 14 50 14 18 0 18 -1 4 -12z m166 -63 c-86 -42
-117 -53 -101 -36 10 10 169 81 181 81 6 -1 -30 -20 -80 -45z m-145 21 c0 -8
-7 -15 -16 -15 -8 0 -13 -4 -10 -9 7 -10 -22 -24 -34 -16 -5 3 -29 -4 -56 -15
-26 -11 -49 -19 -51 -17 -2 3 26 17 62 32 36 15 65 34 65 42 0 7 9 13 20 13
11 0 20 -7 20 -15z m16 -74 c-7 -11 -46 -21 -46 -12 0 13 13 21 32 21 11 0 17
-4 14 -9z m-196 -5 c0 -2 -7 -7 -16 -10 -8 -3 -12 -2 -9 4 6 10 25 14 25 6z
m140 -20 c0 -6 -122 -62 -150 -70 -14 -3 9 11 50 33 68 36 100 47 100 37z
m1859 -140 c6 -7 9 -21 5 -30 -4 -10 0 -18 10 -22 26 -10 18 -19 -20 -21 -28
-1 -37 3 -44 22 -19 49 19 88 49 51z m-414 -58 c22 -6 47 -12 55 -13 35 -5 78
-19 115 -38 54 -26 65 -36 58 -52 -4 -11 -20 -7 -72 19 -37 19 -104 48 -149
66 -45 17 -82 34 -82 37 0 3 8 2 18 -2 9 -4 35 -12 57 -17z m-448 -5 c18 -16
16 -23 -6 -23 -20 0 -45 23 -35 33 9 8 26 4 41 -10z m373 -63 c13 -9 13 -10 0
-10 -8 0 -22 5 -30 10 -13 9 -13 10 0 10 8 0 22 -5 30 -10z m47 -42 c-3 -7 -5
-2 -5 12 0 14 2 19 5 13 2 -7 2 -19 0 -25z m-202 12 c3 -5 3 -15 -1 -21 -4 -8
-9 -7 -15 2 -6 10 -10 8 -16 -8 -6 -16 -12 -20 -23 -13 -11 7 -10 12 11 29 27
23 35 25 44 11z m199 -54 c-6 -16 -24 -23 -24 -8 0 10 22 33 27 28 2 -2 1 -11
-3 -20z m-80 -41 c-3 -7 -12 -11 -20 -8 -11 4 -12 9 -3 19 14 17 30 9 23 -11z"/>
          <path d="M510 1380 c0 -5 5 -10 10 -10 6 0 10 5 10 10 0 6 -4 10 -10 10 -5 0
-10 -4 -10 -10z"/>
          <path d="M658 1133 c7 -3 16 -2 19 1 4 3 -2 6 -13 5 -11 0 -14 -3 -6 -6z"/>
          <path d="M510 1130 c8 -5 24 -9 35 -9 l20 0 -20 9 c-11 5 -27 9 -35 9 -13 1
-13 0 0 -9z"/>
          <path d="M475 1120 c3 -5 14 -10 23 -10 15 0 15 2 2 10 -20 13 -33 13 -25 0z"/>
          <path d="M1890 1758 c0 -66 9 -71 20 -11 l8 38 1 -44 c1 -49 12 -51 13 -2 1
33 13 49 21 28 2 -6 3 -25 1 -40 -2 -18 1 -27 9 -24 7 2 12 10 13 18 2 33 5
39 15 39 5 0 8 -3 6 -7 -3 -5 8 -8 23 -8 29 0 54 14 29 16 -8 1 -18 2 -24 4
-5 1 -18 3 -28 3 -13 2 -17 7 -12 21 7 24 -10 37 -19 14 -6 -14 -8 -14 -21 3
-14 19 -14 19 -15 -1 -1 -19 -1 -19 -14 -2 -22 28 -26 20 -26 -45z"/>
          <path d="M2040 1810 c0 -5 5 -10 11 -10 5 0 7 5 4 10 -3 6 -8 10 -11 10 -2 0
-4 -4 -4 -10z"/>
          <path d="M2367 1813 c-3 -5 -8 -30 -11 -58 -8 -52 -8 -56 -26 -169 -6 -38 -9
-70 -7 -72 2 -2 12 31 22 74 22 93 22 92 39 86 16 -6 12 -60 -10 -138 -14 -48
-12 -69 4 -50 5 5 14 41 22 79 7 39 17 81 23 95 6 14 12 34 13 45 2 11 6 41
10 68 4 26 3 47 -2 47 -14 0 -31 -14 -37 -30 -4 -10 -6 -8 -6 8 -1 21 -25 31
-34 15z m48 -93 c-1 -17 -8 -26 -24 -28 -19 -3 -21 -1 -13 15 5 10 7 24 4 32
-3 10 0 12 11 8 12 -4 15 -1 11 11 -5 14 -4 14 4 2 5 -8 9 -26 7 -40z"/>
          <path d="M2655 1810 c-18 -7 -19 -8 -2 -15 9 -4 17 -11 17 -16 0 -5 -8 -9 -17
-10 -17 0 -17 -1 -1 -7 26 -10 58 -76 58 -119 0 -53 10 -83 26 -83 11 0 14 26
14 130 l0 130 -37 -1 c-21 0 -47 -4 -58 -9z"/>
          <path d="M2160 1799 c0 -5 5 -7 10 -4 6 3 10 8 10 11 0 2 -4 4 -10 4 -5 0 -10
-5 -10 -11z"/>
          <path d="M2092 1775 c0 -16 2 -22 5 -12 2 9 2 23 0 30 -3 6 -5 -1 -5 -18z"/>
          <path d="M2151 1724 c0 -11 3 -14 6 -6 3 7 2 16 -1 19 -3 4 -6 -2 -5 -13z"/>
          <path d="M1990 1710 c0 -5 5 -10 11 -10 5 0 7 5 4 10 -3 6 -8 10 -11 10 -2 0
-4 -4 -4 -10z"/>
          <path d="M2025 1710 c-3 -5 -1 -10 4 -10 6 0 11 5 11 10 0 6 -2 10 -4 10 -3 0
-8 -4 -11 -10z"/>
          <path d="M2126 1692 c-3 -6 -1 -14 5 -17 15 -10 25 3 12 16 -7 7 -13 7 -17 1z"/>
          <path d="M1636 1681 c14 -13 62 -22 68 -12 6 9 -26 21 -58 21 -12 0 -16 -3
-10 -9z"/>
          <path d="M1845 1655 c0 -14 3 -25 8 -25 4 0 7 11 7 25 0 14 -3 25 -7 25 -5 0
-8 -11 -8 -25z"/>
          <path d="M1880 1669 c0 -5 5 -7 10 -4 6 3 10 8 10 11 0 2 -4 4 -10 4 -5 0 -10
-5 -10 -11z"/>
          <path d="M1950 1655 c0 -14 2 -25 4 -25 2 0 6 11 8 25 3 14 1 25 -3 25 -5 0
-9 -11 -9 -25z"/>
          <path d="M2020 1655 c0 -14 2 -25 4 -25 2 0 6 11 8 25 3 14 1 25 -3 25 -5 0
-9 -11 -9 -25z"/>
          <path d="M1841 1604 c0 -11 3 -14 6 -6 3 7 2 16 -1 19 -3 4 -6 -2 -5 -13z"/>
          <path d="M1875 1611 c-3 -5 -1 -12 5 -16 5 -3 10 1 10 9 0 18 -6 21 -15 7z"/>
          <path d="M2010 1605 c0 -8 4 -15 10 -15 5 0 7 7 4 15 -4 8 -8 15 -10 15 -2 0
-4 -7 -4 -15z"/>
          <path d="M1810 1550 c0 -22 -6 -33 -22 -40 -18 -7 -19 -9 -5 -9 10 -1 17 -9
17 -22 0 -11 4 -18 8 -15 8 5 15 116 7 116 -3 0 -5 -14 -5 -30z"/>
          <path d="M1841 1564 c0 -11 3 -14 6 -6 3 7 2 16 -1 19 -3 4 -6 -2 -5 -13z"/>
          <path d="M1865 1511 c-8 -26 2 -42 14 -22 5 7 14 10 20 7 7 -5 11 1 11 16 0
19 -2 20 -10 8 -8 -13 -11 -13 -19 -1 -7 11 -10 9 -16 -8z"/>
          <path d="M1936 1512 c-9 -27 -5 -34 10 -24 7 4 8 16 4 27 -7 19 -7 19 -14 -3z"/>
          <path d="M1835 1511 c-3 -5 -1 -12 5 -16 5 -3 10 1 10 9 0 18 -6 21 -15 7z"/>
          <path d="M2000 1504 c0 -8 5 -12 10 -9 6 4 8 11 5 16 -9 14 -15 11 -15 -7z"/>
          <path d="M1970 1494 c0 -8 5 -12 10 -9 6 4 8 11 5 16 -9 14 -15 11 -15 -7z"/>
          <path d="M1895 1450 c3 -5 8 -10 11 -10 2 0 4 5 4 10 0 6 -5 10 -11 10 -5 0
-7 -4 -4 -10z"/>
          <path d="M1802 1410 c0 -14 2 -19 5 -12 2 6 2 18 0 25 -3 6 -5 1 -5 -13z"/>
          <path d="M1478 1343 c6 -2 18 -2 25 0 6 3 1 5 -13 5 -14 0 -19 -2 -12 -5z"/>
          <path d="M1903 1306 c-13 -6 -23 -14 -23 -17 0 -10 39 1 46 13 9 14 2 15 -23
4z"/>
          <path d="M1790 1305 c-5 -19 -7 -30 -8 -42 -1 -7 -11 -13 -23 -13 -11 0 -17
-4 -14 -10 8 -13 42 -7 65 12 10 9 22 13 26 10 4 -4 4 -1 0 6 -6 10 -11 10
-21 2 -11 -9 -14 -5 -18 17 -2 15 -5 24 -7 18z"/>
          <path d="M1715 1260 c-3 -5 -1 -10 4 -10 6 0 11 5 11 10 0 6 -2 10 -4 10 -3 0
-8 -4 -11 -10z"/>
          <path d="M1332 1220 c0 -19 2 -27 5 -17 2 9 2 25 0 35 -3 9 -5 1 -5 -18z"/>
          <path d="M1680 1230 c0 -6 12 -10 27 -10 29 0 24 12 -7 17 -11 2 -20 -2 -20
-7z"/>
          <path d="M1209 1195 c-6 -42 -5 -49 8 -44 4 2 6 22 3 44 l-6 40 -5 -40z"/>
          <path d="M1650 1220 c0 -5 5 -10 10 -10 6 0 10 5 10 10 0 6 -4 10 -10 10 -5 0
-10 -4 -10 -10z"/>
          <path d="M1050 1201 c0 -6 5 -13 10 -16 6 -3 10 1 10 9 0 9 -4 16 -10 16 -5 0
-10 -4 -10 -9z"/>
          <path d="M2728 1093 c7 -3 16 -2 19 1 4 3 -2 6 -13 5 -11 0 -14 -3 -6 -6z"/>
          <path d="M2010 1000 c0 -5 5 -10 11 -10 5 0 7 5 4 10 -3 6 -8 10 -11 10 -2 0
-4 -4 -4 -10z"/>
          <path d="M1420 425 c7 -8 17 -12 22 -9 6 4 5 10 -3 15 -22 14 -33 10 -19 -6z"/>
          <path d="M1634 289 c-12 -19 13 -33 30 -16 14 14 14 16 0 21 -21 8 -22 8 -30
-5z"/>
          <path d="M2590 241 c0 -6 4 -13 10 -16 6 -3 7 1 4 9 -7 18 -14 21 -14 7z"/>
          <path d="M2720 246 c0 -2 7 -6 15 -10 8 -3 15 -1 15 4 0 6 -7 10 -15 10 -8 0
-15 -2 -15 -4z"/>
          <path d="M2708 201 c9 -16 18 -28 20 -27 5 6 -21 56 -29 56 -5 0 0 -13 9 -29z"/>
     </g>
</svg>
