<svg width="1500" height="100" viewBox="0 0 1500 100" fill="none" xmlns="http://www.w3.org/2000/svg">
<rect width="100" height="100" rx="50" fill="#FF6B18"/>
<rect opacity="0.2" x="200" width="100" height="100" rx="50" fill="#B8B6A8"/>
<path d="M300 0H302.5C330.114 0 352.5 22.3858 352.5 50C352.5 77.6142 330.114 100 302.5 100H300V0Z" fill="#FF6B18"/>
<path d="M352.5 47.5C352.5 21.2665 373.766 0 400 0V100C373.766 100 352.5 78.7335 352.5 52.5V47.5Z" fill="#25223B"/>
<rect x="500" width="100" height="100" fill="#761D3B"/>
<rect x="600" width="100" height="100" fill="#FAB4B8"/>
<rect x="700" width="100" height="100" rx="50" fill="#FF6B18"/>
<rect opacity="0.2" x="800" width="100" height="100" fill="#B8B6A8"/>
<rect x="1000" width="100" height="50" fill="#FAB4B8"/>
<path d="M1000 100C1000 72.3858 1022.39 50 1050 50C1077.61 50 1100 72.3858 1100 100H1000Z" fill="#25223B"/>
<mask id="mask0" mask-type="alpha" maskUnits="userSpaceOnUse" x="1100" y="0" width="100" height="100">
<rect x="1100" width="100" height="100" fill="#761D3B"/>
</mask>
<g mask="url(#mask0)">
<path fill-rule="evenodd" clip-rule="evenodd" d="M1146.63 0H1151.13V43.8201L1179.29 10.2513L1182.74 13.1439L1155.19 45.9798L1196.59 34.8858L1197.76 39.2324L1156.35 50.3268L1196.63 64.9868L1195.09 69.2154L1154.81 54.5555L1179.4 89.6672L1175.71 92.2483L1151.13 57.1356V100H1146.63V56.1837L1118.46 89.7483L1115.02 86.8558L1142.57 54.0204L1101.16 65.1143L1100 60.7677L1141.4 49.674L1101.12 35.0134L1102.66 30.7848L1142.94 45.4455L1118.36 10.333L1122.04 7.75196L1146.63 42.8634V0Z" fill="#FF6B18"/>
</g>
<rect x="1200" width="100" height="100" fill="#761D3B"/>
<rect x="1300" width="100" height="100" rx="50" fill="#FF6B18"/>
<path d="M1400 100V97.5C1400 69.8858 1422.39 47.5 1450 47.5C1477.61 47.5 1500 69.8858 1500 97.5V100H1400Z" fill="#FAB4B8"/>
<path d="M1447.5 47.5C1421.27 47.5 1400 26.2335 1400 0L1500 0C1500 26.2335 1478.73 47.5 1452.5 47.5H1447.5Z" fill="#25223B"/>
</svg>
