<svg version="1.1" xmlns="http://www.w3.org/2000/svg" xmlns:xlink="http://www.w3.org/1999/xlink" x="0px" y="0px" width="224.6px"
	 height="224.6px" viewBox="0 0 224.6 224.6" style="overflow:visible;enable-background:new 0 0 224.6 224.6;"
	 xml:space="preserve">
<defs>
</defs>
<path class="st0" d="M112.3,0C50.3,0,0,50.3,0,112.3s50.3,112.3,112.3,112.3s112.3-50.3,112.3-112.3S174.4,0,112.3,0z M169.2,162.5
	l-6.6,6.6c-0.5,0.5-1.1,0.8-1.8,0.8s-1.3-0.3-1.8-0.8l-46.6-46.6l-46.6,46.6c-0.5,0.5-1.1,0.8-1.8,0.8c-0.7,0-1.3-0.3-1.8-0.8
	l-6.6-6.6c-1-1-1-2.6,0-3.6l46.6-46.6L55.5,65.8c-1-1-1-2.6,0-3.6l6.6-6.6c1-1,2.7-1,3.6,0l46.6,46.6l46.6-46.6
	c0.5-0.5,1.1-0.8,1.8-0.8c0.7,0,1.3,0.3,1.8,0.8l6.6,6.6c1,1,1,2.6,0,3.6l-46.6,46.6l46.6,46.6C170.2,159.9,170.2,161.5,169.2,162.5
	z" fill="#FF6B18"/>
</svg>
