<svg width="178" height="48" viewBox="0 0 178 48" fill="none" xmlns="http://www.w3.org/2000/svg">
<g clip-path="url(#clip0)">
<path d="M45.5466 -0.289062L30.5853 33.8455H30.3357L28.7493 19.7258L20.9209 37.1731L21.4743 41.2579H37.3025L55.9438 -0.289062H45.5466Z" fill="#F55800"/>
<path d="M28.7482 19.7282H28.7491L37.7287 -0.284912H27.3323L12.3702 33.8496H12.1206L10.4915 19.73H0.344727L3.25916 41.262H19.0873L20.9207 37.1754L18.5597 19.7282H28.7482Z" fill="#FFA450"/>
<path d="M28.749 19.7258H18.5596L20.9206 37.173L28.7152 19.8018L28.749 19.7258Z" fill="#C63D22"/>
<path d="M69.5562 19.7356L59.2327 41.2676H52.9464L51.6557 28.0165L45.7025 41.2676H39.7075L36.7939 19.7356H42.4558L43.9961 33.8561H44.2457L50.4068 19.7356H55.9016L57.1923 33.8561H57.4419L63.7282 19.7356H69.5562Z" fill="#25223B"/>
<path d="M72.3442 10.9573H78.1722L76.1745 22.0966C77.7983 20.2747 80.0456 19.3221 82.6687 19.3221C86.7903 19.3221 89.6203 21.6822 89.6203 25.782C89.6203 27.0243 89.3707 28.5149 89.1211 29.8403L87.0399 41.2694H81.3372L83.3349 29.9649C83.4601 29.22 83.668 28.3497 83.668 27.3972C83.668 25.5753 82.96 23.9601 80.3378 23.9601C77.3825 23.9601 75.5092 25.9888 75.0091 28.8048L72.8026 41.2686H66.9746L72.3442 10.9573Z" fill="#25223B"/>
<path d="M106.209 41.2684L106.582 39.207C105.421 40.7895 103.046 41.6828 100.299 41.6828C94.2211 41.6828 90.4326 37.3347 90.4326 31.2477C90.4326 24.5396 95.0952 19.322 102.13 19.322C106.127 19.322 108.291 21.0194 109.415 22.9659L109.994 19.7364H115.16L112.163 36.6314L111.4 41.2693H106.209V41.2684ZM108.291 29.7978C108.291 26.4022 106.335 23.8345 102.589 23.8345C98.0514 23.8345 96.0528 27.5614 96.0528 31.1638C96.0528 34.8077 98.134 37.1677 101.631 37.1677C106.001 37.1686 108.291 33.4832 108.291 29.7978Z" fill="#25223B"/>
<path d="M125.941 13.5239L124.817 19.7355H130.396L129.688 23.959H124.109L122.236 34.6009C121.945 36.2576 122.361 37.2923 124.151 37.2923C124.983 37.2923 126.381 37.0131 127.338 36.6817L126.621 40.7736C125.831 41.1465 124.65 41.681 121.903 41.681C116.492 41.681 115.867 38.1608 116.616 33.8967L118.364 23.959H115.325L116.128 19.7355H119.155L121.194 13.5239H125.941Z" fill="#25223B"/>
<path d="M155.063 19.7355L151.233 41.2675H145.53L148.567 24.0059L146.001 23.9484L146.779 19.7346H155.063V19.7355ZM152.358 10.5427C154.106 10.5427 155.522 11.9512 155.522 13.69C155.522 15.4289 154.107 16.8374 152.358 16.8374C150.609 16.8374 149.194 15.4298 149.194 13.69C149.194 11.9512 150.609 10.5427 152.358 10.5427Z" fill="#25223B"/>
<path d="M162.39 30.1292L156.728 19.7356H162.931L166.22 26.3607L171.215 19.7356H178.001L168.925 30.5436L174.504 41.2685H168.426L165.013 34.2705L159.684 41.2685H152.856L162.39 30.1292Z" fill="#25223B"/>
<path d="M129.541 43.9598C131.207 43.7531 131.748 42.8006 131.997 41.4752L135.036 23.959H131.706L132.289 19.7355H135.827L136.16 17.8305C136.784 14.4764 138.241 10.5427 143.612 10.5427C145.507 10.5427 147.047 10.981 147.047 10.981L146.345 15.0022C145.607 14.9094 145.276 14.8493 144.568 14.8493C142.445 14.8493 142.196 16.0086 141.904 17.5822L141.53 19.7355H145.484L144.734 23.959H140.78L137.616 41.6404C136.825 46.1538 135.221 48.7091 128.749 48.3459L129.541 43.9598Z" fill="#25223B"/>
</g>
<defs>
<clipPath id="clip0">
<rect width="178" height="48" fill="white"/>
</clipPath>
</defs>
</svg>
