<svg width="182" height="37" viewBox="0 0 182 37" fill="none" xmlns="http://www.w3.org/2000/svg">
<g clip-path="url(#clip0_2009_16879)">
<path d="M34.0945 0.297852L22.8096 25.7631H22.6213L21.4248 15.2295L15.52 28.2455L15.9368 31.2929H27.8762L41.9368 0.297852H34.0945Z" fill="#F55800"/>
<path d="M21.4233 15.2301H21.4246L28.1976 0.299805H20.3553L9.07045 25.765H8.88217L7.65343 15.2314H0L2.1976 31.2948H14.137L15.5199 28.2462L13.739 15.2301H21.4233Z" fill="#FFA450"/>
<path d="M21.4251 15.2295H13.7395L15.5203 28.2456L21.399 15.2862L21.4251 15.2295Z" fill="#C63D22"/>
<path d="M52.2032 15.2368L44.4165 31.3003H39.6748L38.7014 21.4146L34.211 31.3003H29.6892L27.4916 15.2368H31.7621L32.9239 25.7711H33.1122L37.7593 15.2368H41.904L42.8774 25.7711H43.0657L47.8073 15.2368H52.2032Z" fill="white"/>
<path d="M54.306 8.68799H58.7019L57.1951 16.9982C58.4198 15.639 60.1149 14.9284 62.0934 14.9284C65.2022 14.9284 67.3368 16.689 67.3368 19.7476C67.3368 20.6744 67.1485 21.7864 66.9603 22.7752L65.3904 31.3016H61.0884L62.5953 22.8682C62.6897 22.3124 62.8465 21.6631 62.8465 20.9526C62.8465 19.5934 62.3125 18.3884 60.3346 18.3884C58.1056 18.3884 56.6925 19.9019 56.3153 22.0027L54.651 31.3009H50.2551L54.306 8.68799Z" fill="white"/>
<path d="M79.8497 31.3008L80.1313 29.763C79.2557 30.9435 77.4641 31.61 75.3916 31.61C70.8074 31.61 67.9498 28.3662 67.9498 23.8251C67.9498 18.8207 71.4667 14.9282 76.773 14.9282C79.7872 14.9282 81.4201 16.1945 82.2677 17.6467L82.7044 15.2374H86.6016L84.341 27.8414L83.7643 31.3015L79.8497 31.3008ZM81.4193 22.7434C81.4193 20.2102 79.9438 18.2946 77.1178 18.2946C73.6958 18.2946 72.1883 21.075 72.1883 23.7625C72.1883 26.481 73.7581 28.2416 76.3958 28.2416C79.6931 28.2422 81.4193 25.4928 81.4193 22.7434Z" fill="white"/>
<path d="M94.7327 10.6028L93.8851 15.2368H98.0925L97.5588 18.3877H93.3506L91.9375 26.3267C91.7177 27.5627 92.0324 28.3346 93.3822 28.3346C94.01 28.3346 95.064 28.1263 95.7867 27.8791L95.2454 30.9318C94.6492 31.2099 93.7586 31.6087 91.6869 31.6087C87.6051 31.6087 87.1339 28.9825 87.6985 25.8014L89.0174 18.3877H86.7251L87.3311 15.2368H89.6136L91.1516 10.6028H94.7327Z" fill="white"/>
<path d="M116.698 15.2369L113.81 31.3003H109.508L111.799 18.4227L109.863 18.3799L110.45 15.2363L116.698 15.2369ZM114.657 8.37891C115.975 8.37891 117.044 9.42963 117.044 10.7269C117.044 12.0241 115.976 13.0748 114.657 13.0748C113.338 13.0748 112.27 12.0247 112.27 10.7269C112.271 9.42963 113.338 8.37891 114.657 8.37891Z" fill="white"/>
<path d="M122.225 22.9907L117.955 15.2368H122.633L125.114 20.1794L128.882 15.2368H134L127.156 23.2999L131.363 31.301H126.779L124.204 26.0803L120.184 31.301H115.035L122.225 22.9907Z" fill="white"/>
<path d="M97.4481 33.3088C98.7045 33.1546 99.1125 32.444 99.3007 31.4552L101.593 18.3878H99.0809L99.5206 15.2369H102.189L102.441 13.8158C102.911 11.3135 104.01 8.37891 108.061 8.37891C109.491 8.37891 110.652 8.70584 110.652 8.70584L110.122 11.7057C109.566 11.6365 109.317 11.5917 108.782 11.5917C107.181 11.5917 106.993 12.4565 106.773 13.6305L106.491 15.2369H109.473L108.908 18.3878H105.925L103.538 31.5785C102.942 34.9456 101.732 36.8519 96.8503 36.581L97.4481 33.3088Z" fill="white"/>
</g>
<path d="M150.162 17.2281H153.536C154.423 17.2281 155.109 17.4567 155.594 17.9141C156.089 18.3714 156.336 18.9967 156.336 19.7901C156.336 20.3594 156.196 20.8121 155.916 21.1481C155.636 21.4841 155.258 21.7221 154.782 21.8621V21.9321C155.351 22.0627 155.809 22.3147 156.154 22.6881C156.499 23.0521 156.672 23.5701 156.672 24.2421C156.672 24.6434 156.607 25.0121 156.476 25.3481C156.345 25.6841 156.159 25.9781 155.916 26.2301C155.673 26.4727 155.379 26.6641 155.034 26.8041C154.698 26.9347 154.325 27.0001 153.914 27.0001H150.162V17.2281ZM153.438 25.7961C153.961 25.7961 154.362 25.6887 154.642 25.4741C154.922 25.2594 155.062 24.9141 155.062 24.4381V23.9341C155.062 23.4581 154.922 23.1127 154.642 22.8981C154.362 22.6834 153.961 22.5761 153.438 22.5761H151.702V25.7961H153.438ZM153.214 21.4281C153.709 21.4281 154.082 21.3347 154.334 21.1481C154.595 20.9521 154.726 20.6301 154.726 20.1821V19.6781C154.726 19.2301 154.595 18.9127 154.334 18.7261C154.082 18.5301 153.709 18.4321 153.214 18.4321H151.702V21.4281H153.214Z" fill="white"/>
<path d="M158.977 27.0001V17.2281H160.545V25.6841H164.997V27.0001H158.977Z" fill="white"/>
<path d="M170.129 27.1681C169.513 27.1681 168.976 27.0561 168.519 26.8321C168.071 26.5987 167.698 26.2674 167.399 25.8381C167.11 25.4087 166.895 24.8814 166.755 24.2561C166.615 23.6307 166.545 22.9167 166.545 22.1141C166.545 21.3207 166.615 20.6114 166.755 19.9861C166.895 19.3514 167.11 18.8194 167.399 18.3901C167.698 17.9607 168.071 17.6341 168.519 17.4101C168.976 17.1767 169.513 17.0601 170.129 17.0601C170.745 17.0601 171.277 17.1767 171.725 17.4101C172.182 17.6341 172.556 17.9607 172.845 18.3901C173.144 18.8194 173.363 19.3514 173.503 19.9861C173.643 20.6114 173.713 21.3207 173.713 22.1141C173.713 22.9167 173.643 23.6307 173.503 24.2561C173.363 24.8814 173.144 25.4087 172.845 25.8381C172.556 26.2674 172.182 26.5987 171.725 26.8321C171.277 27.0561 170.745 27.1681 170.129 27.1681ZM170.129 25.8661C170.829 25.8661 171.324 25.6047 171.613 25.0821C171.902 24.5501 172.047 23.8314 172.047 22.9261V21.2881C172.047 20.3921 171.902 19.6827 171.613 19.1601C171.324 18.6281 170.829 18.3621 170.129 18.3621C169.429 18.3621 168.934 18.6281 168.645 19.1601C168.356 19.6827 168.211 20.3921 168.211 21.2881V22.9401C168.211 23.8361 168.356 24.5501 168.645 25.0821C168.934 25.6047 169.429 25.8661 170.129 25.8661Z" fill="white"/>
<path d="M180.414 25.6561H180.316C180.232 25.8521 180.129 26.0434 180.008 26.2301C179.896 26.4074 179.751 26.5661 179.574 26.7061C179.406 26.8461 179.2 26.9581 178.958 27.0421C178.715 27.1261 178.435 27.1681 178.118 27.1681C177.1 27.1681 176.335 26.7341 175.822 25.8661C175.308 24.9981 175.052 23.7707 175.052 22.1841C175.052 20.5227 175.346 19.2534 175.934 18.3761C176.522 17.4987 177.422 17.0601 178.636 17.0601C179.112 17.0601 179.527 17.1254 179.882 17.2561C180.246 17.3867 180.554 17.5641 180.806 17.7881C181.058 18.0027 181.268 18.2594 181.436 18.5581C181.604 18.8474 181.739 19.1554 181.842 19.4821L180.428 19.9581C180.353 19.7434 180.269 19.5427 180.176 19.3561C180.082 19.1601 179.966 18.9874 179.826 18.8381C179.695 18.6887 179.532 18.5721 179.336 18.4881C179.149 18.4041 178.92 18.3621 178.65 18.3621C177.968 18.3621 177.474 18.6281 177.166 19.1601C176.867 19.6827 176.718 20.3921 176.718 21.2881V22.8421C176.718 23.2901 176.75 23.7007 176.816 24.0741C176.881 24.4474 176.988 24.7694 177.138 25.0401C177.296 25.3014 177.497 25.5067 177.74 25.6561C177.992 25.8054 178.295 25.8801 178.65 25.8801C179.219 25.8801 179.653 25.7121 179.952 25.3761C180.26 25.0307 180.414 24.5921 180.414 24.0601V23.1781H178.524V22.0021H181.842V27.0001H180.414V25.6561Z" fill="white"/>
<defs>
<clipPath id="clip0_2009_16879">
<rect width="134" height="37" fill="white"/>
</clipPath>
</defs>
</svg>
