<svg width="182" height="38" viewBox="0 0 182 38" fill="none" xmlns="http://www.w3.org/2000/svg">
<path d="M34.3813 0.639328L23.1527 26.394H22.9653L21.7747 15.7407L15.8993 28.9047L16.3147 31.9867H28.194L42.1847 0.639328H34.3813Z" fill="#F55800"/>
<path d="M21.774 15.7407H21.7747L28.514 0.640661H20.7113L9.482 26.3953H9.29467L8.072 15.742H0.456665L2.644 31.988H14.5233L15.8993 28.9047L14.1273 15.7407H21.774Z" fill="#FFA450"/>
<path d="M21.7747 15.7407H14.1273L15.8993 28.9047L21.7493 15.798L21.7747 15.7407Z" fill="#C63D22"/>
<path d="M52.4007 15.748L44.6527 31.994H39.9347L38.966 21.996L34.498 31.994H29.9987L27.812 15.748H32.0613L33.2173 26.402H33.4047L38.0287 15.748H42.1527L43.1213 26.402H43.3087L48.0267 15.748H52.4007Z" fill="#25223B"/>
<path d="M54.4933 9.12467H58.8673L57.368 17.5293C58.5867 16.1547 60.2733 15.436 62.242 15.436C65.3353 15.436 67.4593 17.2167 67.4593 20.31C67.4593 21.2473 67.272 22.372 67.0847 23.372L65.5227 31.9953H61.2427L62.742 23.466C62.836 22.904 62.992 22.2473 62.992 21.5287C62.992 20.154 62.4607 18.9353 60.4927 18.9353C58.2747 18.9353 56.8687 20.466 56.4933 22.5907L54.8373 31.9947H50.4633L54.4933 9.12467Z" fill="#25223B"/>
<path d="M79.9093 31.9947L80.1893 30.4393C79.318 31.6333 77.5353 32.3073 75.4733 32.3073C70.912 32.3073 68.0687 29.0267 68.0687 24.434C68.0687 19.3727 71.568 15.436 76.848 15.436C79.8473 15.436 81.472 16.7167 82.3153 18.1853L82.75 15.7487H86.6273L84.378 28.496L83.8047 31.9953H79.9093V31.9947ZM81.472 23.34C81.472 20.778 80.0033 18.8407 77.192 18.8407C73.7867 18.8407 72.2867 21.6527 72.2867 24.3707C72.2867 27.12 73.8487 28.9007 76.4733 28.9007C79.7533 28.9013 81.472 26.1207 81.472 23.34Z" fill="#25223B"/>
<path d="M94.718 11.0613L93.8747 15.748H98.0613L97.53 18.9347H93.3433L91.9373 26.964C91.7187 28.214 92.0313 28.9947 93.3747 28.9947C93.9993 28.9947 95.048 28.784 95.7667 28.534L95.2287 31.6213C94.6353 31.9027 93.7493 32.306 91.6873 32.306C87.626 32.306 87.1573 29.65 87.7193 26.4327L89.0313 18.9347H86.7507L87.3533 15.748H89.6247L91.1553 11.0613H94.718Z" fill="#25223B"/>
<path d="M116.575 15.748L113.701 31.994H109.421L111.7 18.97L109.774 18.9267L110.358 15.7473H116.575V15.748ZM114.545 8.812C115.857 8.812 116.919 9.87467 116.919 11.1867C116.919 12.4987 115.857 13.5613 114.545 13.5613C113.233 13.5613 112.17 12.4993 112.17 11.1867C112.17 9.87467 113.233 8.812 114.545 8.812Z" fill="#25223B"/>
<path d="M122.074 23.59L117.825 15.748H122.48L124.948 20.7467L128.697 15.748H133.79L126.979 23.9027L131.165 31.9947H126.604L124.042 26.7147L120.043 31.9947H114.919L122.074 23.59Z" fill="#25223B"/>
<path d="M97.4207 34.0253C98.6707 33.8693 99.0767 33.1507 99.264 32.1507L101.545 18.9347H99.0453L99.4827 15.748H102.138L102.388 14.3107C102.857 11.78 103.95 8.812 107.981 8.812C109.403 8.812 110.559 9.14267 110.559 9.14267L110.032 12.1767C109.478 12.1067 109.23 12.0613 108.699 12.0613C107.105 12.0613 106.918 12.936 106.699 14.1233L106.418 15.748H109.386L108.823 18.9347H105.855L103.481 32.2753C102.887 35.6807 101.683 37.6087 96.826 37.3347L97.4207 34.0253Z" fill="#25223B"/>
<path d="M150.162 18.228H153.536C154.423 18.228 155.109 18.4567 155.594 18.914C156.089 19.3713 156.336 19.9967 156.336 20.79C156.336 21.3593 156.196 21.812 155.916 22.148C155.636 22.484 155.258 22.722 154.782 22.862V22.932C155.351 23.0627 155.809 23.3147 156.154 23.688C156.499 24.052 156.672 24.57 156.672 25.242C156.672 25.6433 156.607 26.012 156.476 26.348C156.345 26.684 156.159 26.978 155.916 27.23C155.673 27.4727 155.379 27.664 155.034 27.804C154.698 27.9347 154.325 28 153.914 28H150.162V18.228ZM153.438 26.796C153.961 26.796 154.362 26.6887 154.642 26.474C154.922 26.2593 155.062 25.914 155.062 25.438V24.934C155.062 24.458 154.922 24.1127 154.642 23.898C154.362 23.6833 153.961 23.576 153.438 23.576H151.702V26.796H153.438ZM153.214 22.428C153.709 22.428 154.082 22.3347 154.334 22.148C154.595 21.952 154.726 21.63 154.726 21.182V20.678C154.726 20.23 154.595 19.9127 154.334 19.726C154.082 19.53 153.709 19.432 153.214 19.432H151.702V22.428H153.214Z" fill="#35324A"/>
<path d="M158.977 28V18.228H160.545V26.684H164.997V28H158.977Z" fill="#35324A"/>
<path d="M170.129 28.168C169.513 28.168 168.976 28.056 168.519 27.832C168.071 27.5987 167.698 27.2673 167.399 26.838C167.11 26.4087 166.895 25.8813 166.755 25.256C166.615 24.6307 166.545 23.9167 166.545 23.114C166.545 22.3207 166.615 21.6113 166.755 20.986C166.895 20.3513 167.11 19.8193 167.399 19.39C167.698 18.9607 168.071 18.634 168.519 18.41C168.976 18.1767 169.513 18.06 170.129 18.06C170.745 18.06 171.277 18.1767 171.725 18.41C172.182 18.634 172.556 18.9607 172.845 19.39C173.144 19.8193 173.363 20.3513 173.503 20.986C173.643 21.6113 173.713 22.3207 173.713 23.114C173.713 23.9167 173.643 24.6307 173.503 25.256C173.363 25.8813 173.144 26.4087 172.845 26.838C172.556 27.2673 172.182 27.5987 171.725 27.832C171.277 28.056 170.745 28.168 170.129 28.168ZM170.129 26.866C170.829 26.866 171.324 26.6047 171.613 26.082C171.902 25.55 172.047 24.8313 172.047 23.926V22.288C172.047 21.392 171.902 20.6827 171.613 20.16C171.324 19.628 170.829 19.362 170.129 19.362C169.429 19.362 168.934 19.628 168.645 20.16C168.356 20.6827 168.211 21.392 168.211 22.288V23.94C168.211 24.836 168.356 25.55 168.645 26.082C168.934 26.6047 169.429 26.866 170.129 26.866Z" fill="#35324A"/>
<path d="M180.414 26.656H180.316C180.232 26.852 180.129 27.0433 180.008 27.23C179.896 27.4073 179.751 27.566 179.574 27.706C179.406 27.846 179.2 27.958 178.958 28.042C178.715 28.126 178.435 28.168 178.118 28.168C177.1 28.168 176.335 27.734 175.822 26.866C175.308 25.998 175.052 24.7707 175.052 23.184C175.052 21.5227 175.346 20.2533 175.934 19.376C176.522 18.4987 177.422 18.06 178.636 18.06C179.112 18.06 179.527 18.1253 179.882 18.256C180.246 18.3867 180.554 18.564 180.806 18.788C181.058 19.0027 181.268 19.2593 181.436 19.558C181.604 19.8473 181.739 20.1553 181.842 20.482L180.428 20.958C180.353 20.7433 180.269 20.5427 180.176 20.356C180.082 20.16 179.966 19.9873 179.826 19.838C179.695 19.6887 179.532 19.572 179.336 19.488C179.149 19.404 178.92 19.362 178.65 19.362C177.968 19.362 177.474 19.628 177.166 20.16C176.867 20.6827 176.718 21.392 176.718 22.288V23.842C176.718 24.29 176.75 24.7007 176.816 25.074C176.881 25.4473 176.988 25.7693 177.138 26.04C177.296 26.3013 177.497 26.5067 177.74 26.656C177.992 26.8053 178.295 26.88 178.65 26.88C179.219 26.88 179.653 26.712 179.952 26.376C180.26 26.0307 180.414 25.592 180.414 25.06V24.178H178.524V23.002H181.842V28H180.414V26.656Z" fill="#35324A"/>
</svg>
